<?xml version="1.0" encoding="utf-8"?>
<!-- Generator: Adobe Illustrator 21.0.2, SVG Export Plug-In . SVG Version: 6.00 Build 0)  -->
<svg version="1.1" xmlns="http://www.w3.org/2000/svg" xmlns:xlink="http://www.w3.org/1999/xlink" x="0px" y="0px"
	 viewBox="0 0 499.8 342.4" enable-background="new 0 0 499.8 342.4" xml:space="preserve">
<g id="Coast_Mtn_logo_1_">
	<g id="Coast_Mtn_logo_2_">
		<path id="hex_gold" fill="#B89B65" d="M497.8,122.4c-1.5-1.9-3.8-3-6.2-3.1l-18-0.6c-0.1,0-0.2,0-0.3,0c-2.1,0-4.2,0.8-5.7,2.2
			c-0.2-0.2-0.4-0.4-0.6-0.6c-0.4-0.4-0.9-0.7-1.4-1v-20c0-5.6-1.2-10.4-3.6-14.5c-3-5.1-7.7-8.9-14-11.4L267.5,3.2
			C262.1,1.1,256.2,0,249.9,0c-6.3,0-12.2,1.1-17.6,3.2L51.9,73.5c-6.3,2.5-11,6.3-14,11.4c-2.5,4.2-3.7,8.9-3.7,14.5v19.9
			c-0.3,0-0.7,0-1,0c-6.8,0.3-12.9,2.4-18,6.2c-5,3.7-8.8,8.8-11.4,15.2C1.3,146.9,0,154.1,0,162.2v23.9c0,4,0.4,7.8,1.3,11.5
			c0.9,3.7,2.2,7.2,3.9,10.4c1.5,2.6,8.7,11.8,10.7,13.6c2.7,2.5,5.9,4.3,9.4,5.6c2.7,1,5.7,1.5,8.9,1.6V243
			c0,5.7,1.2,10.3,3.6,14.5c2.9,4.8,8.1,9.1,14,11.4l180.4,70.3c5.5,2.1,11.2,3.2,17.6,3.2c6.4,0,12.2-1,17.6-3.2l180.4-70.3
			c6.2-2.4,11.1-6.4,14-11.4c2.5-4.2,3.6-8.9,3.6-14.5v-15.6c0,0,17.2,0.6,22.6,0.7c2.8,0.1,4.1-1.2,5.6-3c0,0,3.4-4,4.2-5
			c1.2-1.5,1.8-3.3,1.8-5.3V128C499.8,125.9,499.1,124,497.8,122.4z"/>
		<path id="hex_black" d="M249.9,4.5c5.7,0,11.1,1,16,2.9l180.4,70.3c5.3,2.1,9.3,5.3,11.8,9.5c2,3.4,3,7.4,3,12.2V243
			c0,4.8-1,8.8-3,12.2c-2.5,4.2-6.5,7.4-11.8,9.5L265.9,335c-4.9,1.9-10.2,2.9-16,2.9c-5.8,0-11-0.9-16-2.9L53.5,264.7
			c-5-2-9.4-5.5-11.8-9.5c-2.1-3.5-3-7.4-3-12.2V99.4c0-4.8,1-8.8,3-12.2c2.5-4.2,6.5-7.4,11.8-9.5L233.9,7.4
			C238.8,5.5,244.2,4.5,249.9,4.5"/>
		<path id="hex_white" fill="#FFFFFF" d="M249.9,10.1c4.8,0,9.5,0.7,13.9,2.5l180.4,70.3c4.5,1.7,7.3,4.2,9,7.1
			c1.7,2.9,2.2,6.1,2.2,9.4V243c0,3.3-0.5,6.5-2.2,9.4c-2,3.4-5.4,5.7-9,7.1l-180.4,70.3c-4.5,1.7-9.1,2.5-13.9,2.5
			c-4.8,0-9.5-0.7-13.9-2.5L55.6,259.5c-3.5-1.3-7.1-3.9-9-7.1c-1.7-2.9-2.2-6.1-2.2-9.4V99.4c0-3.3,0.5-6.5,2.2-9.4
			c1.7-2.9,4.5-5.4,9-7.1L236,12.6C240.4,10.8,245.1,10.1,249.9,10.1"/>
		<linearGradient id="sky_2_" gradientUnits="userSpaceOnUse" x1="260.1994" y1="14.6117" x2="260.1994" y2="59.861">
			<stop  offset="0" style="stop-color:#7FC5E4"/>
			<stop  offset="1" style="stop-color:#BBE0EE"/>
		</linearGradient>
		<path id="sky_1_" fill-rule="evenodd" clip-rule="evenodd" fill="url(#sky_2_)" d="M368.2,58.1l-106-41.3
			c-0.2-0.1-0.4-0.2-0.6-0.2l0,0c-6.5-2.5-16.7-2.5-23.3,0l-0.1,0c-0.2,0.1-0.4,0.2-0.6,0.2l-85.4,33.3l1.3-0.5l3.8-1.5
			c1.9-0.7,4-1.3,5.4-1.5c1.9-0.2,2.9,0.2,4.2,0.8c0.2,0.1,0.5,0.2,0.9,0.2c1.9,0.1,4.5,0.2,5.9-1.1c0.8-0.8,2.7-2.1,4.5-3.1
			c0.8-0.5,1.4-0.9,1.5-1c1.4-1.2,3.2-2,4.9-2c1.7-0.1,4.3-0.5,5.5,0.8c2.4-0.9,4.3-0.9,6-0.8c1.9,0.1,3.4,0.4,4.7,1.3
			c0.3,0.2,0.9,0,1.3-0.2c0.1-0.1,0.3-0.1,0.4-0.1c2-0.9,3.6-1.2,5-1.5c1.8-0.3,2.9-1,4.5-0.4c0.2,0.1,0.4,0.1,0.5,0.2
			c0.4-0.6,0.9-1,1.2-1.5c0.4-0.6,0.7-1.2,0.9-1.7c1.1-2.5,2.2-2.9,3.5-3.6c0.6-0.3,1.2-0.7,1.7-1.7l0.3-0.5l0.4-0.4
			c0.3-0.2,0.8-0.6,1.1-0.9c0.5-0.4,0.7-0.5,1.2-1.2c0.6-0.7,1.2-1.7,1.9-2.1c1.6-0.9,3.4-1.7,5-1.5c1.6,0.2,3.1,1.5,4.1,2.3
			c0.5,0.4,0.9,0.9,1.2,1.4c0.5,0.9,1.2,2,1.9,3c0.5,0.7,1,1.3,1.4,1.7c0.4,0.3,0.6,0.5,0.7,0.6c0.3,0.2,0.4,0.4,0.6,0.6
			c0.2,0.2,0.3,0.4,0.6,0.8l0.4,0.6c0.6,0.9,1.2,1.9,1.8,2.8c0.7,1.1,1.4,2.2,2.1,3.2c0.4,0.7,1.5,0.2,2.4-0.3
			c0.8-0.5,1.8-0.9,2.4-1.1c0.2-0.1,0.4-0.2,0.7-0.3c1.7-0.7,4.2-1.8,5.9-0.9c0.3,0.2,0.5,0.2,0.7,0.2c0.2,0,0.6-0.1,1-0.3
			c0.2-0.1,1.3-0.5,1.4-0.7c0.6-1.3,1.2-2.1,1.8-3.3c1.4-2.8,2.3-4.2,3.9-6.2c0.6-0.7,1.2-2,2-2.9c0.9-0.6,3.1-1.7,5.3-2
			c1.8-0.2,3.5,0.7,4.9,2.1c0.6,0.5,1.3,1.3,2,2c0.6,0.6,1.1,1.2,1.4,1.7c1.4,2.1,2.2,3.4,2.9,4.8c0.6,1.1,1.2,2.3,2.1,3.7
			c0.3,0.6,0.9,1.3,1.4,2.1c0.8,1.2,1.5,2.3,2.3,3.6c0.2,0.4,0.5,0.9,0.7,1.3c1.4,2.6,2.1,3.8,3.9,4.7c1.6,0.8,3,2,4.3,3.2
			c0.9,0.8,1.8,1.6,2.6,2.1c0.7,0.4,1.8,0.8,2.8,1.2c4.5,1.7,1.3,0.8,5.8,1.6c2,0.4,3.3,0.7,4.2,1c1.5,0.4,2,1.1,6.3,0.7
			c0.7-0.1,4.8-0.1,8.1-0.6c1.6-0.3,2.9-0.5,3-0.5c1.4-0.7,2.6-1.3,3.9-1.6c1.5-0.4,2.9-0.4,4.3,0c2.4-1.1,4.5-2.5,7.1-0.4
			c0.3,0.2,0.4,0.3,0.6,0.5c0.3,0.3,0.7,0.7,1.1,0.7l0,0c1.6,0.4,2.4,0.8,2.9,1.7c0.4,0.4,1,0.5,1.9,0.2c1.2-0.5,5.2-1.4,7-1.7
			c0.2,0,0.4-0.1,0.7-0.2c1.1-0.3,2.3-0.5,3.8-0.3C364.9,57.5,367.8,58,368.2,58.1L368.2,58.1z"/>
		<path id="hex_main_body_1_" fill-rule="evenodd" clip-rule="evenodd" fill="#07311D" d="M142.1,54L86.1,75.9L57.2,87.1
			c-6.9,2.7-8.4,7.1-8.4,12.3c0,42.3,0,101.3,0,143.6c0,5.2,1.5,9.6,8.4,12.3l16.6,6.5l104.5,40.7l59.3,23.1
			c0.2,0.1,0.4,0.2,0.6,0.2l0.1,0c6.5,2.5,16.7,2.5,23.3,0l0,0c0.2-0.1,0.4-0.2,0.6-0.2l59.2-23.1l104.4-40.7l16.8-6.6
			c6.9-2.7,8.4-7.1,8.4-12.3c0-42.3,0-101.3,0-143.6c0-5.2-1.5-9.6-8.4-12.3l-22.2-8.7l-34.2-13.3l-18-7c-0.3-0.1-3.3-0.6-4.1-0.7
			c-1.5-0.2-2.7,0-3.8,0.3c-0.3,0.1-0.6,0.2-0.7,0.2c-1.7,0.3-5.8,1.2-7,1.7c-0.9,0.4-1.5,0.3-1.9-0.2c-0.5-0.9-1.3-1.3-2.9-1.7l0,0
			c-0.4-0.1-0.8-0.5-1.1-0.7c-0.2-0.1-0.3-0.3-0.6-0.5c-2.6-2-4.7-0.7-7.1,0.4c-1.4-0.4-2.8-0.3-4.3,0c-1.3,0.3-2.5,0.9-3.9,1.6
			c-0.1,0-1.3,0.2-3,0.5c-3.3,0.5-7.4,0.6-8.1,0.6c-4.3,0.4-4.8-0.3-6.3-0.7c-0.9-0.3-2.2-0.6-4.2-1c-4.5-0.8-1.3,0.1-5.8-1.6
			c-1-0.4-2.1-0.8-2.8-1.2c-0.8-0.5-1.7-1.3-2.6-2.1c-1.3-1.2-2.6-2.4-4.3-3.2c-1.8-0.9-2.5-2.1-3.9-4.7c-0.3-0.5-0.5-1-0.7-1.3
			c-0.7-1.3-1.5-2.5-2.3-3.6c-0.5-0.8-1.1-1.6-1.4-2.1c-0.9-1.4-1.5-2.6-2.1-3.7c-0.8-1.4-1.6-2.8-2.9-4.8c-0.3-0.5-0.8-1.1-1.4-1.7
			c-0.7-0.7-1.4-1.5-2-2c-1.4-1.3-3.1-2.3-4.9-2.1c-2.1,0.3-4.3,1.3-5.3,2c-0.8,0.9-1.5,2.2-2,2.9c-1.6,2-2.5,3.5-3.9,6.2
			c-0.6,1.2-1.2,2-1.8,3.3c-0.1,0.2-1.2,0.6-1.4,0.7c-0.4,0.2-0.8,0.3-1,0.3c-0.2,0-0.4-0.1-0.7-0.2c-1.7-0.9-4.3,0.2-5.9,0.9
			c-0.3,0.1-0.5,0.2-0.7,0.3c-0.5,0.2-1.5,0.6-2.4,1.1c-0.9,0.5-1.9,0.9-2.4,0.3c-0.7-1-1.4-2.1-2.1-3.2c-0.5-0.9-1.2-1.9-1.8-2.8
			l-0.4-0.6c-0.3-0.4-0.4-0.6-0.6-0.8c-0.2-0.2-0.3-0.3-0.6-0.6c-0.1-0.1-0.3-0.3-0.7-0.6c-0.4-0.4-0.9-1-1.4-1.7
			c-0.7-1-1.4-2.1-1.9-3c-0.3-0.5-0.7-1-1.2-1.4c-1-0.8-2.5-2.1-4.1-2.3c-1.6-0.2-3.4,0.6-5,1.5c-0.7,0.4-1.4,1.4-1.9,2.1
			c-0.5,0.7-0.7,0.8-1.2,1.2c-0.4,0.3-0.8,0.7-1.1,0.9l-0.4,0.4l-0.3,0.5c-0.5,1-1.1,1.3-1.7,1.7c-1.4,0.8-2.5,1.1-3.5,3.6
			c-0.2,0.4-0.5,1-0.9,1.7c-0.3,0.5-0.8,0.9-1.2,1.5c-0.1,0-0.3-0.1-0.5-0.2c-1.6-0.6-2.7,0.1-4.5,0.4c-1.4,0.3-3,0.6-5,1.5
			c-0.1,0-0.3,0.1-0.4,0.1c-0.4,0.1-1,0.3-1.3,0.2c-1.4-0.8-2.8-1.1-4.7-1.3c-1.6-0.1-3.5-0.1-6,0.8c-1.3-1.3-3.8-0.9-5.5-0.8
			c-1.7,0.1-3.5,0.8-4.9,2c-0.1,0.1-0.7,0.5-1.5,1c-1.8,1.1-3.6,2.3-4.5,3.1c-1.5,1.2-4,1.1-5.9,1.1c-0.4,0-0.7-0.1-0.9-0.2
			c-1.2-0.6-2.2-1-4.2-0.8c-1.4,0.1-3.6,0.7-5.4,1.5l-3.8,1.5L142.1,54L142.1,54z"/>
		<path id="mountain_snow_1_" fill-rule="evenodd" clip-rule="evenodd" fill="#FFFFFF" d="M139.2,59.8c0,0,0.1-0.1,0.1-0.1
			c0.1-0.1,0.2-0.2,0.3-0.3c0.3-0.2,0.7-0.4,1.2-0.4c0.4,0,0.8-0.2,1.2-0.5c0.9-0.6,1.1-1.1,1.9-1.8c1.4-1.2,3.9-2,4.9-2.3
			c3.9-1.3,4.6-1.2,8.2-3.2c3.2-1.7,5.4-1.5,6.9-0.7c1,0.5,2.5,0.9,6.2,0c1.1-0.3,4.8-0.9,6.2-2.3c1-1,5.1-3.3,5.7-3.8
			c1.9-1.6,4.6-2,6-0.3c0.5,0.6,1.6,1,2.3,0.7c4.7-1.8,6.8-1.2,8.9,0c1.7,1,3.2,0.1,4-0.1c3.8-1.8,5.8-2.2,7.9-1.4
			c1.8,0.6,2.5,0.8,3.4-0.5c1.3-1.8,2.1-3.2,2.4-4.1c1.4-3.3,3.6-2,5.4-5.5c1.7-1.4,1.7-1.2,2.7-2.5c2.2-2.7,6.8-1.3,7.7,0.2
			c0.9,1.6,2.5,4.2,3.9,5.4c1.4,1.3,0.8,0.5,1.9,2.1c1.7,2.5,2.9,5.4,5.2,7.3c1.7,1.4,3.5,0.2,3.7-0.1c0.4-0.7,2.1-1.5,2.9-1.7
			c0.9-0.3,3.6-1.7,4.4-1.3c1.5,0.8,2.6,0.6,4-0.1c1.1-0.5,2.3-0.7,2.8-1.7c1.4-2.9,2.3-4.5,3.3-6.4c0.7-1.2,1.9-3.7,3.5-4.7
			c1.2-0.8,5.1-2.6,6.9-0.8c0.9,0.9,2.5,2.5,3,3.3c2.3,3.5,2.7,4.9,4.9,8.5c1.2,1.9,2.5,3.7,3.6,5.6c2.3,4.1,2.9,5.8,5.9,7.2
			c2.4,1.1,4.4,3.9,6.6,5.2c1.5,0.8,3.8,1.5,5.4,2.2c2.9,1.3,1,0.3,4.2,0.8c6.1,1.1,4.1,1.8,11.2,1.1c1.1-0.1,11.1-1.3,12.1-1.9
			c2.4-1.3,4.3-1.9,6.3-1.4c0.5,0.1,1,0.2,1.4,0c1.8-0.8,3.3-1.7,4.7-0.5c0.6,0.5,1.4,1.4,2.8,1.8c1.1,0.2,1.1,1.9,1.7,2
			c3,0.9,5.1-1.2,8.9-1.9c1-0.2,2.4-0.9,3.7-0.6c0.5,0.1,1.6-0.1,2.7-0.1c1,0,1.9,0.1,2.4,0.5c0.9,0.7,3.1,1.4,4.2,1.8
			c0.6,0.2,1.3,0.6,1.7,0.8c0.7,0.3,1.6,0.4,2,0.5c1.5,0.4,3.5,1.1,4.5,2.4c0.6,0.6,1.3,1.1,2.1,1.3c1.1,0.2,1,0.8,0,2
			c-0.5,0.7-1.1,1.3-1.2,1.5c-1.4-2.1-4.6-2.5-5,2.7c-3.5,1-2.2,0.9-4.6,1c-1.5-0.2-2.4,1-1.3,1.3c1.7,0.1,1.3,2.3,2.6,1.8
			c0.4-0.2,1.3,0.2,0.3,1c-0.9,0.9-4.3,3.8-10.8,6.7c-0.6,0.3-1.3,0.6-1.9,0.9c-0.2-0.1-0.4-0.2-0.5-0.5c-0.4-0.9,0.1-1.6,0.6-1.9
			c1.3-0.7-1.2-1.5-2.8-2c-0.2-0.9-1.8,0-2.3-1.5c-0.3-0.9-0.2-2.1,2.2-1.1c1-0.7,0.5,1.1,5-1.5c1.8-0.8,4.1-2.9,4.1-2.9
			c1.7-0.9,3.8-3.5,8.1-5.1c1.5-0.5-0.3-4.3-3.5-4.5c-1.3,0.2-2.7-1.4-4-2.2c-0.8-0.5-1.6-0.6-2.1,0.5c-0.2,0.5-0.4,1.3-0.6,2.3
			c-0.1,0.5-0.2,4-0.4,4.4c-6.7,0.4-6.7,3.3-7.6,3.6c-1.2,0.3-3.2,0.4-3.6-0.5c-0.3-0.8-2.6-0.7-2.4,0.3c0.1,0.9,0,1.9-0.2,3.4
			c-0.1,0.6-1.3,0.8-2.2,0c-0.9-0.8-1.6-2.7-2-2.7c-2.8,0.7-2.3-0.8-3.1-2.3c-3-0.5,1-4.5-3.9-2.8c-1.8,0.6-4,1.7-6,1
			c-2.2-0.8-6.3-0.2-9.4-0.4c-7.5-0.5-4.3-3.4-12.8-5.5c-0.2-0.1-0.8-0.5-1.4-0.8c-1.8-0.7-3.9-1.8-6.3-2c-0.6-0.1-3.4,1.1-0.8,1.7
			c1,0.2,2.9,0.7,4.9,1.5c2.4,1,1.6,2.8,0.4,3.4c-0.5,0.2-2.1,0.7-2.5-0.6c-0.4-1-1.9-0.6-1.9,0.2c0.1,1.6-1.7,1.7-2.3,1.6
			c-5.1-1-6.9,2.1-7.1,2.7c-0.1,0.4,0.4,0.5,1.3,0.3c1-0.2,2.4-0.8,3.8-0.9c2.1-0.1,4,1.1,5.7,2.2c4.2,2.8,2.8,6.3-3.6,8
			c-1.5,0.4-7.9,2.6-5.3-2.2c1-1,0.7-0.8,0.6-2.3c-3,0.2-2,4-2.5,6c-5.6,2.3-0.8,0.4-0.5,5.4c-4.9,0.3-2.4,2.5-8.1,5.9
			c-1.1,0.6-1.9,2.4-2.4,3c0.1,0.1-5.4,3.1-5,3.1c0.7,1.6-0.9,1.9-1.2,2.9c0.6,0.6,0.1,1-0.5,1.1c-0.1,0.3-0.1,0.8,0.1,1
			c2.1,0.3,8.4,6.6,2,6.7c0,0-1.3,0.2-2.6,0.3c-4.3,0.5-1.3,3.2-4.4,6.3c-2.8,2.8-6.6,5.7-7.9,6.4c-2.1,1.1-5.2,0.6-5.6,0
			c-0.7-1.3,4.5-4.7,5.5-5.7c2.1-2.1,1.6-4,3.4-6.9c0.3-0.5-3.1-7.6-0.9-9c1.6-1.1,1.2-5.8,1.3-7.3c5.4-2.3,2.1-2.6,4.4-4.3
			c0.9-3.4,0.7-5.3,5-6.2c1.2-0.3,5.2-3.4,6.5-5.1c0.6-0.8-0.1-1.7-0.8-1.6c-3.5,0.7-3.8,0.3-4.8-0.6c-0.3-0.3-0.2-0.8-0.1-1.5
			c0.4-1.4,1.4-3.3,1.4-3.8c-0.1-0.5-0.9-1.4-2.2-1.5c-0.4,0-1,0.4-1,0.7c0.1,1.9-0.8,2.9-1.4,5.1c-0.4,1.4-1.7,2.1-3.1,2.6
			c-2.1,0.7-2.1-0.5-1.4-1.3c1.1-1.2,2.6-2.6,2.8-2.4c0.2,0.2,0.7-0.9,0.6-2.3c-0.1-1.3-0.9-2.7-0.7-3.1c0.4-0.7,1.6-2.1,2.3-3.3
			c0.8-1.3,2.3-1.1,2.6-1c0.2,0.6,0,1.6,0.3,2.2c0.7,0.1,1.2-0.2,1.2-0.9c0.1-1,0.9-0.9,1.1-2c3.6-0.9,0.8-1.3,8.5-2.5
			c1.3-0.2,5.6-0.5,5.6-1.5l-0.6-0.3c-2.5-0.4-8.9-2.2-9.9,0.2c-0.3,0.6-2.3,0.5-3,0.5c-0.2-3.8-1-4.7-6.2-4.5c0,1,6.8,4,2.3,4.8
			c-3.2,2-3.7,3-5.6,4.2c-0.3,0.2-2.9,2.1-3.8,3.6c-0.5,0.8-4.2,1.7-5.9,2.7c-0.2-0.1-0.3-0.3-0.5-0.6c-0.5-0.7,4.5-4,4.9-4.8
			c0.6-1.3,2.4-3.2,5.7-5.2c1.4-0.9,3-3.2-0.2-2.7c-1.1,0.2-3.5-0.7-4.7-0.1c-0.4,0.4-1,1.9-1.6,2.3c-2.5,2-5.8,3.3-6.4,4
			c-1.2,1.3-0.9,2.2-1.5,2.6c-1.2,0.7-1.5,1.1-2.2,1.4c-1.1,0.7-1.8,0.1-1.3-1.4c0.4-1.1-0.5-0.6-0.9-0.4c-1.5,1.2-1.4,4-1.6,4.9
			c-0.4,1.3-1,2.2-1.1,2.5c-0.7,0.9,0.8,0.9,1.3,0.6c4.5-1.8,7.3-1.4,4.5,1.6c-2.4,2.4-2.7,2.7-6.5,6.5c-0.5,0.5-0.8,0.3-0.7,1.1
			c1.2,0.3-0.7-0.1,0.9,0.2c4.3,1.1,10.4-6.9,12.4-8.4c0.6-0.4,1.3-0.6,1.9-0.8c0.3,0.3,0.5,0.6,0.7,0.9c0.4,0.7,0.4,1.8-1.1,3.5
			c-0.8,0.9,0.3,1.8,1.1,2.3c-1.3,2.6,2.3,2.3-5.4,4.4l-2,2.3c-1.4,1.6-2.6,4.4-0.7,3.1c2.6-1.8,3.8-2,5.6-1.6
			c0.6,0.1,0.2,1.1-0.1,1.4c-1,1-5.8,1.4-7.2,3.6c-0.6,0.9-3.3,0.7-4.4,1.5c-1.2,0.8-2,2-2.9,3.2c-0.8,0.9,8,1.8,7.7,4.3
			c-0.2,1.6-0.6,0.9,0.9,2.2c1.6,1.5-1.9,1.4-1.8,2.6c0.1,1.1-1.8,2-2,2.9c-0.4,1.5-2.4,1.7-0.7,3.4c1.5,1.5,4.4-0.8,6.5-0.4
			c0.6,0.1,0.6,1.6,0.1,1.7c-6.5,0.9-5.6,0.2-7.7,3c-1.6,2.2,2.4-0.2,3,3.2c0.9,5.1-0.1,0.6-2.6,5.5c-1.8,1.7,2,0-3,3.3l-0.4,0.4
			c-1.4,1.4-2.5,1.2-3.4-1.4c-1.3-3.9-3.1-4.9-3.2-11.4c0-1.3-1.2-2.2-1.3-2.7l-0.6-0.3c-0.2-1.2-0.3,0-0.4-1.7c-0.8,0-3.2,2.8-4,5
			c-0.9,2.3-0.1,4.1-0.4,5.9c0.4,3.3-3.2,1.5,1.1,5.7c3.4,3.4,2.6,0.9,7.7,3.5c1.5,0.8,4.3,3.5,4.8,3.8c0.1,0.1,0.2,1.5,0.1,1.5
			c-6,2.6-8.9-2.7-12-2.7c-0.8,0-1.2-0.8-1.9-1.4c-0.8-0.7-1.1-0.3-1,0.8c0.5,4.2,2,0.2,1.1,6c-0.1,0.4-0.1,0.9-0.2,1.4
			c-0.2,1.1-0.9,2.6-3,1c-2.1-1.6-4-3.3-5.4-6.2c-0.2-1.2-1.9-4.5-1.4-4.7c0.1-0.7-0.2-0.9,0-2l0.3-1.2c0.2-0.8,2.3-2.7,3.7-5
			c1.3-2.2,3.2-2,2.8-5c-0.3-2,2-5.4,2.5-6.6c1-2.5-1.8-1.6-3.2,0.3c-0.7,0.9-2,2.7-3.4,2.8c-0.9,0-1.4-0.7-1.5-1
			c-0.5-2.1-2.4-1.8-2.6-0.6c-0.5,2.6-0.6,6.8-0.4,7.4c0.3,1.8,0,4.3-2.7,8.4c-0.1,0.2-0.2,0.4-0.2,0.6c-1.8,3.2-2.9,2.2-5.3,0.6
			c-3.1-2.1-6.6-4.3-10.7-6.9c-4.6-2.9-0.1-6.6-4.4-8.5c-4.4-1.9,0.4-4-0.4-6.9c-1.2-4.4,1.3-3.8,0.5-5.9c-2.2-0.3-2.8-2.6-2.5-4.7
			c1.1-7.7-1-7.3-1.9-10.6c-0.4-0.1-0.8-4.7-1.2-4.8c-2.8-0.4-1.7-6-0.1-7.2c3.8-4.4,2.8-1.7,6.9-2.8c4.9-1.3-6.4-1.2-6.4-3.1
			c-0.1,0-0.8,0-1,0.1c-0.6,3.5,0.4,4-3,3.5c-0.4-0.9,0.2-4.9-2.6-3.5c-0.7,2.1,1.3,6.6,1.5,10c-0.9,0.1-1.6-0.8-1.8-1.5
			c-0.4-0.1-1.7,0-2.2,0.1c0.2,4.2,1.9,4.1,1.1,9.5c-0.2,1.3-4.5,3.5-7.5,7.8c-2.1,2.9-2.6,5.8-3.2,6.2c-0.1,0.3,0,0.2-0.2,0.5
			c-0.2,0.3-1.1,1.5-2.3,0.9l-1.6-1.1c-1.3-0.9-1.4-2.5-0.6-3.9c1.5-2.7,3.1-5.4,3.6-5.6c0.1-0.5,1.1-1.7,1.4-2.6
			c0.5-0.2,2.4-4.9,3.9-7.3c1.7-2.6-1.9-14.6-3.6-17.1c-1.4-2.9-0.3-4.3,3.1-5.5c1.3-0.5,3.2,0.1,4.3-0.1c1.2-0.2,1.9-0.5,3.1-1.3
			c0.5-0.3-0.6-2.3-0.1-2.7c1.4-1,2.6,0.8,4.7,0.7c2-0.1,3.9-0.8,5.4-2.5c0.7-0.8,2.1-1.9,1.9-3.2c-0.2-1.7,4.1-1.3,3.2-3.6
			c-0.4-1.2,0.9-3.2,0.5-3.7c-1.3-1.5-2.3-2.8-3.8-3c0,0-1.8,0.2-1.9,0.2c-4.1,0.9-4.8,3.1-6,3.8c-2,1.2-2.3-0.3-1.8-2.5
			c0.2-0.8,0-3-2.5-2.3c-1.7,0.5-2.9,2.7-4.5,3.6c-0.7,0.4-2.1,0.9-2.1,1.5c0,0.9-0.6,1.4-2.4,1.8c-3.1,0.8-5.2,0.4-7,0.9
			c-2.1,0.6-3.9,0.6-4.8,0.5c-0.2,0-2.2,0.4-2.4,0.8c-0.2,0.4-0.6,0.9-1.1,1c-1.1,0.3-2.8-0.1-3.3-0.1c-0.4,1.3,0.9,2,1.8,3
			c0.8,1-0.2,1.9-2.5,3.1c-0.9,0.3-0.2,0.9,0.5,1.2c2,0.6,3.6-0.4,7.8,3.9c0.5,5.5-5.6-2.6-4.9,4.3c0.3,2.6-3.2,5.2-5.1,6.5
			c-5.1,3.4-3.5,6.6-1.1,11.3c2.1,2.6,3.5,6.2,5.2,10c0.2,0.4,0.4,0.7,0.5,1.1c0.3,0.9-0.5,0.5-0.9,0.2c-1.1-0.7-1.8-1.3-2.4-2.3
			c-1-1.8-2.1-3.7-2.8-4.4c-3-2.9-4.6-6-5.1-10c-0.3-2.1,0-3.6,0.7-4c1.2-0.8,6-4,5.6-5c-0.2,0-1.2-4.4-0.6-7.2
			c0.3-1.3-1.3-0.7-1.5-0.4c-0.9,1.6-0.6,3.1-1.3,4c-0.8,1-2-0.1-1.6-0.7c-0.4-1.2-0.7-1.3-0.2-1.7c1-0.7,0.1-1.9-2.1-1.8
			c-0.7,0-0.5-1.6-0.4-2.8c0-0.5,0.7-2,1.4-2.3c1.3-0.5,2.3-1.7,4.8-2.4c0.1-0.8,1.3-1.2,1-2c-6.1-0.9-2.4,1.9-9.8,3.2
			c-0.2,0-6.6,6.2-2.9,8.2c2.1,1.2,2.1,3.4,0.8,5.4c-2,3-1.7,1.9-2-0.3c-0.3-1.6-0.7-3.4-1.2-3.9c-1.5-1.5-4.9-3.6-3.6-5.6
			C136.7,61.5,138.2,60.5,139.2,59.8L139.2,59.8z M227.6,104.2c3-7.5,2.3-2,4.3-4.8c0.1-0.2,0.1-5.1-0.1-5.3c-3,0.3-5.3,0.9-6.9,3.7
			c-0.6,1.1,1.6,3.2,0.4,6.5c-0.4,1.1-2.6,8-1.9,10c0.2,0.5,1.2,1.8,1.6,1.3c1.7-2.1,4.9-1.9,5.2-4.2c0.6-0.2,1.9-1.4,2.1-2.2
			c-0.2-0.2-4.9-2-5-2C227.3,106.4,227.3,105,227.6,104.2L227.6,104.2z M251.6,91.1c-1-0.8-1.8-0.3-2.1-1.1c-0.3-1-4.9-0.2-6.2-0.8
			c-1-0.4-2.3-1.2-2.8-0.4c-0.9,1.2,0.1,4.6-0.1,4.7c-0.5,0.4-0.8-0.4-1,0.1c-0.8,2.4-1.7,4.5-1.8,5.1c-0.4,1.6-2.1,2.6-2.8,4.8
			c0,0.1-0.1,1.5,0.1,1.5c3.2,0,4.8-2.9,7.7-5.7c2.2-2.1,3.8-3.1,9.1-6.7C252,92.6,252.4,91.8,251.6,91.1L251.6,91.1z M233.2,86.7
			c-0.1-0.1-0.1-0.1-0.3-0.1c-0.7,0.1-2.7,0.5-3.8,2.6c-0.5,0.9-1.9,0.9-1.8,2.9c1.3-0.1,4.1-1.2,5.7-2.5c0.6-0.4,0.8-0.3,0.6,0.4
			c-0.2,0.8-0.7,1.2-0.3,2.2c0.3,0.1,1.3,0,1.7-0.2c2.8-1.5,1.6,0.9,4.1-4.3c1-2-3.4-1.1-5.1-0.9C233.6,86.9,233.5,87,233.2,86.7
			L233.2,86.7z M337.1,64.4c-5.3-4.9-2.9-1.4-7.6-1.6C329.7,66.2,332.6,64.2,337.1,64.4L337.1,64.4z M281.8,41.8
			c-0.6-1.4-1.6-3.7-2.6-5.3c-0.4-0.7-0.8-1.4-0.9-2.2c-0.1-0.9-1.1-1.8-1.9-2.3c-0.6-0.4-1.4-0.2-1.7,0.4c-0.3,0.8-1,0.6-1.3,1.2
			c-0.2,0.4,0.1,1,0.5,1c0.9,0.2,2-1,2.7-0.5c0.3,0.2,0.4,0.8,0.1,1.2c-0.1,0.1-0.2,0.3-0.2,0.4c-0.1,0-0.1,0.1-0.2,0.1
			c-1.1,0.8-2.4,0.9-3.2,1c-0.6-0.6-1.9-1.5-2.7,1.4c-2.6,1.9-3.2,3.6-3.8,4.9c-1.1,2.2-3.8,4.5-4.4,4.7c-0.2,1.2-2.7,2.8-3,4.3
			c-0.6,0.2-1.6,1.6-1.1,2.2c1.5-0.3,3.2-2.6,4.9-3.8c0.9-0.6,1.7-0.7,3.1,0.2c1,0.6,3.2-0.7,4.9-1.4c0.6-0.3,0.4-0.8-0.2-1.4
			c-0.6-0.6-0.2-1.3,1.3-1.3c1-0.1,1.8,0.7,3,1.9c0.8,0.7,1.1,1.6,2.4,1.8c0.8,0.1,1.4,0.8,1,1.5c-0.2,0.3-0.1,1.5-2.4,1.9
			c-1.2,0.2-2.2,1.1-3.2,2c-0.8,0.7-1.2,2.1-0.2,1.3c0.7-0.5,2.9-1.3,3.8-1.4c0.6,0,0.6,0.4,0,1.3c-0.7,1,3.5,0,3.6,0.3
			c3.8-0.2,2.3-2.9,6.7-0.6c0.2,0.1,0.6,0.2,0.8,0.2c0.4,1.2,7.4,4.1,10.4,5.3c0.6,0.2,1.7,0,1-0.6c-0.2-0.2-2.3-3.4-2.5-3.5
			c-1.2-0.9-3.7-2.5-5.7-4.2c-1.6-1.4-2.7-3-3.6-4c-1.2-1.3-2.4-4.2-3.2-5.3C283.3,43.5,282,42.3,281.8,41.8L281.8,41.8z
			 M262.1,41.8c1.2-0.4,2.7-0.7,3.3-0.9c0.4-0.1,1.3-1.5,2.3-3.3c0.9-1.8,2-4.1,2.5-4.6c0.4-0.4,0.4-1.4-0.2-0.8
			c-1,1-2.3,3.1-2.6,3.3c-0.5,0.3-0.6-0.6-0.6-1.2c0.1-0.6-0.5-0.7-0.7-0.3c-0.5,0.8-1,1.5-1.3,2.4
			C264.4,37.4,262.7,40.7,262.1,41.8L262.1,41.8z M253.1,60.4c3.5-1,4.6-3.3,5.5-4.4c0.5-0.6-1.2-1-1.8-0.9c-1.6,0.4-2.8,2.4-4.5,3
			c-0.1,0.5-0.8,0.6-1.2,1C250.1,60.1,250.2,61.2,253.1,60.4L253.1,60.4z M247.6,73.2c0.7-4-3.2-6.4-3.7-1c0.5,1.8,0.1,3.3-3,3.7
			c-1.1,0.2-1.9,1.7-3.5,2.7c-1.4,0.4-1.8,1-1.7,2.4c1.6,1.2,3.9-2,8.6-3.3C249.1,76.4,247.6,73.3,247.6,73.2L247.6,73.2z M233,33.2
			c-0.8-1.8-3-1.5-3-0.2c-0.3,1.6-1.1,2.9-2.2,4.4c-0.3,0.5-1.4,1.9-2.2,3.1c-1.8,1.2-3.4,2.7-3.5,3.5c-0.1,2.4-0.6,3.7-1.7,5.8
			c-0.9,1.8-0.1,2.2,0.6,1.7c0.7-0.5,1.8-0.9,3-1.1c0.2,0,0.8,0.3,0.3,0.9c-0.4,0.4,1.1,0.7,1.3,0.2c1.2-2,3.6-1.3,4.8-1.7
			c0.6,0,1.2,0,1.9-0.1c1,0.5,2.2,1,2.2,1.2c3.6-0.2,2.2-0.1,5-0.9c2-0.7,3.4-1.6,5-1.7c0-0.5-1.1-0.8-1.1-1.3
			c-3.1,0.1-3.3-7.7-8.9-9.5C234.1,37.3,233.1,33.5,233,33.2L233,33.2z M219,50.3c0,0-0.9-3.5-0.9-3.6c-0.4-0.1-2-0.3-2.5-0.1
			c-0.7,4.4-1.7-0.6-4.3,6.1l-0.4,0.6c-0.6,1.6-0.9,5.2-3.6,5.9c-1.2,4.2,11.4-0.6,11.8-3C219.2,55.9,219.1,50.8,219,50.3L219,50.3z
			 M219.8,78.1c0.3-0.4,4.1-3.4-0.8-2.5c-0.8,0.1-2.3,2.9-5.7,0.4c-1.4-1.1-8.2,3.3-8.1,5.5c5.3-0.3,2.2-1.9,10.1-1.4
			c1.7,0.1,1.3,0.5,3.4,0.4c0-0.6,0-0.5,0-0.6c0.7,0,0.2-0.2,1.1-0.4C219.8,79.2,219.7,78.3,219.8,78.1L219.8,78.1z M275,132.4
			c1-4.1,3.1-9.4,2-13.1c0.4-0.4,0.6-1,0.6-1.7c0-0.1,0-0.2,0-0.3c3.8,0,14.3-3.2,14.4,2.5c0.1,4.9,0.2,5.3-2.2,6.4l-13.1,8.1
			C275.4,135.2,274.5,134.5,275,132.4L275,132.4z M303,117.9c-0.2-0.3-0.4-0.5-0.7-0.8l-0.5-0.6c-1-1.1-8.5-0.5-7.5-2
			c3-4.5,0.5-6.8,2.9-9.8c1.6-2,4.5-4.8,6.8-7c0.3-0.2,1.6-0.2,1.4,1.1c-0.6,4-4.7,4.8-4.5,8.5c0.8,0-0.2,3.4-0.2,4
			c0,2.5,1.5,1.6,2.6-0.4c1.1-2,3-3.6,3.5-7.1c0.6-4.1,2.5-4.9,3.5-6.4c0.2-0.3,1.4-4,2.7-5.9c2-3.1-1-6.3-2.4-10.2
			c-1.4-3.8,0.5-6.8,2.2-3.5c0.2,0.4,1.7,1.8,1.8,2.4c2.8,0.8,8.4,0,9.9,3.2c0.1,0.5,6.2,1.4,9.9,1.7c2.3,0.2,3.1,2.3,3,4.1
			c0,0.3,0,0.6,0,0.9c-2.3,0.2-6,1.3-6.6,3.7l-0.3,0.5c-1.7,2.1-7.6-1.5-8.6-4.7c-0.3-1-2.1-3.3-2.3-1.8c-0.3,2.3-1.1,5.6-1.7,6.9
			c-0.4,0.9-0.6,3-1.8,3.4c-0.3,4.3-2.2-1.1-3.3,6.5c-1.7,11.3-3.4,5.8-4.3,8.7c-0.1,0.4,0,0.7,0,1.1c0.2,0.8,0.3,2.1-0.6,2.7
			l-2.5,1.1C304.3,118.9,303.9,119.2,303,117.9L303,117.9z M350.3,91.3c-0.9,0.6-1.8,0.2-2.5-0.2c-0.8-0.4-1.5-1-1.6-1.9
			c-0.3-2.2-4.9-2.8-5.6-4c-1.7-3.1-7.7-2.5-10.9-4.9c-0.6-0.5-0.4-1.5,1.1-1.7c2.5-0.3,5.7-1.3,8.5-0.9c3.2,0.5,4.6,1.5,6.3,1.4
			c0.8,0,2.3-0.1,3.6,1.3c1.1,1.2,1.3,2.9-0.9,1.8c-3.2-1.5-4.3,0.6-5.4,1c-1.1,0.4,0.2,1.8,0.5,1.9c0.7,0.6,1.8-1.6,3.8,2.3
			c0.2,0.4,2.1-1.6,2.7-0.8c0.5,0.7,1.3,1.4,1.6,2.3C351.7,90.1,352.1,90.2,350.3,91.3L350.3,91.3z"/>
		<path id="mountain_shade_1_" fill-rule="evenodd" clip-rule="evenodd" fill="#859A8F" d="M138.3,60.4c0,0.1,0,0.1-0.1,0.2
			c-0.9,2,0.5,2.9,2.5,3.6c-0.4,1.2-0.3,2.4,0.9,3.1c2.1,1.2,2.1,3.4,0.8,5.4c-2,3-1.7,1.9-2-0.3c-0.3-1.6-0.7-3.4-1.2-3.9
			c-1.5-1.5-4.9-3.6-3.6-5.6C136.4,61.9,137.5,61.1,138.3,60.4L138.3,60.4z M154.1,68.5c2.3,1.7,7.1-2.7,5.6-6.7
			c1.3,0.2,2.9,0.9,5.5,3.5c0.5,5.5-5.6-2.6-4.9,4.3c0.3,2.6-3.2,5.2-5.1,6.5c-5.1,3.4-3.5,6.6-1.1,11.3c2.1,2.6,3.5,6.2,5.2,10
			c0.2,0.4,0.4,0.7,0.5,1.1c0.3,0.9-0.5,0.5-0.9,0.2c-1.1-0.7-1.8-1.3-2.4-2.3c-1-1.8-2.1-3.7-2.8-4.4c-3-2.9-4.6-6-5.1-10
			c-0.3-2.1,0-3.6,0.7-4c1.2-0.8,6-4,5.6-5C154.7,73,154.1,70.8,154.1,68.5L154.1,68.5z M185.3,62.9c-0.9,2.5-3,3.9-4.9,3.7
			c-1.5-0.2-3.2,0.3-3.7,0.7c-0.9,0.9-0.3,2.3,0.1,3.3c1.3,3,2.9,2.1,5.7,3.8c1.3,0.8,2.5-0.1,3.9-0.3c-0.6,2.2,1.4,6.5,1.6,9.9
			c-0.9,0.1-1.6-0.8-1.8-1.5c-0.4-0.1-1.7,0-2.2,0.1c0.2,4.2,1.9,4.1,1.1,9.5c-0.2,1.3-4.5,3.5-7.5,7.8c-2.1,2.9-2.6,5.8-3.2,6.2
			c-0.1,0.3,0,0.2-0.2,0.5c-0.2,0.3-1.1,1.5-2.3,0.9l-1.2-0.9l-0.7-0.5c-1-0.9-1-2.4-0.3-3.7c1.5-2.7,3.1-5.4,3.6-5.6
			c0.1-0.5,1.1-1.7,1.4-2.6c0.5-0.2,2.4-4.9,3.9-7.3c1.7-2.6-1.9-14.6-3.6-17.1c-1.4-2.9-0.3-4.3,3.1-5.5c1.3-0.5,3.2,0.1,4.3-0.1
			C183.4,64,184.1,63.7,185.3,62.9C185.3,63,185.3,62.9,185.3,62.9L185.3,62.9z M200.6,76.5L200.6,76.5c2.3,1.4,2.3,3.1,2.4,4.6
			c0.1,1-0.1,1.8,1.8,2.1c5.6,1.5,8.7,1.8,14.5,1.5c3.2-0.3,11.1-1.2,16-1.4c3.5-0.1,6-1,10.7,0c1.8,0.4,3.4,0.3,5-0.7
			c-0.7,0.7-1.5,1.5-2.7,2.7c-0.5,0.5-0.8,0.3-0.7,1.1c1.2,0.3-0.7-0.1,0.9,0.2c4.3,1.1,10.4-6.9,12.4-8.4c0.6-0.4,1.3-0.6,1.9-0.8
			c0.3,0.3,0.5,0.6,0.7,0.9c0.4,0.7,0.4,1.8-1.1,3.5c-0.8,0.9,0.3,1.8,1.1,2.3c-1.3,2.6,2.3,2.3-5.4,4.4l-2,2.3
			c-1.4,1.6-2.6,4.4-0.7,3.1c2.6-1.8,3.8-2,5.6-1.6c0.6,0.1,0.2,1.1-0.1,1.4c-1,1-5.8,1.4-7.2,3.6c-0.6,0.9-3.3,0.7-4.4,1.5
			c-1.2,0.8-2,2-2.9,3.2c-0.8,0.9,8,1.8,7.7,4.3c-0.2,1.6-0.6,0.9,0.9,2.2c1.6,1.5-1.9,1.4-1.8,2.6c0.1,1.1-1.8,2-2,2.9
			c-0.4,1.5-2.4,1.7-0.7,3.4c1.5,1.5,4.4-0.8,6.5-0.4c0.6,0.1,0.6,1.6,0.1,1.7c-6.5,0.9-5.6,0.2-7.7,3c-1.6,2.2,2.4-0.2,3,3.2
			c0.9,5.1-0.1,0.6-2.6,5.5c-1.8,1.7,2,0-3,3.3l-0.4,0.4c-1.4,1.4-2.5,1.2-3.4-1.4c-1.3-3.9-3.1-4.9-3.2-11.4c0-1.3-1.2-2.2-1.3-2.7
			l-0.6-0.3c-0.2-1.2-0.3,0-0.4-1.7c-0.8,0-3.2,2.8-4,5c-0.9,2.3-0.1,4.1-0.4,5.9c0.4,3.3-3.2,1.5,1.1,5.7c3.4,3.4,2.6,0.9,7.7,3.5
			c1.5,0.8,4.3,3.5,4.8,3.8c0.1,0.1,0.2,1.5,0.1,1.5c-6,2.6-8.9-2.7-12-2.7c-0.8,0-1.2-0.8-1.9-1.4c-0.8-0.7-1.1-0.3-1,0.8
			c0.5,4.2,2,0.2,1.1,6c-0.1,0.4-0.1,0.9-0.2,1.4c-0.2,1-0.8,2.4-2.6,1.3l-0.4-0.3c-2.1-1.6-4-3.3-5.4-6.2c-0.2-1.2-1.9-4.5-1.4-4.7
			c0.1-0.7-0.2-0.9,0-2l0.3-1.2c0.2-0.8,2.3-2.7,3.7-5c1.3-2.2,3.2-2,2.8-5c-0.3-2,2-5.4,2.5-6.6c1-2.5-1.8-1.6-3.2,0.3
			c-0.7,0.9-2,2.7-3.4,2.8c-0.9,0-1.4-0.7-1.5-1c-0.5-2.1-2.4-1.8-2.6-0.6c-0.5,2.6-0.6,6.8-0.4,7.4c0.3,1.8,0,4.3-2.7,8.4
			c-0.1,0.2-0.2,0.4-0.2,0.6c-1.8,3.2-2.9,2.2-5.3,0.6c-2.7-1.8-5.6-3.7-8.9-5.8c-0.9-0.6-1.9-1.3-2.8-1.9c-2.7-2.7,0.6-5.9-3.3-7.6
			c-4.4-1.9,0.4-4-0.4-6.9c-1.2-4.4,1.3-3.8,0.5-5.9c-2.2-0.3-2.8-2.6-2.5-4.7c1.1-7.7-1-7.3-1.9-10.6c-0.4-0.1-0.8-4.7-1.2-4.8
			c-2.8-0.4-1.7-6-0.1-7.2c3.8-4.4,2.8-1.7,6.9-2.8C200.2,76.8,200.5,76.6,200.6,76.5L200.6,76.5z M277.6,74.3
			c0.3-0.3,0.5-0.5,0.7-0.6c3.3-2.1,6.4-5.6,10.4-5.7c1.9,0-0.1,4.3,1.4,5.4c2,1.5,5,1.2,7.6,1.1c1.8-0.1,3.5-0.4,5.3-0.8
			c0.3,0.2,0.5,0.3,0.8,0.5c4.2,2.8,2.8,6.3-3.6,8c-1.5,0.4-7.9,2.6-5.3-2.2c1-1,0.7-0.8,0.6-2.3c-3,0.2-2,4-2.5,6
			c-5.6,2.3-0.8,0.4-0.5,5.4c-4.9,0.3-2.4,2.5-8.1,5.9c-1.1,0.6-1.9,2.4-2.4,3c0.1,0.1-5.4,3.1-5,3.1c0.7,1.6-0.9,1.9-1.2,2.9
			c0.6,0.6,0.1,1-0.5,1.1c-0.1,0.3-0.1,0.8,0.1,1c2.1,0.3,8.4,6.6,2,6.7c0,0-1.3,0.2-2.6,0.3c-4.3,0.5-1.3,3.2-4.4,6.3
			c-2.8,2.8-6.6,5.7-7.9,6.4c-2.1,1.1-5.2,0.6-5.6,0c-0.7-1.3,4.5-4.7,5.5-5.7c2.1-2.1,1.6-4,3.4-6.9c0.3-0.5-3.1-7.6-0.9-9
			c1.6-1.1,1.2-5.8,1.3-7.3c5.4-2.3,2.1-2.6,4.4-4.3c0.9-3.4,0.7-5.3,5-6.2c1.2-0.3,5.2-3.4,6.5-5.1c0.6-0.8-0.1-1.7-0.8-1.6
			c-3.5,0.7-3.8,0.3-4.8-0.6c-0.3-0.3-0.2-0.8-0.1-1.5C276.6,76.5,277.3,75,277.6,74.3L277.6,74.3z M374,68.3c1-0.3,3.7-1.6,2.3-3.8
			c0.3,0.1,1.8,0.7,2.5,1.6c0.5,0.6,1.4,1.3,2.6,1.6c1.3,0.3,0.2,1.4-0.2,1.9c-0.5,0.7-1.1,1.4-1.3,1.6c-1.4-2.1-4.6-2.5-5,2.7
			c-3.5,1-2.2,0.9-4.6,1c-1.5-0.2-2.4,1-1.3,1.3l0.1,0h0h0h0l0.1,0h0h0l0,0l0,0h0l0,0l0,0l0,0h0l0,0h0h0l0,0h0l0,0l0,0h0l0,0l0,0
			l0,0l0,0l0,0l0,0l0,0h0l0,0l0,0l0,0h0l0,0l0,0l0,0l0,0l0,0l0,0l0,0l0,0l0,0l0,0l0,0l0,0l0,0l0,0l0,0l0,0l0,0l0,0l0,0l0,0l0,0l0,0
			l0,0l0,0h0l0,0l0,0l0,0l0,0l0,0l0,0l0,0h0l0,0l0,0l0,0l0,0l0,0l0,0l0,0v0c0.4,0.4,0.6,1,0.9,1.3l0,0l0,0l0,0l0,0h0l0,0l0,0
			c0.1,0.1,0.1,0.1,0.2,0.1h0v0h0l0,0h0h0l0,0l0,0h0l0,0l0,0c0,0,0.1,0,0.1,0c0.1,0,0.2,0,0.2,0l0,0c0.1,0,0.1,0,0.2-0.1
			c0,0,0.1,0,0.1,0h0l0,0l0,0h0h0l0,0h0h0c0.3,0,0.7,0.2,0.5,0.5l0,0c-0.1,0.1-0.1,0.2-0.3,0.4l0,0c0,0-0.1,0.1-0.1,0.1
			c-0.6,0.6-2.2,2-4.9,3.7h0c-1.1,0.6-2.3,1.3-3.6,2l-0.1,0l-0.1,0l-0.1,0h0l-0.1,0l-0.1,0c-0.6,0.3-1.2,0.6-1.9,0.9
			c-0.6,0.3-1.3,0.6-1.9,0.9c-0.2-0.1-0.4-0.2-0.5-0.5c-0.4-0.9,0.1-1.6,0.6-1.9c1.3-0.7-1.2-1.5-2.8-2c-0.2-0.9-1.8,0-2.3-1.5
			c-0.3-0.9-0.2-2.1,2.2-1.1c1-0.7,0.5,1.1,5-1.5c1.8-0.8,4.1-2.9,4.1-2.9c1.7-0.9,3.8-3.5,8.1-5.1C374.3,69.9,374.4,69.2,374,68.3
			L374,68.3z M227.6,104.2c3-7.5,2.3-2,4.3-4.8c0.1-0.2,0.1-5.1-0.1-5.3c-3,0.3-5.3,0.9-6.9,3.7c-0.6,1.1,1.6,3.2,0.4,6.5
			c-0.4,1.1-2.6,8-1.9,10c0.2,0.5,1.2,1.8,1.6,1.3c1.7-2.1,4.9-1.9,5.2-4.2c0.6-0.2,1.9-1.4,2.1-2.2c-0.2-0.2-4.9-2-5-2
			C227.3,106.4,227.3,105,227.6,104.2L227.6,104.2z M251.6,91.1c-1-0.8-1.8-0.3-2.1-1.1c-0.3-1-4.9-0.2-6.2-0.8
			c-1-0.4-2.3-1.2-2.8-0.4c-0.9,1.2,0.1,4.6-0.1,4.7c-0.5,0.4-0.8-0.4-1,0.1c-0.8,2.4-1.7,4.5-1.8,5.1c-0.4,1.6-2.1,2.6-2.8,4.8
			c0,0.1-0.1,1.5,0.1,1.5c3.2,0,4.8-2.9,7.7-5.7c2.2-2.1,3.8-3.1,9.1-6.7C252,92.6,252.4,91.8,251.6,91.1L251.6,91.1z M233.2,86.7
			c-0.1-0.1-0.1-0.1-0.3-0.1c-0.7,0.1-2.7,0.5-3.8,2.6c-0.5,0.9-1.9,0.9-1.8,2.9c1.3-0.1,4.1-1.2,5.7-2.5c0.6-0.4,0.8-0.3,0.6,0.4
			c-0.2,0.8-0.7,1.2-0.3,2.2c0.3,0.1,1.3,0,1.7-0.2c2.8-1.5,1.6,0.9,4.1-4.3c1-2-3.4-1.1-5.1-0.9C233.6,86.9,233.5,87,233.2,86.7
			L233.2,86.7z M275,132.4c1-4.1,3.1-9.4,2-13.1c0.4-0.4,0.6-1,0.6-1.7c0-0.1,0-0.2,0-0.3c3.8,0,14.3-3.2,14.4,2.5
			c0.1,4.9,0.2,5.3-2.2,6.4l-13.1,8.1C275.4,135.2,274.5,134.5,275,132.4L275,132.4z M303,117.9c-0.2-0.3-0.4-0.5-0.7-0.8l-0.5-0.6
			c-1-1.1-8.5-0.5-7.5-2c3-4.5,0.5-6.8,2.9-9.8c1.6-2,4.5-4.8,6.8-7c0.3-0.2,1.6-0.2,1.4,1.1c-0.6,4-4.7,4.8-4.5,8.5
			c0.8,0-0.2,3.4-0.2,4c0,2.5,1.5,1.6,2.6-0.4c1.1-2,3-3.6,3.5-7.1c0.6-4.1,2.5-4.9,3.5-6.4c0.2-0.3,1.4-4,2.7-5.9
			c2-3.1-1-6.3-2.4-10.2c-1.4-3.8,0.5-6.8,2.2-3.5c0.2,0.4,1.7,1.8,1.8,2.4c2.8,0.8,8.4,0,9.9,3.2c0.1,0.5,6.2,1.4,9.9,1.7
			c2.3,0.2,3.1,2.3,3,4.1c0,0.3,0,0.6,0,0.9c-2.3,0.2-6,1.3-6.6,3.7l-0.3,0.5c-1.7,2.1-7.6-1.5-8.6-4.7c-0.3-1-2.1-3.3-2.3-1.8
			c-0.3,2.3-1.1,5.6-1.7,6.9c-0.4,0.9-0.6,3-1.8,3.4c-0.3,4.3-2.2-1.1-3.3,6.5c-1.7,11.3-3.4,5.8-4.3,8.7c-0.1,0.4,0,0.7,0,1.1
			c0.2,0.8,0.3,2.1-0.6,2.7l-2.5,1.1C304.3,118.9,303.9,119.2,303,117.9L303,117.9z M350.3,91.3c-0.9,0.6-1.8,0.2-2.5-0.2
			c-0.8-0.4-1.5-1-1.6-1.9c-0.3-2.2-4.9-2.8-5.6-4c-1.7-3.1-7.7-2.5-10.9-4.9c-0.6-0.5-0.4-1.5,1.1-1.7c2.5-0.3,5.7-1.3,8.5-0.9
			c3.2,0.5,4.6,1.5,6.3,1.4c0.8,0,2.3-0.1,3.6,1.3c1.1,1.2,1.3,2.9-0.9,1.8c-3.2-1.5-4.3,0.6-5.4,1c-1.1,0.4,0.2,1.8,0.5,1.9
			c0.7,0.6,1.8-1.6,3.8,2.3c0.2,0.4,2.1-1.6,2.7-0.8c0.5,0.7,1.3,1.4,1.6,2.3C351.7,90.1,352.1,90.2,350.3,91.3L350.3,91.3z"/>
		<path id="maple_leaf_1_" fill-rule="evenodd" clip-rule="evenodd" fill="#B89B65" d="M249.4,278.5c0-0.3,0.2-0.4,0.5-0.3
			c0.2,0,0.5,0,0.5,0.3v0c0,0,0,0,0,0l2.8,5.3c0.2,0.5,0.5,0.5,1.1,0.2l2.5-1.3c0.3-0.2,0.5-0.1,0.5,0.3l-2,9.5
			c-0.1,0.6,0.5,1,1,0.5l3.9-4.5c0.1-0.1,0.3-0.1,0.4,0l1.3,2.5c0,0.1,0.5,0.2,0.8,0.1l4-1.2c0.4-0.2,0.5,0.1,0.5,0.4l-1.3,5.4
			c-0.1,0.3,0,0.6,0.3,0.7l1.6,0.6c0.2,0.1,0.2,0.5,0.1,0.6l-8.6,7.2c-0.3,0.3-0.3,0.8-0.1,1.2l0.9,2.1c0.1,0.3,0,0.5-0.4,0.4
			l-8-1.4c-0.4-0.1-0.7,0.2-0.7,0.6l0.1,8.6H249l0.1-8.6c0-0.4-0.3-0.6-0.7-0.6l-8,1.4c-0.3,0.1-0.5-0.1-0.3-0.4l0.8-2.1
			c0.2-0.5,0.2-1-0.1-1.2l-8.6-7.2c-0.1-0.1-0.2-0.5,0.1-0.6l1.6-0.6c0.3-0.1,0.4-0.4,0.3-0.7l-1.3-5.4c-0.1-0.3,0.1-0.7,0.5-0.4
			l4.1,1.2c0.2,0.1,0.7-0.1,0.8-0.1l1.3-2.5c0.1-0.2,0.3-0.2,0.4,0l3.9,4.5c0.5,0.6,1.1,0.2,1-0.5l-2-9.5c-0.1-0.4,0.2-0.4,0.5-0.3
			l2.5,1.3c0.6,0.3,0.9,0.3,1.1-0.2L249.4,278.5C249.4,278.5,249.4,278.5,249.4,278.5L249.4,278.5L249.4,278.5z"/>
		<path id="COAST_MTN_black_1_" display="none" fill="#140F10" d="M284.8,118.4c1.2,0.9,1.7,2.3,1.7,3.7v21.1c0,0.9-0.2,1.7-0.6,2.4
			v3.8c0,1.3-0.5,2.6-1.4,3.5c-1,0.9-2.2,1.5-3.5,1.5h-9.5v54.7c0,0.6-0.1,1.3-0.4,1.8v3.3c0,1.3-0.5,2.5-1.4,3.4
			c-0.9,0.9-2.2,1.4-3.5,1.4H246c-1.3,0-2.5-0.5-3.4-1.4c-1-0.9-1.6-2.2-1.6-3.6v-3.9c-0.1-0.4-0.2-0.8-0.2-1.2v-54.6H231
			c-0.6,0-1.2-0.1-1.7-0.3c-0.1,0.9-0.5,1.8-1.1,2.6c-0.9,1.1-2.2,1.6-3.5,1.7l-8.3,0.2c1.8,1.5,3.5,3.1,5,4.8
			c2.2,2.6,4,5.5,5.4,8.7c1.3,3.2,2.1,6.5,2.1,10c0,0.5,0,0.9,0,1.4c0.2,1.4,0.4,2.8,0.4,4.2c0,4.1-0.6,8.2-1.9,12.2
			c-1.2,3.7-3,7.1-5.5,10.1c-2.5,3-5.5,5.3-9,7c-3.7,1.8-7.7,2.5-11.8,2.5c-4.5,0-9-0.7-13.1-2.6c-3.7-1.7-6.9-4.3-9.4-7.5
			c-2-2.6-3.5-5.5-4.5-8.5l2.3,12c0.3,1.4,0.1,2.8-0.6,4c-0.9,1.6-2.4,2.5-4.3,2.5l-19.1,0.3c-1.1,0-2-0.3-2.9-0.9
			c-1.1-0.7-1.8-1.8-2-3.1l-0.3-2.4c-0.8-0.7-1.3-1.7-1.4-2.7l-1.4-10.6l-1.4,0l-2,15.7c-0.2,1.3-0.9,2.5-1.9,3.2
			c-0.8,0.6-1.8,1-2.9,1l-19.5,0.3c-1.6,0-3-0.7-4-1.9c-0.8-1.1-1-2.4-0.8-3.7c-0.6-0.3-1.1-0.8-1.5-1.3c-0.2,0.2-0.3,0.3-0.5,0.5
			c-2.6,2.6-5.6,4.6-8.9,6c-3.3,1.4-6.9,2.1-10.5,2.2c-3.6,0.1-7.1-0.4-10.5-1.5c-3.4-1.2-6.4-3-9-5.4c-2.4-2.2-4.1-4.9-5.5-7.8
			c-0.8-1-1.4-2-2.1-3.1c-1.2,3.6-2.9,7.1-5.2,10.1c-2.6,3.4-5.8,6.1-9.6,7.9c-3.7,1.7-7.6,2.6-11.7,2.8c-3.5,0.2-7-0.2-10.2-1.4
			c-3.1-1.1-5.8-2.7-8.2-4.9c-2-1.8-3.6-3.8-5-6c-2-2-3.6-4.2-5-6.7c-1.6-3-2.8-6.2-3.6-9.5c-0.8-3.5-1.2-7.1-1.2-10.7v-23.9
			c0-6.8,0.9-13.8,3.5-20.1c2.2-5.4,5.5-10.2,10.3-13.7c4.7-3.5,10.2-5.2,16.1-5.5c4.5-0.2,9,0.4,13.2,2.3c3.8,1.7,7,4.3,9.6,7.6
			c1.9,2.4,3.3,5,4.5,7.8c0.2-0.8,0.5-1.5,0.7-2.2c1.4-3.7,3.4-7.1,6.2-10c2.6-2.7,5.7-4.7,9.1-6.2c3.4-1.4,7-2.2,10.7-2.3
			c3.7-0.1,7.3,0.4,10.7,1.6c3.5,1.2,6.5,3.1,9.2,5.6c2.8,2.7,4.9,6,6.3,9.7c0.5,1.2,0.8,2.5,1.2,3.7c0.4,0.8,0.8,1.7,1.2,2.6
			c1.6,4.2,2.2,8.7,2.2,13.1v6.3l7.4-39.8c0.2-0.9,0.6-1.8,1.2-2.5c0.9-1.1,2.1-1.7,3.5-1.7l23.4-0.4c1.4,0,2.7,0.5,3.6,1.5
			c0.7,0.8,1.1,1.7,1.3,2.7l0.9,4.9c0.3,0.5,0.5,1.1,0.6,1.7l10.1,52.5c0-0.8-0.1-1.6-0.1-2.4c0-1.2,0.5-2.3,1.4-3.2
			c0.9-0.9,2.1-1.3,3.4-1.4l6.2-0.2c-1-1.2-2-2.4-2.9-3.7c-1.9-2.7-3.4-5.7-4.4-8.9c-0.6-1.9-1-3.8-1.2-5.8c0-0.1-0.1-0.1-0.1-0.2
			c-1-3-1.5-6.2-1.5-9.3c0-2.8,0.4-5.6,1.2-8.3c0.8-2.8,2-5.4,3.6-7.8c1.6-2.5,3.6-4.7,5.8-6.6c2.4-2,5.1-3.5,8-4.6
			c3.2-1.2,6.6-1.7,10-1.7c4.2,0,8.4,0.8,12.2,2.5c3.6,1.6,6.7,3.8,9.3,6.7c1.8,2,3.4,4.3,4.6,6.7v-11.1c0-1.1,0.4-2.2,1.1-3.1
			c0.8-1,2.1-1.5,3.4-1.5h51.4C282.8,117.3,283.9,117.7,284.8,118.4z M495.1,124.6c-0.9-1.1-2.2-1.7-3.6-1.8l-18-0.6
			c-1.4,0-2.8,0.5-3.7,1.6c-0.8,0.9-1.3,2.1-1.3,3.3v1.8c-0.4,0.1-0.8,0.2-1.2,0.4l-0.9-3.5c-0.3-1.1-0.8-2.1-1.7-2.8
			c-0.9-0.8-2-1.2-3.2-1.2l-20.3-0.7c-1.2,0-2.4,0.4-3.3,1.3c-0.2-0.3-0.4-0.5-0.7-0.7c-0.9-0.8-2-1.1-3.2-1.2l-51.4-1.8
			c-1.3,0-2.5,0.4-3.4,1.4c-0.9-0.9-2-1.3-3.3-1.3l-33.4-0.6c-1.3,0-2.5,0.5-3.4,1.4c-0.7,0.8-1.2,1.8-1.3,2.8l-0.4,3l-0.5-3.3
			c-0.2-1.1-0.6-2.1-1.4-2.8c-0.8-0.8-1.9-1.3-3.1-1.3l-32.2-0.6c-1.4,0-2.7,0.6-3.5,1.8c-0.6,0.8-0.9,1.8-0.9,2.8v4
			c-0.5,0.8-0.8,1.6-0.8,2.6v86.3c0,1.1,0.4,2.1,1.1,2.9c0.8,0.9,1.9,1.5,3.1,1.5l20.1,0.4c1.3,0,2.6-0.5,3.5-1.5
			c0.7-0.9,1.1-2,1.1-3.1v-1.8c0.1-0.1,0.1-0.1,0.2-0.2l0.4,2.6c0.2,1.1,0.7,2,1.4,2.8c0.8,0.8,1.9,1.3,3.1,1.3l13.3,0.2
			c0.9,0,1.8-0.2,2.6-0.7c1.1-0.7,1.9-1.7,2.1-3l0.5-2.7c0.1-0.1,0.2-0.2,0.2-0.3v2.2c0,1.3,0.5,2.5,1.4,3.4c0.9,0.8,2,1.2,3.1,1.3
			l21.4,0.4c1.1,0,2.2-0.4,3.1-1.1c1-0.8,1.6-2.1,1.6-3.4v-1.2c0.2-0.1,0.4-0.3,0.6-0.4c1-0.9,1.6-2.1,1.6-3.5v-55.2c0,0,0,0,0,0
			l10.1,0.4V216c0,1.4,0.5,2.6,1.5,3.6c0.9,0.9,2.1,1.4,3.3,1.5l20.1,0.7c1.3,0.1,2.6-0.4,3.6-1.3c1-0.9,1.5-2.1,1.5-3.5v-0.6
			c0.5-0.2,1-0.5,1.4-0.9c1-0.9,1.5-2.2,1.5-3.5v-54.6l6.8,0.2c0.9,0,1.8-0.2,2.6-0.6v60.9c0,1.1,0.3,2.1,0.9,3
			c0.8,1.2,2.1,1.9,3.5,2l17.9,0.6c1.3,0,2.6-0.4,3.5-1.4c0.9-0.9,1.4-2,1.5-3.3l0.3,1.2c0.3,1.1,0.8,2,1.7,2.7
			c0.8,0.7,1.7,1.1,2.8,1.1l22.1,0.8c1.4,0.1,2.8-0.5,3.7-1.7c0.7-0.9,1-2,1-3.1v-0.2c1.2-0.1,2.3-0.7,3.1-1.7
			c0.7-0.9,1.1-2,1.1-3.2V128C496.3,126.7,495.9,125.6,495.1,124.6z"/>
		<path id="COAST_MTN_black_2_" d="M284.8,118.4c1.2,0.9,1.7,2.3,1.7,3.7v21.1c0,0.9-0.7,7.1-0.8,7.5c-0.2,0.9-0.6,1.6-1.3,2.3
			c-1,0.9-2.2,1.5-3.5,1.5h-9.5v54.7c0,0.6-0.4,5.1-0.4,5.1c-0.2,1.4-0.5,2.5-1.4,3.4c-0.9,0.9-2.2,1.4-3.5,1.4H246
			c-1.3,0-2.5-0.5-3.4-1.4c-1-0.9-1.6-2.2-1.6-3.6c0,0-0.1-2.3-0.2-5.1v-54.6H231c-0.6,0-1.2-0.1-1.7-0.3c-0.1,0.9-0.5,1.8-1.1,2.6
			c-0.9,1.1-2.2,1.6-3.5,1.7l-8.3,0.2c1.8,1.5,3.5,3.1,5,4.8c2.2,2.6,3.9,5.6,5.4,8.7c2.7,5.5,2.6,13.4,2.4,15.6
			c-0.2,4.1-0.6,8.2-1.9,12.2c-1.2,3.7-3,7.1-5.5,10.1c-2.5,3-5.5,5.3-9,7c-3.7,1.8-7.7,2.5-11.8,2.5c-4.5,0-9-0.7-13.1-2.6
			c-3.7-1.7-6.9-4.3-9.4-7.5c-2-2.6-3.5-5.5-4.5-8.5l2.3,12c0.3,1.4,0.1,2.8-0.6,4c-0.9,1.6-2.4,2.5-4.3,2.5l-19.1,0.3
			c-1.1,0-2.1-0.2-2.9-0.9c-1.4-1.2-3.5-6-3.8-8.7l-1.4-10.1l-1.4,0l-2,15.7c-0.2,1.3-0.9,2.5-1.9,3.2c-0.8,0.6-1.8,1-2.9,1
			l-19.5,0.3c-1.6,0-3-0.7-4-1.9c-0.8-1.1-1.9-4.5-2.3-5c-0.2,0.2-0.3,0.3-0.5,0.5c-2.6,2.6-5.6,4.6-8.9,6
			c-3.3,1.4-6.9,2.1-10.5,2.2c-3.6,0.1-7.1-0.4-10.5-1.5c-3.4-1.2-6.4-3-9-5.4c-2.4-2.2-4.1-4.9-5.5-7.8c-0.8-1-1.4-2-2.1-3.1
			c-1.2,3.6-2.9,7.1-5.2,10.1c-2.6,3.4-5.8,6.1-9.6,7.9c-3.7,1.7-7.6,2.6-11.7,2.8c-3.5,0.2-7-0.2-10.2-1.4
			c-3.1-1.1-5.8-2.7-8.2-4.9c-2-1.8-8.6-10.3-10-12.7c-1.6-3-2.8-6.2-3.6-9.5c-0.8-3.5-1.2-7.1-1.2-10.7v-23.9
			c0-6.8,0.9-13.8,3.5-20.1c2.2-5.4,5.5-10.2,10.3-13.7c4.7-3.5,10.2-5.2,16.1-5.5c4.5-0.2,9,0.4,13.2,2.3c3.8,1.7,7,4.3,9.6,7.6
			c1.9,2.4,3.3,5,4.5,7.8c0.2-0.8,0.5-1.5,0.7-2.2c1.4-3.7,3.4-7.1,6.2-10c2.6-2.7,5.7-4.7,9.1-6.2c3.4-1.4,7-2.2,10.7-2.3
			c3.7-0.1,7.3,0.4,10.7,1.6c3.5,1.2,6.5,3.1,9.2,5.6c2.8,2.7,4.9,6,6.3,9.7c0.5,1.2,2,5.5,2.3,6.4c1.6,4.2,2.2,8.7,2.2,13.1v6.3
			l7.4-39.8c0.2-0.9,0.6-1.8,1.2-2.5c0.9-1.1,2.1-1.7,3.5-1.7l23.4-0.4c1.4,0,2.7,0.5,3.6,1.5c0.7,0.8,2.8,8.7,2.9,9.3l10.1,52.5
			c0-0.8-0.1-1.6-0.1-2.4c0-1.2,0.5-2.3,1.4-3.2c0.9-0.9,2.1-1.3,3.4-1.4l6.2-0.2c-1-1.2-2-2.4-2.9-3.7c-1.9-2.7-3.4-5.7-4.4-8.9
			c-0.6-1.9-2.8-12.2-2.8-15.4c0-2.8,0.4-5.6,1.2-8.3c0.8-2.8,2-5.4,3.6-7.8c1.6-2.5,3.6-4.7,5.8-6.6c2.4-2,5.1-3.5,8-4.6
			c3.2-1.2,6.6-1.7,10-1.7c4.2,0,8.4,0.8,12.2,2.5c3.6,1.6,6.7,3.8,9.3,6.7c1.8,2,3.4,4.3,4.6,6.7v-11.1c0-1.1,0.4-2.2,1.1-3.1
			c0.8-1,2.1-1.5,3.4-1.5h51.4C282.8,117.3,283.9,117.7,284.8,118.4z M495.1,124.6c-0.9-1.1-2.2-1.7-3.6-1.8l-18-0.6
			c-1.4,0-2.8,0.5-3.7,1.6c-0.8,0.9-1.3,2.1-1.3,3.3v1.8c-0.4,0.1-0.8,0.2-1.2,0.4l-0.9-3.5c-0.3-1.1-0.8-2.1-1.7-2.8
			c-0.9-0.8-2-1.2-3.2-1.2l-20.3-0.7c-1.2,0-2.4,0.4-3.3,1.3c-0.2-0.3-0.4-0.5-0.7-0.7c-0.9-0.8-2-1.1-3.2-1.2l-51.4-1.8
			c-1.3,0-2.5,0.4-3.4,1.4c-0.9-0.9-2-1.3-3.3-1.3l-33.4-0.6c-1.3,0-2.5,0.5-3.4,1.4c-0.7,0.8-1.2,1.8-1.3,2.8l-0.4,3l-0.5-3.3
			c-0.2-1.1-0.6-2.1-1.4-2.8c-0.8-0.8-1.9-1.3-3.1-1.3l-32.2-0.6c-1.4,0-2.7,0.6-3.5,1.8c-0.3,0.5-0.6,1-0.7,1.5
			c-0.1,0.4-1,6.9-1,7.9v86.3c0,1.1,0.4,2.1,1.1,2.9c0.8,0.9,1.9,1.5,3.1,1.5l20.1,0.4c1.3,0,2.6-0.5,3.5-1.5c0.7-0.9,1.1-2,1.1-3.1
			v-1.8c0.1-0.1,0.1-0.1,0.2-0.2l0.4,2.6c0.2,1.1,0.7,2,1.4,2.8c0.8,0.8,1.9,1.3,3.1,1.3l13.3,0.2c0.9,0,1.8-0.2,2.6-0.7
			c1.1-0.7,1.9-1.7,2.1-3l0.5-2.7c0.1-0.1,0.2-0.2,0.2-0.3v2.2c0,1.3,0.5,2.5,1.4,3.4c0.9,0.8,2,1.2,3.1,1.3l21.4,0.4
			c1.1,0,2.2-0.4,3.1-1.1c0.4-0.4,0.8-0.8,1-1.3c0.4-0.6,2-4.7,2.3-5.2c0.3-0.6,0.5-1.3,0.5-2v-55.2c0,0,0,0,0,0l10.1,0.4V216
			c0,1.4,0.5,2.6,1.5,3.6c0.9,0.9,2.1,1.4,3.3,1.5l20.1,0.7c1.3,0.1,2.6-0.4,3.6-1.3c0.3-0.3,0.6-0.6,0.8-1c0.5-0.7,2.7-4.7,2.9-5
			c0.5-0.8,0.7-1.6,0.7-2.5v-54.6l6.8,0.2c0.9,0,1.8-0.2,2.6-0.6v60.9c0,1.1,0.3,2.1,0.9,3c0.8,1.2,2.1,1.9,3.5,2l17.9,0.6
			c1.3,0,2.6-0.4,3.5-1.4c0.9-0.9,1.4-2,1.5-3.3l0.3,1.2c0.3,1.1,0.8,2,1.7,2.7c0.8,0.7,1.7,1.1,2.8,1.1l22.1,0.8
			c1.4,0.1,2.8-0.5,3.7-1.7c0.7-0.9,3.4-4,4.2-5c0.7-0.9,1.1-2,1.1-3.2V128C496.3,126.7,495.9,125.6,495.1,124.6z"/>
		<path id="COAST_MTN_white_1_" fill="#FFFFFF" d="M6.9,186.1c0,3.4,0.4,6.7,1.1,9.9c0.7,3.1,1.8,6,3.3,8.6c1.4,2.6,3.2,4.9,5.3,6.8
			c2.1,1.9,4.5,3.3,7.3,4.3c2.7,1,5.8,1.4,9.1,1.2c3.8-0.2,7.3-1,10.6-2.6c3.3-1.6,6.1-3.9,8.6-7.1c2.4-3.1,4.4-7.3,5.7-12.3
			c1.4-5.1,2.1-11.8,2.1-19c0-0.3-0.1-0.5-0.3-0.6c-0.2-0.2-0.4-0.3-0.7-0.3l-22.7,1.3c-0.5,0-0.8,0.2-1.1,0.6
			c-0.2,0.4-0.4,0.8-0.4,1.2v11.8c0,0.6-0.2,1.1-0.5,1.6c-0.3,0.4-0.8,0.6-1.4,0.7c-0.6,0-1-0.1-1.4-0.5c-0.4-0.4-0.5-0.8-0.6-1.4
			v-37.4c0-0.7,0.2-1.2,0.6-1.6c0.4-0.4,0.8-0.6,1.3-0.7c0.5,0,0.9,0.1,1.3,0.4c0.4,0.3,0.6,0.9,0.6,1.8v9.3c0,0.7,0.2,1.3,0.7,1.7
			c0.4,0.4,0.9,0.6,1.5,0.6l22.2-1.7c0.4,0,0.6-0.1,0.8-0.3c0.2-0.2,0.2-0.5,0.3-1c0-0.5,0-1.3,0-2.4c0-4.4-0.6-10.5-1.7-14.3
			c-1.1-3.8-2.8-7.1-5.1-10c-2.3-2.9-5.1-5-8.4-6.6c-3.3-1.5-7.2-2.2-11.6-2c-5.5,0.3-10.2,1.9-14.2,4.9c-4,2.9-7,7-9.2,12.3
			c-2.1,5.3-3.2,11.5-3.3,18.9V186.1L6.9,186.1z M62.5,187.2c0,4.6,0.7,8.7,2,12.1c1.3,3.4,3.2,6.2,5.5,8.4c2.3,2.2,5,3.8,8,4.8
			c3,1,6.1,1.5,9.5,1.4c3.3-0.1,6.5-0.8,9.5-2c3-1.2,5.6-3,8-5.4c2.3-2.3,4.1-5.3,5.5-8.8c1.3-3.5,2-7.5,2-12.2v-35.6
			c0-4.6-0.7-8.7-2-12.1c-1.3-3.4-3.2-6.2-5.5-8.4c-2.3-2.2-5-3.8-8-4.8c-3-1-6.2-1.5-9.5-1.4c-3.4,0.1-6.5,0.8-9.5,2
			c-3,1.2-5.6,3-8,5.4c-2.3,2.4-4.1,5.3-5.5,8.8c-1.3,3.5-2,7.6-2,12.2V187.2L62.5,187.2z M85.6,151.2c0-0.9,0.2-1.6,0.5-2.3
			c0.3-0.6,0.8-1,1.5-1c0.4,0,0.8,0.1,1.1,0.5c0.3,0.3,0.5,0.7,0.6,1.2c0.1,0.5,0.2,1,0.2,1.5v34.8c0,0.9-0.2,1.7-0.5,2.3
			c-0.3,0.6-0.8,0.9-1.5,0.9c-0.7,0-1.1-0.3-1.5-0.8c-0.3-0.6-0.5-1.3-0.5-2.2V151.2L85.6,151.2z M130.3,121.6
			c-0.4,0-0.7,0.2-0.9,0.5c-0.3,0.3-0.4,0.6-0.5,0.9L112.7,210c-0.1,0.6,0,1.1,0.2,1.5c0.3,0.4,0.7,0.6,1.2,0.6l19.8-0.3
			c0.3,0,0.6-0.1,1-0.4c0.3-0.2,0.5-0.6,0.6-1l2.3-17.7c0.1-0.4,0.2-0.7,0.4-0.9c0.2-0.2,0.4-0.3,0.7-0.3l6.5-0.1
			c0.3,0,0.6,0.1,0.8,0.2c0.2,0.2,0.4,0.4,0.4,0.7l2.4,18c0.1,0.4,0.3,0.7,0.6,0.8c0.3,0.2,0.6,0.3,1,0.3L170,211
			c0.7,0,1.1-0.3,1.4-0.8c0.3-0.5,0.4-1.1,0.3-1.8l-16.5-85.6c-0.1-0.4-0.2-0.8-0.5-1.1c-0.3-0.3-0.6-0.4-1.1-0.4L130.3,121.6
			L130.3,121.6z M144.7,178.2c0.1,0.4,0,0.6-0.2,0.8c-0.1,0.2-0.5,0.3-1.1,0.3c-0.6,0.1-1.5,0.1-2.8,0.1c-0.3,0-0.5-0.1-0.6-0.4
			c-0.1-0.2-0.2-0.5-0.1-0.8l1.6-11.4c0.1-1,0.2-1.7,0.4-2.1c0.1-0.4,0.3-0.7,0.5-0.7c0.2,0,0.3,0.3,0.5,0.7c0.1,0.5,0.3,1.2,0.4,2
			L144.7,178.2L144.7,178.2z M224.2,149c0.5,0,0.8-0.2,1.1-0.5c0.2-0.3,0.4-0.7,0.4-1.1c0-3.6-0.6-7-1.8-10.2
			c-1.2-3.2-2.9-6.1-5.2-8.6c-2.3-2.5-5-4.5-8.2-5.9c-3.2-1.4-6.8-2.2-10.9-2.2c-3.2,0-6.1,0.5-8.8,1.5c-2.6,1-5,2.3-7,4
			c-2,1.7-3.7,3.6-5.1,5.8c-1.4,2.2-2.4,4.5-3.2,6.9c-0.7,2.4-1.1,4.9-1.1,7.4c0,2.7,0.4,5.5,1.3,8.3c0.9,2.8,2.2,5.5,4,8.1
			c1.8,2.6,4,5,6.7,7.2c2.7,2.2,5.2,4.2,7.4,6c2.2,1.9,4,3.5,5.3,5c1.3,1.5,2,2.7,2,3.6c0,1.4-0.3,2.4-0.7,3c-0.5,0.6-1.2,0.9-2,0.9
			c-0.7,0-1.4-0.3-2-0.9c-0.6-0.6-1.2-1.3-1.6-2.3c-0.5-1-0.9-2-1.2-3.2c-0.3-1.2-0.5-2-0.6-3.2c-0.1-0.5-0.2-0.9-0.4-1.2
			c-0.2-0.3-0.6-0.4-1-0.4l-16.6,0.4c-0.5,0-0.8,0.1-1.1,0.4c-0.2,0.2-0.4,0.5-0.4,0.8c0,4.8,0.5,9.2,1.6,13.2
			c1.1,4,2.7,7.4,4.9,10.2c2.2,2.9,5,5.1,8.3,6.6c3.4,1.6,7.3,2.3,11.9,2.4c3.9,0,7.5-0.8,10.6-2.3c3.1-1.5,5.8-3.5,8-6.2
			c2.2-2.6,3.9-5.7,5-9.2c1.1-3.5,1.7-7.3,1.7-11.3c0-3-0.6-5.9-1.8-8.7c-1.2-2.8-2.8-5.4-4.8-7.8c-2.1-2.4-4.4-4.5-7-6.3
			c-2.4-1.6-4.6-3.2-6.5-4.7c-1.9-1.5-3.5-3-4.6-4.4c-1.1-1.4-1.7-2.7-1.7-4c0-0.6,0.1-1.1,0.5-1.5c0.3-0.4,0.7-0.6,1.3-0.6
			c1.7,0,2.6,1.1,3.4,4c0.1,0.5,0.3,0.8,0.5,1c0.2,0.2,0.5,0.3,0.9,0.3L224.2,149L224.2,149z M266.4,210.8c0.5,0,0.9-0.2,1.2-0.5
			c0.3-0.3,0.5-0.7,0.5-1.1v-62.6c0-0.5,0.1-1,0.4-1.2c0.3-0.3,0.6-0.4,1-0.4h12c0.5,0,0.9-0.2,1.2-0.5c0.3-0.3,0.5-0.7,0.5-1.2
			v-21.1c0-0.5-0.2-0.8-0.5-1.1c-0.3-0.2-0.7-0.4-1.1-0.4h-51.4c-0.4,0-0.6,0.1-0.8,0.3c-0.2,0.2-0.3,0.5-0.3,0.9v21.4
			c0,0.4,0.2,0.8,0.5,1.1c0.3,0.4,0.7,0.6,1,0.6h12c0.4,0,0.8,0.1,1.1,0.4c0.3,0.3,0.4,0.6,0.5,1v62.7c0,0.5,0.2,0.9,0.5,1.2
			c0.3,0.3,0.7,0.5,1.2,0.5H266.4L266.4,210.8z M320.8,211.2c0.4,0,0.7-0.1,0.9-0.3c0.2-0.2,0.3-0.6,0.3-1v-35.2
			c0-0.5,0.1-0.9,0.2-1.1c0.1-0.3,0.3-0.4,0.4-0.4c0.2,0,0.4,0.1,0.6,0.5c0.2,0.3,0.4,1,0.6,2l5.5,34.5c0.1,0.4,0.3,0.7,0.5,1
			c0.2,0.2,0.5,0.4,0.8,0.4l13.6,0.2c0.3,0,0.6-0.1,0.8-0.2c0.3-0.1,0.4-0.4,0.5-0.7l6.2-36.8c0.2-0.9,0.3-1.6,0.5-1.9
			c0.1-0.3,0.3-0.5,0.4-0.5c0.1,0,0.2,0.1,0.3,0.3c0.1,0.2,0.1,0.5,0.1,1v37.6c0,0.4,0.1,0.7,0.4,1c0.2,0.2,0.6,0.4,0.9,0.4
			l21.7,0.4c0.4,0,0.7-0.1,0.9-0.3c0.2-0.2,0.4-0.5,0.4-0.8v-87.6c0-0.4-0.1-0.7-0.3-1c-0.2-0.2-0.6-0.3-1-0.4l-33.4-0.6
			c-0.4,0-0.7,0.1-0.9,0.4c-0.2,0.3-0.4,0.6-0.4,0.9l-2.9,23.6c0,0.4-0.1,0.7-0.1,1c-0.1,0.2-0.2,0.3-0.3,0.3
			c-0.1,0-0.2-0.1-0.3-0.3c-0.1-0.2-0.2-0.5-0.3-0.9l-3.6-24c-0.1-0.4-0.2-0.7-0.4-0.9c-0.2-0.2-0.5-0.3-0.8-0.3l-32.2-0.6
			c-0.3,0-0.5,0.1-0.7,0.4c-0.2,0.2-0.3,0.5-0.3,0.8v87.8c0,0.3,0.1,0.5,0.3,0.7c0.2,0.2,0.4,0.4,0.7,0.4L320.8,211.2L320.8,211.2z
			 M418.8,213.4c0.5,0,0.9-0.1,1.2-0.4c0.3-0.3,0.5-0.6,0.5-1.1v-62.6c0-0.5,0.1-1,0.4-1.2c0.3-0.3,0.6-0.4,1-0.4l12,0.4
			c0.5,0,0.9-0.1,1.2-0.4c0.3-0.3,0.5-0.7,0.5-1.2v-21.1c0-0.5-0.2-0.8-0.5-1.1c-0.3-0.3-0.7-0.4-1.1-0.4l-51.4-1.8
			c-0.4,0-0.6,0.1-0.8,0.3c-0.2,0.2-0.3,0.5-0.3,0.9v21.4c0,0.4,0.2,0.8,0.5,1.1c0.3,0.4,0.7,0.6,1,0.6l12,0.4
			c0.4,0,0.8,0.2,1.1,0.4c0.3,0.3,0.4,0.6,0.5,1.1v62.7c0,0.5,0.2,0.9,0.5,1.2c0.3,0.3,0.7,0.5,1.2,0.5L418.8,213.4L418.8,213.4z
			 M439.8,212.8c0,0.5,0.1,0.9,0.3,1.2c0.2,0.3,0.5,0.5,0.9,0.5l18.2,0.6c0.4,0,0.8-0.1,1.1-0.4c0.3-0.3,0.4-0.6,0.5-1.1v-21.3
			c0-0.6,0.1-1,0.2-1.3c0.1-0.3,0.3-0.4,0.4-0.4c0.2,0,0.4,0.1,0.6,0.4c0.2,0.3,0.4,0.7,0.5,1.3l5.3,21.8c0.1,0.4,0.3,0.7,0.5,0.9
			c0.3,0.2,0.5,0.4,0.8,0.4l22.5,0.8c0.4,0,0.7-0.1,1-0.4c0.2-0.3,0.3-0.6,0.3-1.1V128c0-0.4-0.1-0.8-0.4-1.2
			c-0.3-0.3-0.7-0.5-1.1-0.6l-18-0.6c-0.4,0-0.8,0.1-1,0.4c-0.3,0.3-0.4,0.6-0.4,1.1v26.8c0,0.5-0.1,0.9-0.2,1.2
			c-0.1,0.3-0.3,0.4-0.5,0.4c-0.1,0-0.3-0.1-0.4-0.4c-0.2-0.2-0.3-0.6-0.4-1.1l-7.2-27.3c-0.1-0.5-0.3-0.9-0.6-1.1
			c-0.3-0.3-0.6-0.4-1.1-0.4l-20.3-0.7c-0.4,0-0.7,0.1-0.9,0.4c-0.3,0.3-0.4,0.6-0.4,1.1V212.8L439.8,212.8z"/>
		<linearGradient id="COAST_MTN_gold_2_" gradientUnits="userSpaceOnUse" x1="249.9014" y1="122.91" x2="249.9014" y2="214.562">
			<stop  offset="0" style="stop-color:#D9C390"/>
			<stop  offset="1" style="stop-color:#B4975D"/>
		</linearGradient>
		<path id="COAST_MTN_gold_1_" fill-rule="evenodd" clip-rule="evenodd" fill="url(#COAST_MTN_gold_2_)" d="M37.3,162l20.6-1.6
			c0-0.4,0-0.9,0-1.3c0-4.1-0.5-9.8-1.6-13.6c-1-3.3-2.5-6.4-4.7-9.2c-2-2.6-4.5-4.5-7.5-5.9c-3.3-1.5-6.9-2-10.4-1.8
			c-4.7,0.2-9.1,1.6-12.9,4.4c-3.9,2.9-6.5,6.8-8.4,11.3c-2.3,5.6-3.1,11.9-3.1,17.9v23.9c0,3.1,0.3,6.3,1,9.3c0.7,2.8,1.6,5.5,3,8
			c1.3,2.3,2.8,4.4,4.8,6.1c1.9,1.7,4.1,3,6.5,3.8c2.6,0.9,5.4,1.2,8.2,1.1c3.4-0.2,6.6-0.9,9.7-2.3c3.1-1.5,5.6-3.7,7.7-6.3
			c2.6-3.3,4.2-7.4,5.3-11.5c1.4-5.2,1.9-11.3,2-16.8l-20.2,1.1v11.2c0,1.1-0.3,2.2-1,3c-0.8,1-1.9,1.5-3.2,1.6
			c-1.2,0.1-2.4-0.3-3.2-1.2c-0.9-0.8-1.3-2-1.3-3.2v-37.4c0-1.2,0.4-2.4,1.3-3.3c0.8-0.8,1.8-1.3,2.9-1.4c1.1-0.1,2.2,0.3,3.1,1
			c1,0.9,1.4,2.2,1.4,3.6V162L37.3,162z M64.9,187.2c0,3.8,0.5,7.7,1.9,11.2c1.1,2.8,2.7,5.4,4.9,7.5c2.1,1.9,4.4,3.4,7.1,4.3
			c2.8,0.9,5.7,1.3,8.6,1.2c3-0.1,5.9-0.7,8.6-1.8c2.7-1.1,5.1-2.8,7.2-4.9c2.2-2.3,3.8-5,4.9-7.9c1.4-3.6,1.9-7.5,1.9-11.3v-35.6
			c0-3.8-0.5-7.7-1.9-11.2c-1.1-2.8-2.7-5.5-4.9-7.6c-2-1.9-4.4-3.4-7.1-4.3c-2.8-1-5.7-1.3-8.7-1.2c-3,0.1-5.9,0.7-8.7,1.9
			c-2.7,1.1-5.1,2.8-7.2,4.9c-2.2,2.3-3.8,5-4.9,8c-1.4,3.6-1.9,7.5-1.9,11.4V187.2L64.9,187.2z M83.1,151.2c0-1.2,0.2-2.3,0.7-3.3
			c0.7-1.4,1.9-2.3,3.5-2.4c1.1-0.1,2.2,0.4,3,1.2c0.6,0.6,1,1.4,1.2,2.2c0.2,0.7,0.3,1.5,0.3,2.2v34.8c0,1.2-0.2,2.4-0.7,3.4
			c-0.7,1.3-2,2.2-3.5,2.2c-1.6,0.1-2.9-0.7-3.7-2.1c-0.6-1-0.8-2.2-0.8-3.4V151.2L83.1,151.2z M131.1,124l-15.8,85.5l18-0.3
			l2.2-16.9c0.1-0.8,0.5-1.6,1-2.2c0.6-0.7,1.5-1.1,2.4-1.1l6.5-0.1c0.8,0,1.6,0.2,2.3,0.7c0.7,0.6,1.2,1.4,1.4,2.3l2.3,17l18-0.3
			l-16.3-85L131.1,124L131.1,124z M147.1,177.9c0.1,1-0.1,2-0.8,2.7c-0.7,0.8-1.7,1-2.7,1.1c-1,0.1-2,0.1-3,0.1
			c-1.2,0-2.2-0.6-2.7-1.7c-0.4-0.7-0.4-1.5-0.3-2.2l1.6-11.4c0.1-0.8,0.2-1.7,0.5-2.5c0.4-1.3,1.3-2.4,2.7-2.4
			c1.6,0,2.5,1.2,2.8,2.5c0.2,0.8,0.3,1.5,0.4,2.3L147.1,177.9L147.1,177.9z M175.9,180c0.1,3.8,0.5,7.7,1.5,11.4
			c0.9,3.4,2.3,6.6,4.5,9.4c2,2.6,4.5,4.5,7.4,5.9c3.4,1.6,7.1,2.1,10.9,2.1c3.3,0,6.6-0.6,9.5-2c2.8-1.3,5.2-3.2,7.2-5.6
			c2.1-2.5,3.6-5.3,4.6-8.4c1.1-3.4,1.6-7,1.6-10.6c0-2.7-0.6-5.3-1.6-7.8c-1.1-2.6-2.6-5-4.5-7.2c-1.9-2.2-4.1-4.2-6.5-5.9
			c-2.3-1.5-4.5-3.1-6.7-4.8c-1.8-1.4-3.6-3-5-4.7c-1.3-1.6-2.3-3.4-2.3-5.5c0-1.1,0.3-2.1,0.9-3c0.8-1,1.9-1.6,3.2-1.6
			c3.3-0.1,4.8,2.5,5.6,5.3l16.9-0.5c-0.1-2.9-0.6-5.8-1.6-8.6c-1.1-2.9-2.6-5.5-4.7-7.8c-2.1-2.3-4.6-4-7.4-5.3
			c-3.1-1.4-6.5-2-9.9-2c-2.7,0-5.4,0.4-8,1.3c-2.3,0.8-4.4,2-6.3,3.6c-1.8,1.5-3.4,3.3-4.7,5.2c-1.3,2-2.2,4.1-2.9,6.3
			c-0.6,2.2-1,4.4-1,6.7c0,2.6,0.4,5.1,1.2,7.6c0.8,2.7,2.1,5.2,3.7,7.5c1.7,2.5,3.8,4.8,6.2,6.7c2.5,2,5,4,7.4,6.1
			c1.9,1.6,3.9,3.3,5.6,5.2c1.3,1.4,2.6,3.2,2.7,5.2c0,1.6-0.3,3.3-1.3,4.5c-1,1.2-2.4,1.8-4,1.8c-1.4,0-2.6-0.6-3.6-1.5
			c-0.9-0.9-1.6-1.9-2.1-3c-0.6-1.2-1-2.4-1.3-3.7c-0.3-1-0.5-1.9-0.6-2.9L175.9,180L175.9,180z M265.6,208.4v-61.7
			c0-1.1,0.3-2.1,1-2.9c0.7-0.8,1.7-1.2,2.8-1.2h11.3v-19.4h-49.2v19.4h11.2c1,0,1.9,0.3,2.7,1c0.8,0.7,1.3,1.7,1.3,2.9v62H265.6
			L265.6,208.4z M319.6,208.8v-34.1c0-0.7,0.1-1.4,0.3-2c0.4-1.1,1.4-1.9,2.6-1.9c1.2,0,2.1,0.6,2.7,1.5c0.6,0.8,0.8,2,1,3l5.4,33.8
			l11.7,0.2l6.1-35.7c0.1-0.8,0.3-1.6,0.6-2.4c0.5-1.2,1.5-2.2,2.9-2c1.2,0.1,2,0.9,2.4,2c0.2,0.5,0.2,1.1,0.2,1.7v36.5l19.5,0.3
			v-85.3l-31.3-0.5l-2.8,22.8c-0.1,0.6-0.1,1-0.3,1.6c-0.4,1.1-1.4,1.9-2.6,1.9c-1,0-1.9-0.6-2.4-1.5c-0.3-0.5-0.5-1.2-0.6-1.8
			l-3.5-23.2l-29.7-0.5v85.3L319.6,208.8L319.6,208.8z M418.1,211v-61.6c0-1.1,0.3-2.1,1-2.9c0.8-0.8,1.8-1.2,2.9-1.2l11.2,0.4
			v-19.4l-49.2-1.7v19.4l11.2,0.4c1,0,1.9,0.4,2.6,1.1c0.8,0.7,1.3,1.7,1.3,2.9v62.1L418.1,211L418.1,211z M442.3,212.2l16.2,0.6
			v-20.3c0-0.8,0.1-1.5,0.3-2.2c0.5-1.1,1.5-1.9,2.8-1.9c1,0,1.9,0.6,2.5,1.4c0.5,0.6,0.7,1.4,0.9,2.2l5.1,21.2l20.5,0.7v-85.3
			l-16.2-0.6v25.9c0,0.8-0.1,1.7-0.5,2.4c-0.6,1-1.5,1.6-2.7,1.6c-1,0-1.8-0.6-2.4-1.5c-0.4-0.5-0.6-1.2-0.7-1.8l-7.1-27l-18.6-0.6
			V212.2L442.3,212.2z"/>
		<path id="TRAIL_SERIES_1_" fill="#B89B65" d="M124.3,269.1c0.2,0,0.4-0.1,0.6-0.2c0.1-0.1,0.2-0.3,0.2-0.5v-28.9
			c0-0.2,0.1-0.4,0.2-0.6c0.1-0.1,0.3-0.2,0.5-0.2l5.5-0.2c0.2,0,0.4-0.1,0.6-0.2c0.1-0.1,0.2-0.3,0.2-0.6v-9.8
			c0-0.2-0.1-0.4-0.2-0.5c-0.1-0.1-0.3-0.1-0.5-0.1l-23.7,0.8c-0.2,0-0.3,0.1-0.4,0.2c-0.1,0.1-0.1,0.2-0.1,0.4v9.9
			c0,0.2,0.1,0.4,0.2,0.5c0.1,0.2,0.3,0.3,0.5,0.3l5.5-0.2c0.2,0,0.4,0.1,0.5,0.2c0.1,0.1,0.2,0.3,0.2,0.5v28.9
			c0,0.2,0.1,0.4,0.2,0.6c0.2,0.1,0.3,0.2,0.5,0.2L124.3,269.1L124.3,269.1z M137.4,227c-0.2,0-0.3,0.1-0.4,0.2
			c-0.1,0.1-0.2,0.3-0.2,0.5v40.2c0,0.2,0.1,0.4,0.2,0.5c0.1,0.1,0.3,0.2,0.5,0.2l9.5-0.2c0.2,0,0.4-0.1,0.5-0.2
			c0.1-0.1,0.2-0.3,0.2-0.5V250c0-0.2,0-0.4,0.1-0.5c0.1-0.1,0.2-0.2,0.3-0.2c0.2,0,0.4,0.1,0.6,0.3c0.2,0.2,0.4,0.5,0.5,0.9
			c0.1,0.4,0.2,0.9,0.2,1.5v8.5c0,1.7,0.3,3.2,0.8,4.4c0.5,1.2,1.3,2.1,2.3,2.6c1,0.6,2.2,0.9,3.5,0.8c0.4,0,0.9,0,1.5-0.1
			c0.6-0.1,1.2-0.3,1.9-0.6c0.7-0.3,1.3-0.7,1.9-1.3c0.6-0.6,1.1-1.4,1.5-2.4c0.4-1,0.6-2.2,0.6-3.7c0-0.1-0.1-0.3-0.1-0.4
			c-0.1-0.2-0.2-0.3-0.4-0.4c-0.6-0.2-1-0.5-1.2-0.8c-0.2-0.3-0.3-0.6-0.3-1c0-1.1,0-2.2-0.1-3.1c0-1-0.2-1.9-0.4-2.7
			c-0.2-0.8-0.5-1.5-1-2.2c-0.5-0.7-1.1-1.2-2-1.8c-0.9-0.5-2-0.9-3.3-1.3v-0.1c1-0.2,1.9-0.5,2.6-1c0.7-0.5,1.3-1.1,1.7-1.8
			c0.4-0.7,0.8-1.4,1-2.2c0.2-0.8,0.4-1.5,0.4-2.3c0.1-0.8,0.1-1.4,0.1-2c0-1.4-0.2-2.6-0.6-3.7c-0.4-1.1-1-2.1-1.7-2.9
			c-0.7-0.8-1.5-1.5-2.5-2.1c-0.9-0.6-1.9-1-2.9-1.3c-1-0.3-2-0.4-3-0.4L137.4,227L137.4,227z M147.6,239c0-0.2,0-0.3,0.1-0.4
			c0.1-0.1,0.2-0.1,0.3-0.1c0.2,0,0.4,0.1,0.6,0.2c0.2,0.2,0.4,0.4,0.5,0.7c0.1,0.3,0.2,0.6,0.2,1.1c0,0.8,0,1.6,0,2.2
			c0,0.6-0.2,1.1-0.3,1.4c-0.2,0.3-0.5,0.5-0.9,0.5c-0.1,0-0.2,0-0.3-0.1c-0.1-0.1-0.1-0.2-0.1-0.4V239L147.6,239z M173.4,226.3
			c-0.2,0-0.3,0.1-0.4,0.2c-0.1,0.1-0.2,0.3-0.2,0.4l-7.4,40.1c-0.1,0.3,0,0.5,0.1,0.7c0.1,0.2,0.3,0.3,0.6,0.3l9.1-0.2
			c0.1,0,0.3-0.1,0.4-0.2c0.2-0.1,0.2-0.3,0.3-0.5l1.1-8.2c0-0.2,0.1-0.3,0.2-0.4c0.1-0.1,0.2-0.1,0.3-0.1l3-0.1
			c0.1,0,0.3,0,0.4,0.1c0.1,0.1,0.2,0.2,0.2,0.3l1.1,8.3c0,0.2,0.1,0.3,0.3,0.4c0.1,0.1,0.3,0.1,0.5,0.1l9-0.2
			c0.3,0,0.5-0.2,0.7-0.4c0.1-0.2,0.2-0.5,0.1-0.8l-7.6-39.5c0-0.2-0.1-0.4-0.2-0.5c-0.1-0.1-0.3-0.2-0.5-0.2L173.4,226.3
			L173.4,226.3z M180.1,252.4c0,0.2,0,0.3-0.1,0.4c-0.1,0.1-0.2,0.1-0.5,0.1c-0.3,0-0.7,0-1.3,0c-0.1,0-0.2-0.1-0.3-0.2
			c-0.1-0.1-0.1-0.2,0-0.4l0.7-5.3c0.1-0.4,0.1-0.8,0.2-1c0.1-0.2,0.1-0.3,0.2-0.3c0.1,0,0.2,0.1,0.2,0.3c0.1,0.2,0.1,0.5,0.2,0.9
			L180.1,252.4L180.1,252.4z M206.5,267.5c0.2,0,0.4-0.1,0.5-0.2c0.1-0.1,0.2-0.3,0.2-0.5v-40.3c0-0.2-0.1-0.3-0.2-0.4
			c-0.1-0.1-0.3-0.1-0.5-0.1H197c-0.1,0-0.3,0.1-0.4,0.2c-0.1,0.1-0.1,0.2-0.1,0.4v40.2c0,0.2,0.1,0.4,0.2,0.6
			c0.1,0.2,0.3,0.2,0.5,0.2H206.5L206.5,267.5z M223.1,255.4c-0.1,0-0.2,0-0.2-0.1c-0.1-0.1-0.1-0.2-0.1-0.3V226
			c0-0.2-0.1-0.3-0.2-0.4c-0.1-0.1-0.2-0.2-0.4-0.2h-9.4c-0.2,0-0.4,0.1-0.5,0.3c-0.1,0.2-0.2,0.3-0.2,0.5v40.1
			c0,0.2,0.1,0.4,0.2,0.5c0.1,0.1,0.3,0.2,0.4,0.2h19.8c0.2,0,0.3-0.1,0.4-0.2c0.1-0.1,0.2-0.3,0.2-0.4V256c0-0.1-0.1-0.3-0.2-0.4
			c-0.1-0.1-0.3-0.2-0.5-0.2H223.1L223.1,255.4z M268.7,238.4c0.2,0,0.4-0.1,0.5-0.2c0.1-0.1,0.2-0.3,0.2-0.5c0-1.7-0.3-3.2-0.8-4.7
			c-0.6-1.5-1.4-2.8-2.4-4c-1-1.2-2.3-2.1-3.8-2.7c-1.5-0.7-3.1-1-5-1c-1.5,0-2.8,0.2-4.1,0.7c-1.2,0.5-2.3,1.1-3.2,1.8
			c-0.9,0.8-1.7,1.7-2.4,2.7c-0.6,1-1.1,2.1-1.5,3.2c-0.3,1.1-0.5,2.3-0.5,3.4c0,1.3,0.2,2.5,0.6,3.8c0.4,1.3,1,2.5,1.8,3.7
			c0.8,1.2,1.8,2.3,3.1,3.3c1.3,1,2.4,1.9,3.4,2.8c1,0.9,1.8,1.6,2.5,2.3c0.6,0.7,0.9,1.2,0.9,1.7c0,0.6-0.1,1.1-0.3,1.4
			c-0.2,0.3-0.5,0.4-0.9,0.4c-0.3,0-0.6-0.1-0.9-0.4c-0.3-0.3-0.5-0.6-0.8-1.1c-0.2-0.4-0.4-0.9-0.5-1.5c-0.1-0.5-0.2-1.1-0.3-1.7
			c0-0.2-0.1-0.4-0.2-0.5c-0.1-0.1-0.3-0.2-0.5-0.2l-7.6,0.4c-0.2,0-0.4,0.1-0.5,0.2c-0.1,0.1-0.2,0.2-0.2,0.4
			c0,2.2,0.3,4.2,0.7,6.1c0.5,1.8,1.2,3.4,2.3,4.7c1,1.3,2.3,2.3,3.8,3.1c1.6,0.7,3.4,1.1,5.5,1.1c1.8,0,3.5-0.4,4.9-1
			c1.4-0.7,2.7-1.6,3.7-2.9c1-1.2,1.8-2.6,2.3-4.2c0.5-1.6,0.8-3.4,0.8-5.2c0-1.4-0.3-2.7-0.8-4c-0.5-1.3-1.3-2.5-2.2-3.6
			c-1-1.1-2-2.1-3.2-2.9c-1.1-0.8-2.1-1.5-3-2.2c-0.9-0.7-1.6-1.4-2.1-2c-0.5-0.6-0.8-1.3-0.8-1.9c0-0.3,0.1-0.5,0.2-0.7
			c0.1-0.2,0.3-0.3,0.6-0.3c0.8,0,1.3,0.7,1.7,2c0.1,0.2,0.1,0.4,0.2,0.5c0.1,0.1,0.3,0.1,0.4,0.1L268.7,238.4L268.7,238.4z
			 M274.1,266.2c0,0.2,0.1,0.4,0.2,0.5c0.1,0.1,0.3,0.2,0.4,0.2h19.8c0.2,0,0.3-0.1,0.4-0.2c0.1-0.1,0.2-0.3,0.2-0.4V256
			c0-0.1-0.1-0.3-0.2-0.4c-0.1-0.1-0.3-0.2-0.5-0.2h-9.6c-0.1,0-0.2,0-0.2-0.1c-0.1-0.1-0.1-0.2-0.1-0.3v-3.3c0-0.1,0-0.2,0.1-0.3
			c0.1-0.1,0.2-0.1,0.3-0.1h4.5c0.1,0,0.2-0.1,0.3-0.1c0.1-0.1,0.1-0.2,0.1-0.4v-10.1c0-0.1,0-0.2-0.1-0.3c-0.1-0.1-0.2-0.1-0.3-0.1
			h-4.4c-0.1,0-0.2,0-0.3-0.1c-0.1-0.1-0.1-0.2-0.1-0.3v-3.1c0-0.1,0-0.2,0.1-0.3c0.1-0.1,0.2-0.1,0.3-0.1h9.3
			c0.2,0,0.3-0.1,0.4-0.2c0.1-0.1,0.2-0.2,0.2-0.4v-10c0-0.2-0.1-0.3-0.2-0.4c-0.1-0.1-0.2-0.2-0.4-0.2h-19.7
			c-0.2,0-0.4,0.1-0.5,0.2c-0.1,0.1-0.2,0.3-0.2,0.5V266.2L274.1,266.2z M300.7,225.9c-0.2,0-0.3,0.1-0.4,0.2
			c-0.1,0.1-0.2,0.3-0.2,0.5v40.2c0,0.2,0.1,0.4,0.2,0.5c0.1,0.1,0.3,0.2,0.5,0.2l9.5,0.2c0.2,0,0.4-0.1,0.5-0.2
			c0.1-0.1,0.2-0.3,0.2-0.4v-17.7c0-0.2,0-0.4,0.1-0.5c0.1-0.1,0.2-0.2,0.3-0.2c0.2,0,0.4,0.1,0.6,0.3c0.2,0.2,0.4,0.5,0.5,0.9
			c0.1,0.4,0.2,0.9,0.2,1.5v8.5c0,1.7,0.3,3.2,0.8,4.4c0.5,1.2,1.3,2.1,2.3,2.7c1,0.6,2.2,0.9,3.5,1c0.4,0,0.9,0,1.5-0.1
			c0.6-0.1,1.2-0.2,1.9-0.5c0.7-0.3,1.3-0.7,1.9-1.2c0.6-0.6,1.1-1.3,1.5-2.3c0.4-1,0.6-2.2,0.6-3.7c0-0.1-0.1-0.3-0.2-0.4
			c-0.1-0.2-0.2-0.3-0.4-0.4c-0.6-0.3-1-0.6-1.2-0.9c-0.2-0.3-0.3-0.7-0.3-1c0-1.1,0-2.2-0.1-3.1c0-1-0.2-1.9-0.4-2.7
			c-0.2-0.8-0.6-1.6-1-2.2c-0.5-0.7-1.1-1.3-2-1.8c-0.9-0.5-2-1-3.3-1.4V246c1-0.2,1.9-0.5,2.6-0.9c0.7-0.5,1.3-1,1.7-1.7
			c0.4-0.7,0.7-1.4,1-2.2c0.2-0.8,0.4-1.5,0.4-2.3c0.1-0.8,0.1-1.4,0.1-2c0-1.4-0.2-2.6-0.6-3.7c-0.4-1.1-1-2.1-1.7-3
			c-0.7-0.9-1.5-1.6-2.5-2.2c-0.9-0.6-1.9-1-2.9-1.4c-1-0.3-2-0.5-3-0.5L300.7,225.9L300.7,225.9z M310.9,238.3c0-0.2,0-0.3,0.1-0.4
			c0.1-0.1,0.2-0.1,0.3-0.1c0.2,0,0.4,0.1,0.6,0.2c0.2,0.2,0.4,0.4,0.5,0.7c0.1,0.3,0.2,0.7,0.2,1.1c0,0.9,0,1.6,0,2.2
			c0,0.6-0.2,1.1-0.4,1.4c-0.2,0.3-0.5,0.5-0.9,0.5c-0.1,0-0.2,0-0.3-0.1c-0.1-0.1-0.1-0.2-0.1-0.4V238.3L310.9,238.3z M339.8,268.2
			c0.2,0,0.4-0.1,0.5-0.2c0.1-0.1,0.2-0.3,0.2-0.5v-40.3c0-0.2-0.1-0.3-0.2-0.4c-0.1-0.1-0.3-0.2-0.5-0.2l-9.5-0.2
			c-0.1,0-0.3,0.1-0.4,0.2c-0.1,0.1-0.1,0.2-0.1,0.4v40.2c0,0.2,0.1,0.4,0.2,0.6c0.1,0.2,0.3,0.2,0.5,0.3L339.8,268.2L339.8,268.2z
			 M345.4,267.9c0,0.2,0.1,0.4,0.2,0.5c0.1,0.1,0.3,0.2,0.4,0.2l19.8,0.3c0.2,0,0.3-0.1,0.4-0.2c0.1-0.1,0.2-0.3,0.2-0.4v-10.3
			c0-0.1-0.1-0.3-0.2-0.4c-0.1-0.1-0.3-0.2-0.5-0.2l-9.6-0.2c-0.1,0-0.2,0-0.2-0.1c-0.1-0.1-0.1-0.2-0.1-0.3v-3.3
			c0-0.1,0-0.2,0.1-0.3c0.1-0.1,0.2-0.1,0.3-0.1l4.5,0.1c0.1,0,0.2-0.1,0.3-0.1c0.1-0.1,0.1-0.2,0.1-0.4v-10.1c0-0.1,0-0.2-0.1-0.3
			c-0.1-0.1-0.2-0.1-0.3-0.1l-4.4-0.1c-0.1,0-0.2,0-0.3-0.1c-0.1-0.1-0.1-0.2-0.1-0.3v-3.1c0-0.1,0-0.2,0.1-0.3
			c0.1-0.1,0.2-0.1,0.3-0.1l9.2,0.2c0.2,0,0.3-0.1,0.4-0.1c0.1-0.1,0.2-0.2,0.2-0.4v-10c0-0.2-0.1-0.3-0.2-0.4
			c-0.1-0.1-0.2-0.2-0.4-0.2l-19.7-0.3c-0.2,0-0.4,0.1-0.5,0.2c-0.1,0.1-0.2,0.3-0.2,0.5V267.9L345.4,267.9z M394.5,241.4
			c0.2,0,0.4-0.1,0.5-0.2c0.1-0.1,0.2-0.3,0.2-0.5c0-1.7-0.3-3.2-0.8-4.7c-0.6-1.5-1.3-2.9-2.4-4c-1.1-1.2-2.3-2.1-3.8-2.8
			c-1.5-0.7-3.2-1.1-5-1.2c-1.5,0-2.8,0.1-4.1,0.5c-1.2,0.4-2.3,1-3.2,1.7c-0.9,0.7-1.7,1.6-2.4,2.6c-0.6,1-1.1,2-1.5,3.1
			c-0.3,1.1-0.5,2.2-0.5,3.4c0,1.3,0.2,2.5,0.6,3.9c0.4,1.3,1,2.6,1.8,3.8c0.8,1.2,1.8,2.4,3.1,3.4c1.3,1,2.4,2,3.4,2.9
			c1,0.9,1.8,1.7,2.5,2.4c0.6,0.7,0.9,1.3,0.9,1.7c0,0.6-0.1,1.1-0.3,1.4c-0.2,0.3-0.5,0.4-0.9,0.4c-0.3,0-0.6-0.2-0.9-0.4
			c-0.3-0.3-0.5-0.6-0.7-1.1c-0.2-0.5-0.4-1-0.5-1.5c-0.1-0.6-0.2-1.1-0.3-1.7c0-0.2-0.1-0.4-0.2-0.6c-0.1-0.1-0.3-0.2-0.5-0.2
			l-7.6,0.1c-0.2,0-0.4,0.1-0.5,0.2c-0.1,0.1-0.2,0.2-0.2,0.4c0,2.2,0.2,4.3,0.7,6.1c0.5,1.8,1.3,3.5,2.3,4.8c1,1.4,2.3,2.4,3.8,3.2
			c1.6,0.8,3.4,1.2,5.5,1.3c1.8,0.1,3.4-0.2,4.9-0.9c1.4-0.6,2.7-1.5,3.7-2.7c1-1.2,1.8-2.6,2.3-4.2c0.5-1.6,0.8-3.3,0.8-5.2
			c0-1.4-0.3-2.7-0.8-4c-0.5-1.3-1.3-2.5-2.2-3.7c-0.9-1.1-2-2.1-3.2-3c-1.1-0.8-2.1-1.6-3-2.3c-0.9-0.7-1.6-1.4-2.1-2.1
			c-0.5-0.7-0.8-1.3-0.8-1.9c0-0.3,0.1-0.5,0.2-0.7c0.1-0.2,0.3-0.3,0.6-0.3c0.8,0,1.3,0.7,1.7,2c0.1,0.2,0.1,0.4,0.2,0.5
			c0.1,0.1,0.3,0.1,0.4,0.2L394.5,241.4L394.5,241.4z"/>
		<path id="Salomon_type_border_1_" fill="#07311D" d="M150.1,75.6l1.5,0.4l2-0.5c1.9-0.4,4-0.8,5.9-1.1c1.9-0.3,3.8-0.4,5.3-0.4
			c3.4,0,7,0.3,9.9,1.8c0.4,0.2,0.8,0.4,1.2,0.7v-2.1h3.5h5.5h3.5v3.5v15.8c0.4,0.2,1,0.3,1.9,0.3c1,0,2,0,2.8-0.1
			c0.3,0,0.5,0,0.8,0c0-0.1,0-0.3,0-0.4c-0.1-0.7-0.1-1.6-0.1-2.7l0-0.1v-0.4v-0.4l0-0.1c0-1,0.1-2,0.1-2.7c0.1-0.9,0.2-1.8,0.4-2.6
			c0.5-3.4,2.1-6.1,4.6-7.9c2.4-1.7,5.6-2.5,9.5-2.5h3c4,0,7.2,0.8,9.5,2.5c1.1,0.7,1.9,1.6,2.7,2.7c0.7-1,1.6-1.9,2.6-2.6
			c2.4-1.7,5.6-2.5,9.5-2.5h1.6c2.2,0,4.2,0.3,5.9,0.8c0.9,0.3,1.7,0.6,2.4,1c0.8-0.4,1.6-0.7,2.4-1l0,0c1.8-0.5,3.7-0.8,5.9-0.8
			h1.6c4,0,7.1,0.8,9.5,2.5c1.1,0.8,2,1.7,2.8,2.8c0.7-1.1,1.7-2.1,2.8-2.8c2.4-1.7,5.6-2.5,9.6-2.5h2.9c4,0,7.1,0.8,9.5,2.5
			c1,0.7,1.9,1.6,2.6,2.6c0.7-1,1.6-1.8,2.6-2.6c2.4-1.7,5.6-2.5,9.5-2.5h2.6c4,0,7.1,0.8,9.5,2.5c2.6,1.8,4.1,4.5,4.7,8
			c0.2,0.9,0.3,1.9,0.3,2.9c0.1,1,0.1,2.1,0.1,3.1v11.4v3.5h-3.5h-5.7h-3.5v-3.5V90.7c0-0.6,0-1.1,0-1.5c0-0.4-0.1-0.9-0.1-1.3
			l0-0.1c-0.1-0.6-0.2-0.9-0.3-1c-0.2-0.2-0.7-0.3-1.5-0.3h-2.6c-0.8,0-1.3,0.1-1.5,0.3c-0.2,0.1-0.3,0.5-0.4,1.1V88
			c-0.1,0.4-0.1,0.8-0.1,1.3c0,0.4,0,0.9,0,1.5v11.4v3.5h-3.5h-5.6h-3.5v-1.7l-0.1,0.1c-2.4,1.7-5.6,2.5-9.5,2.5h-2.9
			c-4,0-7.2-0.8-9.6-2.5c-0.1-0.1-0.3-0.2-0.4-0.3v2h-3.5h-5.6h-3.5v-3.5V90.7c0-0.5,0-1,0-1.4c0-0.4-0.1-0.8-0.1-1.2l0-0.2
			c-0.1-0.6-0.2-0.9-0.3-1c-0.2-0.2-0.7-0.3-1.5-0.3h-1.6c-0.8,0-1.3,0.1-1.5,0.3c-0.2,0.1-0.3,0.5-0.4,1v0
			c-0.1,0.4-0.1,0.9-0.1,1.3c0,0.4,0,0.9,0,1.5v11.5v3.5h-3.5h-5.6h-3.5v-3.5V90.7c0-0.6,0-1.1,0-1.5c0-0.5-0.1-0.9-0.1-1.3v0
			c-0.1-0.5-0.2-0.9-0.4-1c-0.2-0.2-0.7-0.3-1.5-0.3h-1.6c-0.8,0-1.3,0.1-1.5,0.3c-0.2,0.1-0.3,0.5-0.3,1l0,0.1
			c0,0.4-0.1,0.8-0.1,1.4c0,0.4-0.1,0.9-0.1,1.4v11.5v3.5h-3.5h-5.6H221v-1.8c-0.1,0-0.1,0.1-0.2,0.1c-2.4,1.7-5.6,2.5-9.5,2.5h-3
			c-3.1,0-5.7-0.5-7.8-1.5l-3.4,0.5c-0.9,0.1-2,0.2-3.1,0.3l-0.4,0v0.1h-3.5c-3.4,0-7.3-0.6-10.2-2.8c-0.6-0.5-1.2-1-1.7-1.6
			c-0.5,0.7-1.2,1.3-1.9,1.8c-2.5,1.9-6.3,2.9-11.6,2.9c-4.6,0-8.3-0.5-11-2c-1-0.5-1.8-1.1-2.5-1.8c-0.8,0.7-1.7,1.4-2.7,1.9
			c-2.8,1.4-6.4,1.9-10.6,1.9c-2.4,0-4.5-0.1-6.6-0.3c-2.1-0.2-4.2-0.6-6.5-1.3l-2.6-0.7v-2.7v-5.5v-4.9l1,0.3
			c-1.2-1.6-1.7-3.5-1.7-6c0-3.4,1.1-6.3,4.2-8.3c2.5-1.7,6.3-2.6,11.9-2.6c2.7,0,5,0.1,7,0.3C146.8,74.8,148.7,75.1,150.1,75.6
			L150.1,75.6z M213.2,91.6c0-0.5,0.1-0.9,0.1-1.2c0-0.3,0-0.8-0.1-1.2c0-0.4-0.1-0.8-0.1-1.2h0c-0.1-0.6-0.2-0.9-0.4-1
			c-0.2-0.2-0.7-0.3-1.5-0.3h-3c-0.8,0-1.3,0.1-1.5,0.3c-0.2,0.1-0.3,0.5-0.4,1h0c0,0.4-0.1,0.8-0.1,1.2c0,0.5-0.1,0.9-0.1,1.3
			c0,0.3,0,0.7,0.1,1.2c0,0.4,0.1,0.8,0.1,1.2h0c0.1,0.5,0.2,0.8,0.4,1c0.2,0.2,0.7,0.3,1.5,0.3h3c0.8,0,1.3-0.1,1.5-0.3
			c0.2-0.1,0.3-0.5,0.4-1h0C213.2,92.4,213.2,92,213.2,91.6L213.2,91.6z M245.6,85L245.6,85l0,0.1L245.6,85L245.6,85z M285.1,91.6
			c0-0.4,0-0.8,0-1.2c0-0.5,0-0.9,0-1.3c0-0.4-0.1-0.8-0.1-1.1l0-0.1c-0.1-0.5-0.2-0.9-0.3-1c-0.2-0.2-0.8-0.3-1.5-0.3h-2.9
			c-0.8,0-1.3,0.1-1.5,0.3c-0.2,0.1-0.3,0.5-0.3,1l0,0.1c0,0.3-0.1,0.7-0.1,1.1c0,0.3,0,0.8,0,1.3c0,0.5,0,0.9,0,1.2
			c0,0.4,0.1,0.8,0.1,1.1l0,0.1c0.1,0.5,0.2,0.9,0.3,1c0.2,0.2,0.8,0.3,1.6,0.3h2.9c0.8,0,1.3-0.1,1.6-0.3c0.2-0.1,0.3-0.5,0.3-1
			l0-0.1C285.1,92.4,285.1,92,285.1,91.6L285.1,91.6z"/>
		<path id="Salomon_type_1_" fill="#DED1B3" d="M131,85.1c0-1.5,0.9-2.5,6.3-2.5c3.6,0,7.3,0.1,11.8,1.5v-5.2
			c-2.3-0.7-5.9-1.3-11.7-1.3c-9.8,0-12.6,3-12.6,7.5c0,5.5,4.1,6.9,12.5,7.8c4.6,0.5,6.9,0.6,6.9,2.3c0,1.6-1.2,2.3-6.4,2.3
			c-3.7,0-8.1-0.4-12.2-1.9v5.5c4.3,1.1,7.8,1.5,12.3,1.5c7.4,0,12.6-1.5,12.6-7.6c0-5.8-4.2-6.6-12.3-7.4
			C134.3,87.3,131,87,131,85.1L131,85.1z M171.5,93.3L171.5,93.3c0,3.5-3,4.3-7.3,4.3c-5,0-6-0.9-6-2.4c0-1.5,1.6-1.8,5.7-2.4
			c3.3-0.4,6.8-1.3,7.7-2.1V93.3L171.5,93.3z M177,94.4L177,94.4v-8.7c0-7.2-6.3-8.2-12.2-8.2c-2.9,0-7.1,0.6-10.4,1.4v5.2
			c4.2-0.8,8-1.4,10.4-1.4c2.7,0,6.1,0.2,6.1,2.1c0,1.7-2.1,2.2-6.1,2.8c-7.4,1-12.7,1.9-12.7,7.6c0,5.9,4.6,7.5,12.7,7.5
			C173.8,102.8,177,99.6,177,94.4L177,94.4z M190.2,102.4L190.2,102.4c2,0,4.6-0.1,6.5-0.3l-0.8-4.9c-1.5,0.2-3.8,0.3-5.6,0.3
			c-3.2,0-5.3-1.3-5.3-3.7V77.8h-5.5v16.4C179.3,100.9,185.3,102.4,190.2,102.4L190.2,102.4L190.2,102.4z M216.8,90.3L216.8,90.3
			c0,1-0.1,2-0.2,2.9c-0.4,2.9-2.1,4.4-5.3,4.4h-3c-3.2,0-5-1.4-5.3-4.4c-0.1-0.9-0.2-1.8-0.2-2.9c0-1.1,0.1-2,0.2-2.9
			c0.4-3,2.1-4.4,5.3-4.4h3c3.2,0,5,1.4,5.3,4.4C216.7,88.3,216.8,89.3,216.8,90.3L216.8,90.3z M222,95.5L222,95.5
			c0.3-1.5,0.4-3.1,0.4-4.8v-0.4v-0.4c0-1.7-0.1-3.3-0.4-4.7c-0.7-5.1-4.3-7.6-10.8-7.6h-3c-6.5,0-10,2.5-10.8,7.6
			c-0.3,1.4-0.4,3-0.4,4.7v0.4v0.4c0,1.7,0.1,3.3,0.4,4.8c0.7,5,4.3,7.5,10.8,7.5h3C217.7,103,221.3,100.5,222,95.5L222,95.5z
			 M261.1,102.2L261.1,102.2h5.6V90.7c0-2-0.1-3.8-0.4-5.5c-0.7-5-4.3-7.5-10.8-7.5h-1.6c-3.8,0-6.6,0.8-8.4,2.5
			c-1.8-1.7-4.6-2.5-8.3-2.5h-1.6c-6.5,0-10,2.5-10.8,7.5c-0.3,1.7-0.4,3.6-0.4,5.5v11.5h5.6V90.7c0-1.2,0.1-2.2,0.2-3.3
			c0.4-2.9,2.1-4.4,5.3-4.4h1.6c3.2,0,5,1.4,5.3,4.4c0.1,1,0.2,2.1,0.2,3.3v11.5h5.6V90.7c0-1.2,0.1-2.2,0.2-3.3
			c0.4-2.9,2.1-4.4,5.3-4.4h1.6c3.2,0,5,1.4,5.3,4.4c0.2,1,0.2,2.1,0.2,3.3V102.2L261.1,102.2z M288.7,90.3L288.7,90.3
			c0,1-0.1,2-0.2,2.9c-0.4,2.9-2.1,4.4-5.3,4.4h-2.9c-3.2,0-5-1.4-5.3-4.4c-0.1-0.9-0.2-1.8-0.2-2.9c0-1.1,0.1-2,0.2-2.9
			c0.4-3,2.1-4.4,5.3-4.4h2.9c3.2,0,5,1.4,5.3,4.4C288.6,88.3,288.7,89.3,288.7,90.3L288.7,90.3z M293.9,95.5L293.9,95.5
			c0.2-1.5,0.4-3.1,0.4-4.8v-0.4v-0.4c0-1.7-0.1-3.3-0.4-4.7c-0.7-5.1-4.3-7.6-10.8-7.6h-2.9c-6.5,0-10.1,2.5-10.8,7.6
			c-0.2,1.4-0.4,3-0.4,4.7v0.4v0.4c0,1.7,0.1,3.3,0.4,4.8c0.7,5,4.3,7.5,10.8,7.5h2.9C289.6,103,293.2,100.5,293.9,95.5L293.9,95.5z
			 M321.2,102.1L321.2,102.1V90.7c0-2-0.1-3.8-0.4-5.5c-0.7-5.1-4.3-7.6-10.8-7.6h-2.6c-6.5,0-10.1,2.5-10.8,7.6
			c-0.3,1.7-0.4,3.5-0.4,5.5v11.4h5.6V90.7c0-1.2,0.1-2.3,0.2-3.3c0.4-3,2.1-4.4,5.3-4.4h2.6c3.2,0,5,1.4,5.3,4.4
			c0.1,1,0.2,2.1,0.2,3.3v11.4H321.2L321.2,102.1z"/>
		<path id="Salomon_S_border_1_" fill="#07311D" d="M371.9,64.2c2.1,0,4,0.9,5.4,2.3c1.4,1.4,2.3,3.3,2.3,5.4v36.6
			c0,2.1-0.9,4-2.3,5.4l0,0c-1.4,1.4-3.3,2.3-5.4,2.3h-36.6c-2.1,0-4-0.9-5.4-2.3l0,0c-1.4-1.4-2.3-3.3-2.3-5.4V71.9
			c0-2.1,0.9-4,2.3-5.4c1.4-1.4,3.3-2.3,5.4-2.3H371.9L371.9,64.2z"/>
		<path id="Salomon_S_1_" fill="#DED1B3" d="M371.9,67.7c2.3,0,4.2,1.9,4.2,4.2v36.6c0,2.3-1.9,4.2-4.2,4.2h-36.6
			c-2.3,0-4.2-1.9-4.2-4.2V71.9c0-2.3,1.9-4.2,4.2-4.2H371.9L371.9,67.7z M350.3,101.2L350.3,101.2c-0.4,0-1-0.2-1.6-0.5l-3.6-2
			c-0.5-0.3-1.1-0.5-1.6-0.5h-4.6c-0.5,0-0.8,0.4-0.8,0.8v4.7c0,0.9,0.8,1.6,1.6,1.7c9.2,0.9,18.4,0.9,27.6,0
			c0.9-0.1,1.7-0.8,1.7-1.7v-7.9c0-1.3-0.7-2.5-1.8-3.1l-18.7-10.5c-0.4-0.2-0.7-0.8-0.7-1.3c0-0.9,0.6-1.6,1.5-1.6h7.5
			c0.4,0,1,0.2,1.6,0.5l3.6,2c0.5,0.3,1.1,0.5,1.6,0.5h4.6c0.5,0,0.8-0.4,0.8-0.8v-4.7c0-0.9-0.8-1.6-1.6-1.7
			c-9.3-0.9-18.4-0.9-27.6,0c-0.9,0.1-1.7,0.8-1.7,1.7v7.9c0,1.3,0.7,2.5,1.8,3.1l18.7,10.5c0.4,0.2,0.7,0.8,0.7,1.3
			c0,0.9-0.6,1.6-1.5,1.6H350.3L350.3,101.2z"/>
	</g>
</g>
<g id="Coast_Mtn_1C_Logo">
</g>
</svg>
