<?xml version="1.0" encoding="utf-8"?>
<!-- Generator: Adobe Illustrator 21.0.2, SVG Export Plug-In . SVG Version: 6.00 Build 0)  -->
<svg version="1.1" id="DV_Horizontal_Logo" xmlns="http://www.w3.org/2000/svg" xmlns:xlink="http://www.w3.org/1999/xlink" x="0px"
	 y="0px" viewBox="0 0 400 110.5" style="enable-background:new 0 0 400 110.5;" xml:space="preserve">
<style type="text/css">
	.st0{fill:#FFFFFF;}
</style>
<g id="diez_vista_horizontal_1_">
	<g id="_x35_0k__x2B__100k_Trail_Run_6_">
		<path class="st0" d="M34.2,86.3h12.2v3.4h-9.4l-1.2,6l0.1,0.1c0.5-0.6,1.2-1,2-1.3c0.8-0.3,1.6-0.5,2.4-0.5c1.2,0,2.2,0.2,3.1,0.6
			c0.9,0.4,1.7,0.9,2.3,1.7c0.6,0.7,1.1,1.5,1.4,2.5c0.3,1,0.5,2,0.5,3.1c0,0.9-0.2,1.9-0.5,2.9c-0.3,1-0.8,1.9-1.5,2.7
			c-0.7,0.8-1.5,1.5-2.5,2c-1,0.5-2.3,0.8-3.7,0.8c-1.1,0-2.2-0.2-3.2-0.5c-1-0.3-1.8-0.8-2.6-1.4c-0.7-0.6-1.3-1.4-1.8-2.2
			c-0.4-0.9-0.7-1.9-0.7-3.1h3.8c0.1,1.3,0.6,2.3,1.3,3c0.8,0.7,1.8,1,3,1c0.8,0,1.5-0.1,2.1-0.4c0.6-0.3,1-0.6,1.4-1.1
			c0.3-0.5,0.6-1,0.7-1.7c0.1-0.6,0.2-1.3,0.2-2c0-0.7-0.1-1.3-0.3-1.9c-0.2-0.6-0.5-1.1-0.8-1.6c-0.4-0.4-0.8-0.8-1.4-1.1
			c-0.6-0.3-1.2-0.4-2-0.4c-0.8,0-1.6,0.2-2.3,0.5c-0.7,0.3-1.2,0.9-1.5,1.7h-3.8L34.2,86.3z"/>
		<path class="st0" d="M58.1,85.8c1.7,0,3.1,0.4,4.1,1.2c1.1,0.8,1.9,1.8,2.5,3c0.6,1.2,1,2.5,1.2,4c0.2,1.4,0.3,2.8,0.3,4.2
			c0,1.4-0.1,2.7-0.3,4.2c-0.2,1.4-0.6,2.8-1.2,4c-0.6,1.2-1.4,2.2-2.5,3c-1.1,0.8-2.4,1.2-4.1,1.2c-1.7,0-3.1-0.4-4.1-1.2
			c-1.1-0.8-1.9-1.8-2.5-3c-0.6-1.2-1-2.5-1.2-4c-0.2-1.4-0.3-2.8-0.3-4.2c0-1.3,0.1-2.7,0.3-4.2s0.6-2.8,1.2-4
			c0.6-1.2,1.4-2.2,2.5-3C55,86.2,56.4,85.8,58.1,85.8z M58.1,107.2c0.8,0,1.5-0.2,2.1-0.7c0.6-0.5,1-1.1,1.3-2
			c0.3-0.8,0.6-1.8,0.7-2.9s0.2-2.3,0.2-3.5c0-1.2-0.1-2.4-0.2-3.5s-0.4-2.1-0.7-2.9c-0.3-0.8-0.8-1.5-1.3-2S58.9,89,58.1,89
			c-0.9,0-1.6,0.2-2.1,0.7s-1,1.1-1.3,2c-0.3,0.8-0.6,1.8-0.7,2.9c-0.1,1.1-0.2,2.3-0.2,3.5c0,1.2,0.1,2.4,0.2,3.5
			c0.1,1.1,0.4,2.1,0.7,2.9c0.3,0.8,0.8,1.5,1.3,2C56.5,107,57.2,107.2,58.1,107.2z"/>
		<path class="st0" d="M100.8,90.5h3.4v6.8h6.8v3.4h-6.8v6.8h-3.4v-6.8H94v-3.4h6.8V90.5z"/>
		<path class="st0" d="M117.9,90.2c0.8,0,2.7-0.6,3.3-0.9c0.6-0.3,1.1-0.7,1.6-1.2c0.4-0.5,0.7-1.1,0.9-1.8h3.1v23.6h-4.2V93.3h-4.6
			V90.2z"/>
		<path class="st0" d="M140.3,85.8c1.7,0,3.1,0.4,4.1,1.2s1.9,1.8,2.5,3c0.6,1.2,1,2.5,1.2,4c0.2,1.4,0.3,2.8,0.3,4.2
			c0,1.4-0.1,2.7-0.3,4.2c-0.2,1.4-0.6,2.8-1.2,4c-0.6,1.2-1.4,2.2-2.5,3s-2.4,1.2-4.1,1.2c-1.7,0-3.1-0.4-4.1-1.2
			c-1.1-0.8-1.9-1.8-2.5-3c-0.6-1.2-1-2.5-1.2-4c-0.2-1.4-0.3-2.8-0.3-4.2c0-1.3,0.1-2.7,0.3-4.2s0.6-2.8,1.2-4
			c0.6-1.2,1.4-2.2,2.5-3C137.2,86.2,138.6,85.8,140.3,85.8z M140.3,107.2c0.8,0,1.5-0.2,2.1-0.7c0.6-0.5,1-1.1,1.3-2
			c0.3-0.8,0.6-1.8,0.7-2.9c0.1-1.1,0.2-2.3,0.2-3.5c0-1.2-0.1-2.4-0.2-3.5c-0.1-1.1-0.4-2.1-0.7-2.9c-0.3-0.8-0.8-1.5-1.3-2
			c-0.6-0.5-1.3-0.7-2.1-0.7c-0.9,0-1.6,0.2-2.1,0.7s-1,1.1-1.3,2c-0.3,0.8-0.6,1.8-0.7,2.9c-0.1,1.1-0.2,2.3-0.2,3.5
			c0,1.2,0.1,2.4,0.2,3.5c0.1,1.1,0.4,2.1,0.7,2.9c0.3,0.8,0.8,1.5,1.3,2C138.8,107,139.5,107.2,140.3,107.2z"/>
		<path class="st0" d="M158.9,85.8c1.7,0,3.1,0.4,4.1,1.2c1.1,0.8,1.9,1.8,2.5,3c0.6,1.2,1,2.5,1.2,4c0.2,1.4,0.3,2.8,0.3,4.2
			c0,1.4-0.1,2.7-0.3,4.2c-0.2,1.4-0.6,2.8-1.2,4c-0.6,1.2-1.4,2.2-2.5,3c-1.1,0.8-2.4,1.2-4.1,1.2c-1.7,0-3.1-0.4-4.1-1.2
			c-1.1-0.8-1.9-1.8-2.5-3c-0.6-1.2-1-2.5-1.2-4c-0.2-1.4-0.3-2.8-0.3-4.2c0-1.3,0.1-2.7,0.3-4.2c0.2-1.4,0.6-2.8,1.2-4
			c0.6-1.2,1.4-2.2,2.5-3C155.8,86.2,157.2,85.8,158.9,85.8z M158.9,107.2c0.8,0,1.5-0.2,2.1-0.7c0.6-0.5,1-1.1,1.3-2
			c0.3-0.8,0.6-1.8,0.7-2.9c0.1-1.1,0.2-2.3,0.2-3.5c0-1.2-0.1-2.4-0.2-3.5c-0.1-1.1-0.4-2.1-0.7-2.9c-0.3-0.8-0.8-1.5-1.3-2
			c-0.6-0.5-1.3-0.7-2.1-0.7c-0.9,0-1.6,0.2-2.1,0.7c-0.6,0.5-1,1.1-1.3,2c-0.3,0.8-0.6,1.8-0.7,2.9c-0.1,1.1-0.2,2.3-0.2,3.5
			c0,1.2,0.1,2.4,0.2,3.5c0.1,1.1,0.4,2.1,0.7,2.9c0.3,0.8,0.8,1.5,1.3,2C157.4,107,158.1,107.2,158.9,107.2z"/>
		<path class="st0" d="M197.4,85.8h19.5v3.6h-7.7v20.5H205V89.5h-7.6V85.8z"/>
		<path class="st0" d="M219.5,85.8H231c2.7,0,4.6,0.6,6,1.7c1.3,1.1,2,2.7,2,4.8c0,1.1-0.2,2.1-0.5,2.9c-0.3,0.8-0.7,1.4-1.2,1.8
			c-0.5,0.5-0.9,0.8-1.3,1c-0.4,0.2-0.8,0.3-1,0.4v0.1c0.4,0,0.7,0.2,1.2,0.3c0.4,0.2,0.8,0.5,1.2,0.9c0.4,0.4,0.7,0.9,0.9,1.5
			c0.2,0.6,0.4,1.4,0.4,2.4c0,1.4,0.1,2.7,0.3,3.9c0.2,1.2,0.5,2,1,2.5h-4.5c-0.3-0.5-0.5-1.1-0.6-1.7c-0.1-0.6-0.1-1.2-0.1-1.8
			c0-1.1-0.1-2.1-0.2-2.9c-0.1-0.8-0.4-1.5-0.7-2c-0.4-0.5-0.8-0.9-1.5-1.2c-0.6-0.2-1.4-0.4-2.4-0.4h-6.2v9.9h-4.2V85.8z
			 M223.7,96.8h6.9c1.3,0,2.4-0.3,3.1-1c0.7-0.6,1-1.6,1-2.9c0-0.8-0.1-1.4-0.3-1.9c-0.2-0.5-0.5-0.9-0.9-1.1
			c-0.4-0.3-0.8-0.5-1.4-0.5c-0.5-0.1-1-0.1-1.6-0.1h-6.9V96.8z"/>
		<path class="st0" d="M249.5,85.8h4.5l9.3,24.1h-4.5l-2.3-6.4h-9.6l-2.3,6.4h-4.4L249.5,85.8z M248.1,100.3h7.4L251.8,90h-0.1
			L248.1,100.3z"/>
		<path class="st0" d="M265.4,85.8h4.2v24.1h-4.2V85.8z"/>
		<path class="st0" d="M274.7,85.8h4.2v20.5h12.3v3.6h-16.5V85.8z"/>
		<path class="st0" d="M301.6,85.8h11.5c2.7,0,4.6,0.6,6,1.7c1.3,1.1,2,2.7,2,4.8c0,1.1-0.2,2.1-0.5,2.9c-0.3,0.8-0.7,1.4-1.2,1.8
			c-0.5,0.5-0.9,0.8-1.3,1c-0.4,0.2-0.8,0.3-1,0.4v0.1c0.4,0,0.7,0.2,1.2,0.3c0.4,0.2,0.8,0.5,1.2,0.9c0.4,0.4,0.7,0.9,0.9,1.5
			c0.2,0.6,0.4,1.4,0.4,2.4c0,1.4,0.1,2.7,0.3,3.9c0.2,1.2,0.5,2,1,2.5h-4.5c-0.3-0.5-0.5-1.1-0.6-1.7c-0.1-0.6-0.1-1.2-0.1-1.8
			c0-1.1-0.1-2.1-0.2-2.9c-0.1-0.8-0.4-1.5-0.7-2c-0.4-0.5-0.8-0.9-1.5-1.2c-0.6-0.2-1.4-0.4-2.4-0.4h-6.2v9.9h-4.2V85.8z
			 M305.8,96.8h6.9c1.3,0,2.4-0.3,3.1-1c0.7-0.6,1-1.6,1-2.9c0-0.8-0.1-1.4-0.3-1.9c-0.2-0.5-0.5-0.9-0.9-1.1
			c-0.4-0.3-0.8-0.5-1.4-0.5c-0.5-0.1-1-0.1-1.6-0.1h-6.9V96.8z"/>
		<path class="st0" d="M324.9,85.8h4.2v14c0,0.8,0,1.6,0.1,2.5c0.1,0.8,0.3,1.6,0.7,2.2c0.4,0.7,0.9,1.2,1.7,1.6
			c0.8,0.4,1.8,0.6,3.2,0.6s2.4-0.2,3.2-0.6c0.8-0.4,1.3-1,1.7-1.6c0.4-0.7,0.6-1.4,0.7-2.2c0.1-0.8,0.1-1.7,0.1-2.5v-14h4.2v15.4
			c0,1.6-0.2,2.9-0.7,4.1c-0.5,1.1-1.1,2.1-2,2.9c-0.9,0.8-1.9,1.4-3.1,1.7c-1.2,0.4-2.6,0.6-4.1,0.6c-1.5,0-2.8-0.2-4.1-0.6
			s-2.3-1-3.1-1.7s-1.5-1.7-2-2.9c-0.5-1.1-0.7-2.5-0.7-4.1V85.8z"/>
		<path class="st0" d="M349.2,85.8h4.5l11,17.8h0.1V85.8h4v24.1h-4.5l-11-17.7h-0.1v17.7h-4V85.8z"/>
		<polygon class="st0" points="89,109.9 78.7,97.1 88.3,85.8 83.1,85.8 74,96.7 74,85.8 69.8,85.8 69.8,109.9 74,109.9 74,97.4 
			83.7,109.9 		"/>
		<polygon class="st0" points="189.9,109.9 179.6,97.1 189.2,85.8 184,85.8 174.9,96.7 174.9,85.8 170.7,85.8 170.7,109.9 
			174.9,109.9 174.9,97.4 184.6,109.9 		"/>
	</g>
	<path id="vista_6_" class="st0" d="M205.4,72.5l-18.8-55h15.9L214,55h0.2l11.6-37.6h15l-18.6,55H205.4z M259,17.5v55h-15.1v-55H259
		z M278.1,59c0.7,1.2,1.5,2.1,2.6,2.9c1.1,0.7,2.3,1.3,3.7,1.6c1.4,0.4,2.8,0.5,4.3,0.5c1.1,0,2.2-0.1,3.4-0.4
		c1.2-0.2,2.2-0.6,3.2-1.2c1-0.5,1.8-1.2,2.4-2.1c0.6-0.9,1-2,1-3.4c0-2.3-1.5-4-4.5-5.1c-3-1.1-7.2-2.3-12.6-3.4
		c-2.2-0.5-4.3-1.1-6.4-1.8c-2.1-0.7-4-1.6-5.6-2.7c-1.6-1.1-2.9-2.5-3.9-4.1c-1-1.7-1.5-3.7-1.5-6.1c0-3.5,0.7-6.5,2.1-8.7
		c1.4-2.3,3.2-4.1,5.5-5.4c2.3-1.3,4.8-2.2,7.7-2.8c2.8-0.5,5.7-0.8,8.7-0.8c3,0,5.9,0.3,8.7,0.9c2.8,0.6,5.3,1.5,7.5,2.9
		c2.2,1.4,4,3.1,5.5,5.4s2.3,5.1,2.6,8.5h-14.4c-0.2-2.9-1.3-4.9-3.3-5.9c-2-1-4.3-1.5-7-1.5c-0.9,0-1.8,0.1-2.8,0.2
		c-1,0.1-1.9,0.3-2.7,0.7c-0.8,0.4-1.5,0.9-2.1,1.5s-0.9,1.6-0.9,2.7c0,1.3,0.5,2.4,1.5,3.3c1,0.9,2.3,1.5,3.9,2.1
		c1.6,0.5,3.4,1,5.5,1.4c2.1,0.4,4.2,0.9,6.3,1.4c2.2,0.5,4.3,1.1,6.4,1.8c2.1,0.7,4,1.6,5.6,2.8c1.6,1.2,2.9,2.6,3.9,4.4
		c1,1.7,1.5,3.9,1.5,6.4c0,3.6-0.7,6.6-2.2,9.1c-1.5,2.4-3.4,4.4-5.7,5.9c-2.3,1.5-5,2.5-8,3.1c-3,0.6-6.1,0.9-9.2,0.9
		c-3.2,0-6.3-0.3-9.4-1c-3.1-0.6-5.8-1.7-8.1-3.2s-4.3-3.5-5.9-5.9c-1.5-2.4-2.4-5.5-2.5-9.2h14.4C277.1,56.4,277.4,57.8,278.1,59z
		 M355.1,17.5h-13.4h-15.1h-13.4v11.4h13.4v43.6h15.1V28.8h13.4V17.5z M381.2,17.5l18.8,55h-15.9l-11.6-37.6h-0.2l-11.6,37.6h-15
		l18.6-55H381.2z"/>
	<path id="diez_2_" class="st0" d="M41.1,65c-1.8,3-4.1,5.1-6.9,6.4c-2.9,1.3-6.1,2-9.7,2c-4.1,0-7.7-0.8-10.8-2.4
		c-3.1-1.6-5.7-3.7-7.7-6.4c-2-2.7-3.5-5.8-4.5-9.4C0.5,51.7,0,48,0,44.2c0-3.7,0.5-7.2,1.5-10.6c1-3.4,2.5-6.4,4.5-9
		c2-2.6,4.5-4.7,7.6-6.3c3-1.6,6.5-2.4,10.6-2.4c3.2,0,6.3,0.7,9.2,2.1c2.9,1.4,5.2,3.4,6.9,6.1h0.2V0h15v72H41.3v-7H41.1z M40.5,38
		c-0.4-2.1-1.1-3.9-2.2-5.5c-1-1.6-2.3-2.9-4-3.9c-1.6-1-3.7-1.5-6.1-1.5c-2.5,0-4.5,0.5-6.2,1.5c-1.7,1-3,2.3-4.1,3.9
		c-1,1.6-1.8,3.5-2.2,5.5c-0.5,2.1-0.7,4.2-0.7,6.5c0,2.1,0.2,4.2,0.7,6.3c0.5,2.1,1.3,4,2.4,5.7s2.5,3,4.1,4c1.7,1,3.6,1.5,6,1.5
		c2.5,0,4.5-0.5,6.2-1.5c1.7-1,3-2.3,4-4c1-1.7,1.7-3.5,2.1-5.7c0.4-2.1,0.6-4.3,0.6-6.6C41.1,42.3,40.9,40.1,40.5,38z M62,12.4V0
		h15v12.4H62z M77,17.4V72H62V17.4H77z M100.1,59c2.2,2.2,5.5,3.3,9.7,3.3c3,0,5.6-0.7,7.8-2.3c2.2-1.5,3.5-3.1,4-4.8h13.1
		c-2.1,6.5-5.3,11.2-9.7,14c-4.3,2.8-9.6,4.2-15.8,4.2c-4.3,0-8.1-0.7-11.6-2C94.3,70,91.3,68,89,65.5c-2.4-2.5-4.2-5.5-5.5-9
		c-1.3-3.5-1.9-7.4-1.9-11.6c0-4.1,0.7-7.8,2-11.3c1.3-3.5,3.2-6.5,5.7-9.1c2.5-2.6,5.4-4.6,8.8-6c3.4-1.5,7.2-2.2,11.3-2.2
		c4.6,0,8.7,0.9,12.1,2.7c3.4,1.8,6.3,4.2,8.5,7.2c2.2,3,3.8,6.4,4.8,10.3c1,3.9,1.3,7.9,1,12.1H96.4C96.6,53.3,97.9,56.8,100.1,59z
		 M117,30.4c-1.8-2-4.5-2.9-8.1-2.9c-2.4,0-4.4,0.4-5.9,1.2c-1.6,0.8-2.8,1.8-3.8,3s-1.6,2.5-2,3.8c-0.4,1.3-0.6,2.5-0.7,3.6h24.3
		C120,35.2,118.8,32.3,117,30.4z M164,28.7h-26.3V17.4h46.1v11.3l-28.4,32h30.4V72h-50.2V60.7L164,28.7z"/>
</g>
</svg>
