<?xml version="1.0" encoding="utf-8"?>
<!-- Generator: Adobe Illustrator 21.0.2, SVG Export Plug-In . SVG Version: 6.00 Build 0)  -->
<svg version="1.1" id="DV_Diamond_Logo" xmlns="http://www.w3.org/2000/svg" xmlns:xlink="http://www.w3.org/1999/xlink" x="0px"
	 y="0px" viewBox="0 0 287.3 246.7" style="enable-background:new 0 0 287.3 246.7;" xml:space="preserve">
<style type="text/css">
	.st0{fill:#3FAE49;}
	.st1{fill:#0076BC;}
</style>
<g id="DV_Diamond_logo_-_no_back">
	<g>
		<path class="st0" d="M33.7,88.3c-0.1,1-0.1,2-0.1,3.1c0,4.4,0.6,8.6,1.8,12.7c1.2,4.1,2.9,7.7,5.2,10.8c2.2,3,5,5.4,8.4,7.2H0
			L33.7,88.3z M81.2,115.4h-0.2c-1.7,2.9-3.9,5.1-6.5,6.6h6.8V115.4z M157.8,72.1c-2.7,0-5,0.5-6.8,1.4c-1.8,0.9-3.3,2.1-4.4,3.5
			c-1.1,1.4-1.9,2.8-2.3,4.4c-0.4,1.5-0.7,2.9-0.8,4.1h28c-0.8-4.4-2.2-7.7-4.3-9.9C165.2,73.2,162,72.1,157.8,72.1z M81.6,40.4
			l40.3-40.3l21.7,21.7L165.4,0l60.4,60.4h-34.7v13h30.3l-32.8,36.9V122h-15.5c1.2-0.5,2.3-1.1,3.4-1.8c5-3.2,8.7-8.6,11.1-16.1
			h-15.1c-0.6,1.9-2.1,3.8-4.6,5.5c-2.5,1.7-5.5,2.6-9,2.6c-4.8,0-8.6-1.2-11.1-3.8c-2.6-2.5-4-6.5-4.2-12.1h45.2
			c0.3-4.8-0.1-9.5-1.2-13.9c-1.1-4.4-3-8.4-5.5-11.9c-2.5-3.5-5.8-6.2-9.7-8.3c-4-2.1-8.6-3.1-13.9-3.1c-4.8,0-9.1,0.8-13,2.5
			c-3.9,1.7-7.3,4-10.1,7c-2.8,3-5,6.4-6.5,10.5c-1.5,4-2.3,8.4-2.3,13.1c0,4.8,0.7,9.3,2.2,13.3c1.5,4,3.6,7.5,6.4,10.4
			c2.4,2.5,5.3,4.6,8.6,6.1h-21.2V60.4h-17.3V122h-7.4V40.4H81.6z M105.1,54.7h17.3V40.4h-17.3V54.7z M287.3,122l-45.7-45.7
			l-30.2,34.1h35.1V122H287.3z M54.5,105.7c1.3,1.9,2.8,3.5,4.8,4.6c1.9,1.2,4.2,1.8,6.9,1.8c2.8,0,5.2-0.6,7.1-1.7
			c1.9-1.1,3.4-2.7,4.6-4.6c1.1-1.9,1.9-4.1,2.4-6.5c0.5-2.4,0.7-5,0.7-7.6c0-2.6-0.2-5.1-0.7-7.5c-0.5-2.4-1.3-4.5-2.5-6.3
			c-1.2-1.8-2.7-3.3-4.6-4.4c-1.9-1.1-4.2-1.7-7.1-1.7c-2.8,0-5.2,0.6-7.2,1.7s-3.5,2.6-4.7,4.5c-1.2,1.9-2,4-2.6,6.4
			c-0.5,2.4-0.8,4.9-0.8,7.5c0,2.4,0.3,4.9,0.9,7.3C52.3,101.6,53.2,103.8,54.5,105.7z M72.1,61.1c3.4,1.6,6,3.9,8,7h0.2V41.6
			L63.2,58.8C66.3,59,69.3,59.8,72.1,61.1z M129.8,51.1h-1.2c0,0.5,0.1,0.9,0.3,1.2s0.4,0.6,0.7,0.8s0.6,0.3,1,0.4s0.8,0.1,1.2,0.1
			c0.4,0,0.8,0,1.1-0.1c0.4-0.1,0.7-0.2,1-0.4c0.3-0.2,0.5-0.4,0.7-0.7c0.2-0.3,0.3-0.7,0.3-1.1c0-0.4-0.1-0.7-0.2-0.9
			s-0.3-0.4-0.5-0.6c-0.2-0.2-0.5-0.3-0.8-0.4s-0.6-0.2-0.9-0.2c-0.3-0.1-0.6-0.1-0.9-0.2s-0.5-0.1-0.8-0.2s-0.4-0.2-0.6-0.3
			s-0.2-0.3-0.2-0.5c0-0.2,0-0.3,0.1-0.5c0.1-0.1,0.2-0.2,0.4-0.3c0.2-0.1,0.3-0.1,0.5-0.2c0.2,0,0.4,0,0.6,0c0.2,0,0.4,0,0.6,0.1
			c0.2,0,0.4,0.1,0.5,0.2c0.2,0.1,0.3,0.2,0.4,0.4c0.1,0.2,0.2,0.4,0.2,0.6h1.2c0-0.5-0.1-0.8-0.3-1.1c-0.2-0.3-0.4-0.5-0.7-0.7
			c-0.3-0.2-0.6-0.3-0.9-0.4c-0.4-0.1-0.7-0.1-1.2-0.1c-0.3,0-0.7,0-1,0.1c-0.3,0.1-0.6,0.2-0.9,0.4c-0.3,0.2-0.5,0.4-0.6,0.7
			c-0.2,0.3-0.3,0.6-0.3,1c0,0.5,0.1,0.9,0.4,1.1c0.2,0.3,0.5,0.5,0.9,0.6c0.4,0.1,0.8,0.3,1.2,0.3c0.4,0.1,0.8,0.2,1.2,0.3
			c0.4,0.1,0.7,0.2,0.9,0.4c0.2,0.2,0.4,0.4,0.4,0.7c0,0.2-0.1,0.4-0.2,0.6c-0.1,0.1-0.3,0.3-0.4,0.3c-0.2,0.1-0.4,0.1-0.6,0.2
			s-0.4,0-0.6,0c-0.2,0-0.5,0-0.7-0.1c-0.2,0-0.4-0.1-0.6-0.2c-0.2-0.1-0.3-0.3-0.5-0.4C129.9,51.6,129.8,51.4,129.8,51.1z
			 M137.6,44.7v-1.5h-1.2v1.5H137.6z M136.3,46v7.4h1.2V46H136.3z M139.5,46v7.4h1.2v-4.2c0-0.3,0-0.6,0.1-0.9
			c0.1-0.3,0.2-0.5,0.4-0.7c0.2-0.2,0.4-0.4,0.7-0.5c0.3-0.1,0.6-0.2,1-0.2c0.5,0,0.8,0.1,1.1,0.4c0.3,0.3,0.4,0.6,0.4,1.1v5h1.2
			v-4.9c0-0.4,0-0.8-0.1-1.1c-0.1-0.3-0.2-0.6-0.4-0.9c-0.2-0.2-0.5-0.4-0.8-0.6c-0.3-0.1-0.7-0.2-1.2-0.2c-1.1,0-1.9,0.5-2.4,1.4h0
			V46H139.5z M152.5,48.4h1.3c0-0.4-0.2-0.8-0.3-1.1c-0.2-0.3-0.4-0.6-0.7-0.8c-0.3-0.2-0.6-0.4-1-0.5c-0.4-0.1-0.8-0.2-1.2-0.2
			c-0.6,0-1.1,0.1-1.5,0.3c-0.4,0.2-0.8,0.5-1.1,0.9c-0.3,0.4-0.5,0.8-0.7,1.3s-0.2,1-0.2,1.6c0,0.6,0.1,1.1,0.2,1.5
			s0.4,0.9,0.7,1.2c0.3,0.3,0.7,0.6,1.1,0.8s0.9,0.3,1.5,0.3c1,0,1.7-0.2,2.3-0.7c0.6-0.5,0.9-1.2,1-2.1h-1.3
			c-0.1,0.6-0.3,1-0.6,1.3s-0.8,0.5-1.4,0.5c-0.4,0-0.7-0.1-1-0.2c-0.3-0.2-0.5-0.4-0.7-0.6s-0.3-0.5-0.4-0.9
			c-0.1-0.3-0.1-0.7-0.1-1c0-0.4,0-0.7,0.1-1.1c0.1-0.4,0.2-0.7,0.4-0.9c0.2-0.3,0.4-0.5,0.7-0.6c0.3-0.2,0.7-0.2,1.1-0.2
			c0.5,0,0.9,0.1,1.2,0.4S152.4,47.9,152.5,48.4z M161.6,51.1h-1.2c-0.1,0.5-0.3,0.9-0.7,1.1c-0.3,0.2-0.8,0.4-1.3,0.4
			c-0.4,0-0.8-0.1-1.1-0.2c-0.3-0.1-0.5-0.3-0.7-0.5c-0.2-0.2-0.3-0.5-0.4-0.8c-0.1-0.3-0.1-0.6-0.1-0.9h5.6c0-0.5,0-0.9-0.1-1.4
			c-0.1-0.5-0.3-1-0.5-1.4c-0.3-0.4-0.6-0.8-1.1-1c-0.4-0.3-1-0.4-1.6-0.4c-0.5,0-1,0.1-1.4,0.3c-0.4,0.2-0.8,0.5-1.1,0.8
			c-0.3,0.3-0.6,0.8-0.7,1.2c-0.2,0.5-0.3,1-0.3,1.6c0,0.6,0.1,1.1,0.3,1.6c0.1,0.5,0.4,0.9,0.7,1.2c0.3,0.3,0.7,0.6,1.1,0.8
			c0.4,0.2,1,0.3,1.5,0.3c0.8,0,1.5-0.2,2.1-0.6C161,52.6,161.4,51.9,161.6,51.1z M160.2,48.2c-0.1-0.3-0.3-0.5-0.4-0.7
			c-0.2-0.2-0.4-0.3-0.7-0.4s-0.5-0.2-0.8-0.2c-0.3,0-0.6,0.1-0.9,0.2c-0.3,0.1-0.5,0.3-0.7,0.5c-0.2,0.2-0.3,0.4-0.4,0.7
			c-0.1,0.3-0.2,0.5-0.2,0.8h4.3C160.4,48.7,160.3,48.5,160.2,48.2z M171.2,53.5V43.2h-0.9c-0.1,0.4-0.2,0.7-0.4,1
			c-0.2,0.2-0.4,0.4-0.7,0.6c-0.3,0.1-0.6,0.2-0.9,0.3c-0.3,0.1-0.4,0.1-0.7,0.1v1h2.3v7.3H171.2z M176,51h-1.2c0.1,0.9,0.4,1.5,1,2
			c0.6,0.4,1.3,0.6,2.1,0.6c1.2,0,2.1-0.5,2.7-1.4c0.6-0.9,0.8-2.3,0.8-4.1c0-1-0.1-1.8-0.3-2.4c-0.2-0.6-0.4-1.1-0.8-1.5
			c-0.3-0.4-0.7-0.6-1.1-0.8c-0.4-0.1-0.9-0.2-1.4-0.2c-0.5,0-0.9,0.1-1.4,0.2c-0.4,0.2-0.8,0.4-1.1,0.7c-0.3,0.3-0.5,0.6-0.7,1.1
			c-0.2,0.4-0.2,0.9-0.2,1.3c0,0.5,0.1,1,0.2,1.4c0.1,0.4,0.3,0.8,0.6,1.1c0.3,0.3,0.6,0.5,1,0.7c0.4,0.2,0.9,0.3,1.4,0.3
			c0.5,0,1-0.1,1.4-0.4c0.4-0.3,0.7-0.6,1-1l0,0c0,1.3-0.2,2.3-0.6,3c-0.4,0.6-0.9,1-1.7,1c-0.5,0-0.9-0.1-1.3-0.4
			C176.2,51.9,176,51.5,176,51z M179.8,45.8c-0.1-0.3-0.2-0.5-0.4-0.7c-0.2-0.2-0.4-0.4-0.7-0.5c-0.3-0.1-0.6-0.2-0.9-0.2
			c-0.4,0-0.7,0.1-0.9,0.2c-0.3,0.1-0.5,0.3-0.6,0.5c-0.2,0.2-0.3,0.5-0.3,0.8c-0.1,0.3-0.1,0.6-0.1,0.9c0,0.3,0.1,0.5,0.2,0.8
			c0.1,0.3,0.2,0.5,0.4,0.7s0.4,0.4,0.6,0.5c0.2,0.1,0.5,0.2,0.8,0.2c0.3,0,0.6-0.1,0.9-0.2s0.5-0.3,0.7-0.5
			c0.2-0.2,0.3-0.4,0.4-0.7c0.1-0.3,0.1-0.6,0.1-0.9C179.9,46.3,179.9,46,179.8,45.8z M184,51h-1.2c0.1,0.9,0.4,1.5,1,2
			c0.6,0.4,1.3,0.6,2.1,0.6c1.2,0,2.1-0.5,2.7-1.4c0.6-0.9,0.8-2.3,0.8-4.1c0-1-0.1-1.8-0.3-2.4c-0.2-0.6-0.4-1.1-0.8-1.5
			c-0.3-0.4-0.7-0.6-1.1-0.8c-0.4-0.1-0.9-0.2-1.4-0.2c-0.5,0-0.9,0.1-1.4,0.2c-0.4,0.2-0.8,0.4-1.1,0.7c-0.3,0.3-0.5,0.6-0.7,1.1
			c-0.2,0.4-0.2,0.9-0.2,1.3c0,0.5,0.1,1,0.2,1.4c0.1,0.4,0.3,0.8,0.6,1.1c0.3,0.3,0.6,0.5,1,0.7c0.4,0.2,0.9,0.3,1.4,0.3
			c0.5,0,1-0.1,1.4-0.4c0.4-0.3,0.7-0.6,1-1l0,0c0,1.3-0.2,2.3-0.6,3c-0.4,0.6-0.9,1-1.7,1c-0.5,0-0.9-0.1-1.3-0.4
			C184.2,51.9,184,51.5,184,51z M187.8,45.8c-0.1-0.3-0.2-0.5-0.4-0.7c-0.2-0.2-0.4-0.4-0.7-0.5c-0.3-0.1-0.6-0.2-0.9-0.2
			c-0.4,0-0.7,0.1-0.9,0.2c-0.3,0.1-0.5,0.3-0.6,0.5c-0.2,0.2-0.3,0.5-0.3,0.8c-0.1,0.3-0.1,0.6-0.1,0.9c0,0.3,0.1,0.5,0.2,0.8
			c0.1,0.3,0.2,0.5,0.4,0.7s0.4,0.4,0.6,0.5c0.2,0.1,0.5,0.2,0.8,0.2c0.3,0,0.6-0.1,0.9-0.2s0.5-0.3,0.7-0.5
			c0.2-0.2,0.3-0.4,0.4-0.7c0.1-0.3,0.1-0.6,0.1-0.9C187.9,46.3,187.9,46,187.8,45.8z M197.4,44.5v-1.1h-6.6v1.2h5.4
			c-0.5,0.6-1,1.2-1.5,1.9c-0.5,0.7-0.9,1.4-1.2,2.1c-0.4,0.8-0.6,1.5-0.9,2.4c-0.2,0.8-0.4,1.7-0.4,2.5h1.4c0-0.8,0.2-1.6,0.4-2.5
			c0.2-0.8,0.5-1.7,0.9-2.5c0.4-0.8,0.8-1.5,1.2-2.2C196.4,45.6,196.9,45,197.4,44.5z"/>
		<path class="st1" d="M165.4,246.7L143.7,225l-21.7,21.7l-62.5-62.5h12.8l19.2-56.6H76l-11.9,38.6h-0.2l-11.9-38.6H35.6l17,49.8
			L0,124.8h287.3l-39.1,39.1l-12.4-36.2h-17.3l-19.2,56.6h15.4l11.9-38.6h0.2l9.3,30.2L165.4,246.7z M110.1,127.7H94.6v56.6h15.5
			V127.7z M166.4,166.3c0-2.6-0.5-4.8-1.5-6.6c-1-1.8-2.4-3.3-4.1-4.5s-3.6-2.2-5.7-2.9c-2.2-0.7-4.4-1.3-6.6-1.9
			c-2.2-0.5-4.3-1-6.5-1.4c-2.1-0.4-4-0.9-5.6-1.5c-1.6-0.5-3-1.3-4-2.1c-1-0.9-1.5-2-1.5-3.4c0-1.2,0.3-2.1,0.9-2.8
			c0.6-0.7,1.3-1.2,2.1-1.6c0.8-0.4,1.8-0.6,2.8-0.7c1-0.1,2-0.2,2.8-0.2c2.8,0,5.2,0.5,7.2,1.6c2,1.1,3.2,3.1,3.4,6.1h14.8
			c-0.3-3.5-1.2-6.4-2.7-8.7c-1.5-2.3-3.4-4.1-5.6-5.5c-2.3-1.4-4.8-2.4-7.7-3c-2.9-0.6-5.9-0.9-8.9-0.9c-3.1,0-6.1,0.3-9,0.8
			c-2.9,0.5-5.5,1.5-7.9,2.8c-2.3,1.4-4.2,3.2-5.6,5.5c-1.4,2.3-2.1,5.3-2.1,9c0,2.5,0.5,4.6,1.5,6.3c1,1.7,2.4,3.1,4,4.3
			c1.7,1.1,3.6,2,5.7,2.7c2.2,0.7,4.4,1.3,6.6,1.8c5.5,1.2,9.9,2.3,13,3.5c3.1,1.2,4.7,2.9,4.7,5.2c0,1.4-0.3,2.5-1,3.4
			c-0.7,0.9-1.5,1.6-2.5,2.2c-1,0.5-2.1,0.9-3.3,1.2c-1.2,0.3-2.4,0.4-3.4,0.4c-1.5,0-3-0.2-4.4-0.5c-1.4-0.4-2.7-0.9-3.8-1.7
			s-2-1.8-2.7-3c-0.7-1.2-1-2.6-1-4.3H114c0.1,3.8,1,7,2.6,9.5c1.6,2.5,3.6,4.5,6,6.1s5.2,2.6,8.4,3.3c3.1,0.7,6.3,1,9.6,1
			c3.2,0,6.4-0.3,9.5-0.9c3.1-0.6,5.9-1.7,8.3-3.2s4.4-3.6,5.9-6.1C165.6,173.1,166.4,170,166.4,166.3z M195.1,139.4H209v-11.7
			h-13.8h-15.5h-13.8v11.7h13.8v44.9h15.5V139.4z M92.1,202.7h2.7c0.2-0.6,0.6-1,1.1-1.2c0.5-0.2,1-0.3,1.6-0.3c0.5,0,1,0.1,1.4,0.3
			c0.4,0.2,0.7,0.4,1,0.7c0.2,0.3,0.4,0.7,0.6,1.1c0.1,0.4,0.2,0.8,0.2,1.3c0,0.5-0.1,1-0.2,1.4c-0.1,0.4-0.3,0.8-0.5,1.1
			c-0.2,0.3-0.6,0.6-0.9,0.8c-0.4,0.2-0.9,0.3-1.4,0.3c-0.9,0-1.6-0.2-2.1-0.7c-0.5-0.5-0.8-1.2-0.9-2.1h-2.7c0,0.8,0.2,1.6,0.5,2.2
			c0.3,0.6,0.7,1.1,1.2,1.6c0.5,0.4,1.1,0.7,1.8,0.9c0.7,0.2,1.4,0.3,2.2,0.3c1,0,1.9-0.2,2.6-0.6c0.7-0.4,1.3-0.8,1.8-1.4
			c0.5-0.6,0.8-1.2,1-1.9c0.2-0.7,0.3-1.4,0.3-2c0-0.8-0.1-1.5-0.3-2.2c-0.2-0.7-0.6-1.3-1-1.7c-0.4-0.5-1-0.9-1.6-1.1
			c-0.6-0.3-1.4-0.4-2.2-0.4c-0.5,0-1.1,0.1-1.7,0.3c-0.6,0.2-1,0.5-1.4,0.9l0,0l0.8-4.2h6.5v-2.4h-8.5L92.1,202.7z M107.6,194.2
			c-0.7,0.5-1.3,1.2-1.7,2.1s-0.7,1.8-0.8,2.8c-0.1,1-0.2,2-0.2,2.9c0,0.9,0.1,1.9,0.2,2.9s0.4,1.9,0.8,2.8s1,1.5,1.7,2.1
			c0.7,0.5,1.7,0.8,2.9,0.8s2.1-0.3,2.9-0.8c0.7-0.5,1.3-1.2,1.7-2.1c0.4-0.8,0.7-1.8,0.8-2.8c0.1-1,0.2-2,0.2-2.9
			c0-0.9-0.1-1.9-0.2-2.9c-0.1-1-0.4-1.9-0.8-2.8c-0.4-0.8-1-1.5-1.7-2.1c-0.7-0.5-1.7-0.8-2.9-0.8S108.3,193.7,107.6,194.2z
			 M110.4,208.3c0.6,0,1.1-0.2,1.5-0.5c0.4-0.3,0.7-0.8,0.9-1.4c0.2-0.6,0.4-1.2,0.5-2c0.1-0.8,0.1-1.6,0.1-2.4c0-0.9,0-1.7-0.1-2.4
			c-0.1-0.8-0.3-1.4-0.5-2c-0.2-0.6-0.5-1-0.9-1.4s-0.9-0.5-1.5-0.5c-0.6,0-1.1,0.2-1.5,0.5s-0.7,0.8-0.9,1.4
			c-0.2,0.6-0.4,1.2-0.5,2c-0.1,0.8-0.1,1.6-0.1,2.4c0,0.9,0,1.7,0.1,2.4c0.1,0.8,0.3,1.4,0.5,2c0.2,0.6,0.5,1,0.9,1.4
			C109.3,208.1,109.8,208.3,110.4,208.3z M134.5,202.6l2.6,2.6l2.6-2.6l-2.6-2.6L134.5,202.6z M144,198.6h3.2v11.6h2.9v-16.4H148
			c-0.1,0.5-0.3,0.9-0.6,1.3c-0.3,0.3-0.7,0.6-1.1,0.8c-0.4,0.2-1.7,0.6-2.3,0.6V198.6z M156.4,194.2c-0.7,0.5-1.3,1.2-1.7,2.1
			s-0.7,1.8-0.8,2.8c-0.1,1-0.2,2-0.2,2.9c0,0.9,0.1,1.9,0.2,2.9s0.4,1.9,0.8,2.8s1,1.5,1.7,2.1c0.7,0.5,1.7,0.8,2.9,0.8
			c1.2,0,2.1-0.3,2.9-0.8c0.7-0.5,1.3-1.2,1.7-2.1c0.4-0.8,0.7-1.8,0.8-2.8c0.1-1,0.2-2,0.2-2.9c0-0.9-0.1-1.9-0.2-2.9
			c-0.1-1-0.4-1.9-0.8-2.8c-0.4-0.8-1-1.5-1.7-2.1c-0.7-0.5-1.7-0.8-2.9-0.8C158.1,193.4,157.1,193.7,156.4,194.2z M159.2,208.3
			c0.6,0,1.1-0.2,1.5-0.5c0.4-0.3,0.7-0.8,0.9-1.4c0.2-0.6,0.4-1.2,0.5-2c0.1-0.8,0.1-1.6,0.1-2.4c0-0.9,0-1.7-0.1-2.4
			c-0.1-0.8-0.3-1.4-0.5-2c-0.2-0.6-0.5-1-0.9-1.4c-0.4-0.3-0.9-0.5-1.5-0.5c-0.6,0-1.1,0.2-1.5,0.5c-0.4,0.3-0.7,0.8-0.9,1.4
			c-0.2,0.6-0.4,1.2-0.5,2c-0.1,0.8-0.1,1.6-0.1,2.4c0,0.9,0,1.7,0.1,2.4c0.1,0.8,0.3,1.4,0.5,2c0.2,0.6,0.5,1,0.9,1.4
			C158.1,208.1,158.6,208.3,159.2,208.3z M169.3,194.2c-0.7,0.5-1.3,1.2-1.7,2.1s-0.7,1.8-0.8,2.8c-0.1,1-0.2,2-0.2,2.9
			c0,0.9,0.1,1.9,0.2,2.9s0.4,1.9,0.8,2.8s1,1.5,1.7,2.1c0.7,0.5,1.7,0.8,2.9,0.8c1.2,0,2.1-0.3,2.9-0.8c0.7-0.5,1.3-1.2,1.7-2.1
			c0.4-0.8,0.7-1.8,0.8-2.8c0.1-1,0.2-2,0.2-2.9c0-0.9-0.1-1.9-0.2-2.9c-0.1-1-0.4-1.9-0.8-2.8c-0.4-0.8-1-1.5-1.7-2.1
			c-0.7-0.5-1.7-0.8-2.9-0.8C171,193.4,170,193.7,169.3,194.2z M172.1,208.3c0.6,0,1.1-0.2,1.5-0.5c0.4-0.3,0.7-0.8,0.9-1.4
			c0.2-0.6,0.4-1.2,0.5-2c0.1-0.8,0.1-1.6,0.1-2.4c0-0.9,0-1.7-0.1-2.4c-0.1-0.8-0.3-1.4-0.5-2c-0.2-0.6-0.5-1-0.9-1.4
			c-0.4-0.3-0.9-0.5-1.5-0.5c-0.6,0-1.1,0.2-1.5,0.5c-0.4,0.3-0.7,0.8-0.9,1.4c-0.2,0.6-0.4,1.2-0.5,2c-0.1,0.8-0.1,1.6-0.1,2.4
			c0,0.9,0,1.7,0.1,2.4c0.1,0.8,0.3,1.4,0.5,2c0.2,0.6,0.5,1,0.9,1.4C171.1,208.1,171.5,208.3,172.1,208.3z M131.9,210.2l-7.1-8.9
			l6.7-7.8h-3.6l-6.3,7.6v-7.6h-2.9v16.7h2.9v-8.7l6.7,8.7H131.9z M193.6,210.2l-7.1-8.9l6.7-7.8h-3.6l-6.3,7.6v-7.6h-2.9v16.7h2.9
			v-8.7l6.7,8.7H193.6z"/>
	</g>
</g>
</svg>
