<?xml version="1.0" encoding="utf-8"?>
<!-- Generator: Adobe Illustrator 21.0.2, SVG Export Plug-In . SVG Version: 6.00 Build 0)  -->
<svg version="1.1" id="DV_Stacked_Logo" xmlns="http://www.w3.org/2000/svg" xmlns:xlink="http://www.w3.org/1999/xlink" x="0px"
	 y="0px" viewBox="0 0 221.6 169.2" style="enable-background:new 0 0 221.6 169.2;" xml:space="preserve">
<style type="text/css">
	.st0{fill:#0076BC;}
	.st1{fill:#3FAE49;}
</style>
<g id="DV_Stacked_logo">
	<g id="_x35_0k__x2B__100k_Trail_Run">
		<path class="st0" d="M2,153.3h8v2.3H3.8L3,159.5l0,0c0.3-0.4,0.8-0.7,1.3-0.9c0.5-0.2,1-0.3,1.6-0.3c0.8,0,1.5,0.1,2.1,0.4
			c0.6,0.3,1.1,0.6,1.5,1.1c0.4,0.5,0.7,1,0.9,1.7c0.2,0.6,0.3,1.3,0.3,2.1c0,0.6-0.1,1.3-0.3,1.9c-0.2,0.7-0.5,1.3-1,1.8
			c-0.4,0.5-1,1-1.7,1.3c-0.7,0.3-1.5,0.5-2.4,0.5c-0.8,0-1.5-0.1-2.1-0.3c-0.6-0.2-1.2-0.5-1.7-0.9c-0.5-0.4-0.9-0.9-1.2-1.5
			c-0.3-0.6-0.4-1.3-0.5-2.1h2.5c0.1,0.8,0.4,1.5,0.9,1.9c0.5,0.5,1.2,0.7,2,0.7c0.5,0,1-0.1,1.4-0.3c0.4-0.2,0.7-0.4,0.9-0.7
			c0.2-0.3,0.4-0.7,0.5-1.1c0.1-0.4,0.1-0.9,0.1-1.3c0-0.4-0.1-0.8-0.2-1.2c-0.1-0.4-0.3-0.7-0.5-1c-0.2-0.3-0.5-0.5-0.9-0.7
			c-0.4-0.2-0.8-0.3-1.3-0.3c-0.5,0-1,0.1-1.5,0.3c-0.5,0.2-0.8,0.6-1,1.1H0.3L2,153.3z"/>
		<path class="st0" d="M17.6,153c1.1,0,2,0.3,2.7,0.8c0.7,0.5,1.2,1.2,1.6,2c0.4,0.8,0.7,1.7,0.8,2.6c0.1,0.9,0.2,1.9,0.2,2.7
			c0,0.9-0.1,1.8-0.2,2.7c-0.1,0.9-0.4,1.8-0.8,2.6c-0.4,0.8-0.9,1.4-1.6,2c-0.7,0.5-1.6,0.8-2.7,0.8c-1.1,0-2-0.3-2.7-0.8
			c-0.7-0.5-1.2-1.2-1.6-2c-0.4-0.8-0.7-1.7-0.8-2.6s-0.2-1.9-0.2-2.7c0-0.9,0.1-1.8,0.2-2.7c0.1-0.9,0.4-1.8,0.8-2.6
			c0.4-0.8,0.9-1.4,1.6-2C15.6,153.2,16.5,153,17.6,153z M17.6,167c0.5,0,1-0.2,1.4-0.5c0.4-0.3,0.7-0.7,0.9-1.3
			c0.2-0.5,0.4-1.2,0.5-1.9c0.1-0.7,0.1-1.5,0.1-2.3c0-0.8,0-1.6-0.1-2.3c-0.1-0.7-0.2-1.3-0.5-1.9c-0.2-0.5-0.5-1-0.9-1.3
			c-0.4-0.3-0.8-0.5-1.4-0.5c-0.6,0-1,0.2-1.4,0.5c-0.4,0.3-0.7,0.8-0.9,1.3c-0.2,0.5-0.4,1.2-0.5,1.9c-0.1,0.7-0.1,1.5-0.1,2.3
			c0,0.8,0,1.6,0.1,2.3c0.1,0.7,0.2,1.4,0.5,1.9c0.2,0.5,0.5,1,0.9,1.3C16.6,166.9,17,167,17.6,167z"/>
		<path class="st0" d="M45.6,156.1h2.3v4.5h4.5v2.3h-4.5v4.5h-2.3v-4.5h-4.5v-2.3h4.5V156.1z"/>
		<path class="st0" d="M56.9,155.9c0.5,0,1.7-0.4,2.1-0.6c0.4-0.2,0.8-0.5,1-0.8c0.3-0.3,0.5-0.7,0.6-1.2h2.1v15.5h-2.8v-10.9h-3
			V155.9z"/>
		<path class="st0" d="M71.6,153c1.1,0,2,0.3,2.7,0.8c0.7,0.5,1.2,1.2,1.6,2c0.4,0.8,0.7,1.7,0.8,2.6c0.1,0.9,0.2,1.9,0.2,2.7
			c0,0.9-0.1,1.8-0.2,2.7c-0.1,0.9-0.4,1.8-0.8,2.6c-0.4,0.8-0.9,1.4-1.6,2c-0.7,0.5-1.6,0.8-2.7,0.8c-1.1,0-2-0.3-2.7-0.8
			c-0.7-0.5-1.2-1.2-1.6-2c-0.4-0.8-0.7-1.7-0.8-2.6s-0.2-1.9-0.2-2.7c0-0.9,0.1-1.8,0.2-2.7c0.1-0.9,0.4-1.8,0.8-2.6
			c0.4-0.8,0.9-1.4,1.6-2C69.6,153.2,70.5,153,71.6,153z M71.6,167c0.5,0,1-0.2,1.4-0.5c0.4-0.3,0.7-0.7,0.9-1.3
			c0.2-0.5,0.4-1.2,0.5-1.9c0.1-0.7,0.1-1.5,0.1-2.3c0-0.8,0-1.6-0.1-2.3c-0.1-0.7-0.2-1.3-0.5-1.9c-0.2-0.5-0.5-1-0.9-1.3
			c-0.4-0.3-0.8-0.5-1.4-0.5c-0.6,0-1,0.2-1.4,0.5c-0.4,0.3-0.7,0.8-0.9,1.3c-0.2,0.5-0.4,1.2-0.5,1.9c-0.1,0.7-0.1,1.5-0.1,2.3
			c0,0.8,0,1.6,0.1,2.3c0.1,0.7,0.2,1.4,0.5,1.9c0.2,0.5,0.5,1,0.9,1.3C70.6,166.9,71,167,71.6,167z"/>
		<path class="st0" d="M83.8,153c1.1,0,2,0.3,2.7,0.8c0.7,0.5,1.2,1.2,1.6,2c0.4,0.8,0.7,1.7,0.8,2.6c0.1,0.9,0.2,1.9,0.2,2.7
			c0,0.9-0.1,1.8-0.2,2.7c-0.1,0.9-0.4,1.8-0.8,2.6c-0.4,0.8-0.9,1.4-1.6,2c-0.7,0.5-1.6,0.8-2.7,0.8c-1.1,0-2-0.3-2.7-0.8
			c-0.7-0.5-1.2-1.2-1.6-2c-0.4-0.8-0.7-1.7-0.8-2.6c-0.1-0.9-0.2-1.9-0.2-2.7c0-0.9,0.1-1.8,0.2-2.7c0.1-0.9,0.4-1.8,0.8-2.6
			c0.4-0.8,0.9-1.4,1.6-2C81.8,153.2,82.7,153,83.8,153z M83.8,167c0.5,0,1-0.2,1.4-0.5c0.4-0.3,0.7-0.7,0.9-1.3
			c0.2-0.5,0.4-1.2,0.5-1.9c0.1-0.7,0.1-1.5,0.1-2.3c0-0.8,0-1.6-0.1-2.3c-0.1-0.7-0.2-1.3-0.5-1.9c-0.2-0.5-0.5-1-0.9-1.3
			c-0.4-0.3-0.8-0.5-1.4-0.5c-0.6,0-1,0.2-1.4,0.5c-0.4,0.3-0.7,0.8-0.9,1.3c-0.2,0.5-0.4,1.2-0.5,1.9c-0.1,0.7-0.1,1.5-0.1,2.3
			c0,0.8,0,1.6,0.1,2.3c0.1,0.7,0.2,1.4,0.5,1.9c0.2,0.5,0.5,1,0.9,1.3C82.8,166.9,83.3,167,83.8,167z"/>
		<path class="st0" d="M109.1,153h12.8v2.4h-5v13.4h-2.8v-13.4h-5V153z"/>
		<path class="st0" d="M123.6,153h7.6c1.7,0,3.1,0.4,3.9,1.1c0.9,0.8,1.3,1.8,1.3,3.1c0,0.8-0.1,1.4-0.3,1.9
			c-0.2,0.5-0.5,0.9-0.8,1.2c-0.3,0.3-0.6,0.5-0.9,0.7c-0.3,0.1-0.5,0.2-0.6,0.3v0c0.2,0,0.5,0.1,0.8,0.2c0.3,0.1,0.5,0.3,0.8,0.6
			c0.2,0.3,0.4,0.6,0.6,1c0.2,0.4,0.2,0.9,0.2,1.6c0,0.9,0.1,1.8,0.2,2.5c0.1,0.8,0.4,1.3,0.7,1.6h-3c-0.2-0.3-0.3-0.7-0.4-1.1
			c0-0.4-0.1-0.8-0.1-1.2c0-0.7,0-1.3-0.1-1.9c-0.1-0.5-0.3-1-0.5-1.3s-0.6-0.6-1-0.8c-0.4-0.2-0.9-0.2-1.6-0.2h-4.1v6.5h-2.8V153z
			 M126.4,160.2h4.5c0.9,0,1.6-0.2,2-0.6c0.5-0.4,0.7-1.1,0.7-1.9c0-0.5-0.1-0.9-0.2-1.2c-0.1-0.3-0.4-0.6-0.6-0.7
			c-0.3-0.2-0.6-0.3-0.9-0.4c-0.3-0.1-0.7-0.1-1-0.1h-4.5V160.2z"/>
		<path class="st0" d="M143.3,153h2.9l6.1,15.8h-3l-1.5-4.2h-6.3l-1.5,4.2h-2.9L143.3,153z M142.3,162.5h4.8l-2.4-6.8h-0.1
			L142.3,162.5z"/>
		<path class="st0" d="M153.8,153h2.8v15.8h-2.8V153z"/>
		<path class="st0" d="M159.8,153h2.8v13.4h8v2.4h-10.8V153z"/>
		<path class="st0" d="M177.5,153h7.6c1.7,0,3.1,0.4,3.9,1.1c0.9,0.8,1.3,1.8,1.3,3.1c0,0.8-0.1,1.4-0.3,1.9
			c-0.2,0.5-0.5,0.9-0.8,1.2c-0.3,0.3-0.6,0.5-0.9,0.7s-0.5,0.2-0.6,0.3v0c0.2,0,0.5,0.1,0.8,0.2c0.3,0.1,0.5,0.3,0.8,0.6
			c0.2,0.3,0.4,0.6,0.6,1c0.2,0.4,0.2,0.9,0.2,1.6c0,0.9,0.1,1.8,0.2,2.5c0.1,0.8,0.4,1.3,0.7,1.6h-3c-0.2-0.3-0.3-0.7-0.4-1.1
			c0-0.4-0.1-0.8-0.1-1.2c0-0.7,0-1.3-0.1-1.9c-0.1-0.5-0.3-1-0.5-1.3c-0.2-0.3-0.6-0.6-1-0.8c-0.4-0.2-0.9-0.2-1.6-0.2h-4.1v6.5
			h-2.8V153z M180.2,160.2h4.5c0.9,0,1.6-0.2,2-0.6c0.5-0.4,0.7-1.1,0.7-1.9c0-0.5-0.1-0.9-0.2-1.2c-0.1-0.3-0.4-0.6-0.6-0.7
			c-0.3-0.2-0.6-0.3-0.9-0.4c-0.3-0.1-0.7-0.1-1-0.1h-4.5V160.2z"/>
		<path class="st0" d="M192.8,153h2.8v9.2c0,0.5,0,1.1,0.1,1.6c0.1,0.5,0.2,1,0.4,1.5c0.2,0.4,0.6,0.8,1.1,1.1
			c0.5,0.3,1.2,0.4,2.1,0.4s1.6-0.1,2.1-0.4c0.5-0.3,0.9-0.6,1.1-1.1c0.2-0.4,0.4-0.9,0.4-1.5c0.1-0.5,0.1-1.1,0.1-1.6V153h2.8v10.1
			c0,1-0.2,1.9-0.5,2.7c-0.3,0.8-0.8,1.4-1.3,1.9c-0.6,0.5-1.3,0.9-2.1,1.1c-0.8,0.3-1.7,0.4-2.7,0.4c-1,0-1.9-0.1-2.7-0.4
			c-0.8-0.3-1.5-0.6-2.1-1.1c-0.6-0.5-1-1.1-1.3-1.9c-0.3-0.8-0.5-1.6-0.5-2.7V153z"/>
		<path class="st0" d="M208.7,153h2.9l7.2,11.7h0V153h2.6v15.8h-2.9l-7.2-11.6h-0.1v11.6h-2.6V153z"/>
		<polygon class="st0" points="37.9,168.8 31.1,160.4 37.5,153 34.1,153 28.1,160.1 28.1,153 25.3,153 25.3,168.8 28.1,168.8 
			28.1,160.6 34.4,168.8 		"/>
		<polygon class="st0" points="104.2,168.8 97.4,160.4 103.7,153 100.3,153 94.3,160.1 94.3,153 91.6,153 91.6,168.8 94.3,168.8 
			94.3,160.6 100.7,168.8 		"/>
	</g>
	<path id="vista" class="st0" d="M21.4,143.8L2.1,87.2h16.3l11.9,38.6h0.2l11.9-38.6h15.4l-19.2,56.6H21.4z M76.5,87.2v56.6H61V87.2
		H76.5z M96.2,130c0.7,1.2,1.6,2.2,2.7,3s2.4,1.3,3.8,1.7c1.4,0.4,2.9,0.5,4.4,0.5c1.1,0,2.2-0.1,3.4-0.4c1.2-0.3,2.3-0.7,3.3-1.2
		c1-0.5,1.8-1.3,2.5-2.2c0.7-0.9,1-2.1,1-3.4c0-2.3-1.5-4.1-4.7-5.2c-3.1-1.2-7.4-2.3-13-3.5c-2.3-0.5-4.5-1.1-6.6-1.8
		s-4.1-1.6-5.7-2.7c-1.7-1.1-3-2.6-4-4.3c-1-1.7-1.5-3.8-1.5-6.3c0-3.6,0.7-6.6,2.1-9c1.4-2.3,3.3-4.2,5.6-5.5
		c2.3-1.3,5-2.3,7.9-2.8c2.9-0.5,5.9-0.8,9-0.8s6,0.3,8.9,0.9s5.5,1.6,7.7,3c2.3,1.4,4.1,3.2,5.6,5.5c1.5,2.3,2.4,5.2,2.7,8.7h-14.8
		c-0.2-3-1.4-5-3.4-6.1c-2-1.1-4.5-1.6-7.2-1.6c-0.9,0-1.8,0.1-2.8,0.2c-1,0.1-2,0.3-2.8,0.7c-0.8,0.4-1.5,0.9-2.1,1.6
		c-0.6,0.7-0.9,1.6-0.9,2.8c0,1.4,0.5,2.5,1.5,3.4c1,0.9,2.4,1.6,4,2.1c1.6,0.5,3.5,1,5.6,1.5c2.1,0.4,4.3,0.9,6.5,1.4
		c2.3,0.5,4.5,1.1,6.6,1.9s4.1,1.7,5.7,2.9c1.7,1.2,3,2.7,4.1,4.5c1,1.8,1.5,4,1.5,6.6c0,3.7-0.8,6.8-2.2,9.4
		c-1.5,2.5-3.4,4.5-5.9,6.1s-5.2,2.6-8.3,3.2c-3.1,0.6-6.3,0.9-9.5,0.9c-3.3,0-6.5-0.3-9.6-1c-3.1-0.7-5.9-1.7-8.4-3.3
		s-4.5-3.6-6-6.1s-2.4-5.7-2.6-9.5h14.8C95.2,127.3,95.5,128.8,96.2,130z M175.4,87.2h-13.8H146h-13.8v11.7H146v44.9h15.5V98.9h13.8
		V87.2z M202.2,87.2l19.4,56.6h-16.3l-11.9-38.6h-0.2l-11.9,38.6h-15.4l19.2-56.6H202.2z"/>
	<g id="diez">
		<path class="st1" d="M212.9,81.6V69.9h-35.1L210.6,33V20h-53.1v13h30.3l-32.8,36.9v11.6h-15.5c1.2-0.5,2.3-1.1,3.4-1.8
			c5-3.2,8.7-8.6,11.1-16.1h-15.1c-0.6,1.9-2.1,3.8-4.6,5.5c-2.5,1.7-5.5,2.6-9,2.6c-4.8,0-8.6-1.2-11.1-3.8
			c-2.6-2.5-4-6.5-4.2-12.1h45.2c0.3-4.8-0.1-9.5-1.2-13.9c-1.1-4.4-3-8.4-5.5-11.9c-2.5-3.5-5.8-6.2-9.7-8.3
			c-4-2.1-8.6-3.1-13.9-3.1c-4.8,0-9.1,0.8-13,2.5c-3.9,1.7-7.3,4-10.1,7c-2.8,3-5,6.4-6.5,10.5c-1.5,4-2.3,8.4-2.3,13.1
			c0,4.8,0.7,9.3,2.2,13.3c1.5,4,3.6,7.5,6.4,10.4c2.4,2.5,5.3,4.6,8.6,6.1H88.8V20H71.5v61.5h-7.4V0H46.8v27.7h-0.2
			c-1.9-3.1-4.6-5.4-8-7c-3.4-1.6-6.9-2.4-10.7-2.4c-4.6,0-8.7,0.9-12.2,2.7c-3.5,1.8-6.4,4.2-8.7,7.2c-2.3,3-4.1,6.5-5.2,10.4
			C0.6,42.7,0,46.7,0,51c0,4.4,0.6,8.6,1.8,12.7c1.2,4.1,2.9,7.7,5.2,10.8c2.2,3,5,5.4,8.4,7.2H0.1v2.8h221.3v-2.8H212.9z
			 M110.8,40.8c0.4-1.5,1.2-3,2.3-4.4c1.1-1.4,2.5-2.5,4.4-3.5c1.8-0.9,4.1-1.4,6.8-1.4c4.2,0,7.3,1.1,9.4,3.4
			c2.1,2.3,3.5,5.6,4.3,9.9h-28C110.1,43.7,110.3,42.4,110.8,40.8z M32.5,71.6c-2.7,0-5-0.6-6.9-1.8c-1.9-1.2-3.5-2.7-4.8-4.6
			c-1.3-1.9-2.2-4.1-2.7-6.5c-0.6-2.4-0.9-4.9-0.9-7.3c0-2.6,0.3-5.1,0.8-7.5c0.5-2.4,1.4-4.5,2.6-6.4c1.2-1.9,2.7-3.4,4.7-4.5
			c1.9-1.1,4.3-1.7,7.2-1.7c2.8,0,5.2,0.6,7.1,1.7c1.9,1.1,3.4,2.6,4.6,4.4c1.2,1.8,2,3.9,2.5,6.3c0.5,2.4,0.7,4.9,0.7,7.5
			c0,2.6-0.2,5.1-0.7,7.6c-0.5,2.4-1.3,4.6-2.4,6.5c-1.1,1.9-2.7,3.4-4.6,4.6C37.7,71.1,35.4,71.6,32.5,71.6z M47.6,81.6h-6.8
			c2.6-1.5,4.8-3.7,6.5-6.6h0.2V81.6z"/>
		<rect x="71.5" class="st1" width="17.3" height="14.2"/>
	</g>
</g>
</svg>
