<?xml version="1.0" encoding="utf-8"?>
<!-- Generator: Adobe Illustrator 21.0.2, SVG Export Plug-In . SVG Version: 6.00 Build 0)  -->
<svg version="1.1" id="Layer_1" xmlns="http://www.w3.org/2000/svg" xmlns:xlink="http://www.w3.org/1999/xlink" x="0px" y="0px"
	 viewBox="0 0 500 263.4" enable-background="new 0 0 500 263.4" xml:space="preserve">
<g>
	<path fill="#FFFFFF" d="M147.9,68.6c-0.6-0.3-0.7-1.2,0.1-2.2c1.6-1.3,1.9-3.8,3.1-5.5c0.6-0.8,0.6-2.2,0.1-3.1
		c-0.3-0.5-1.3,0-1.8,0.5c-0.4,0.4-0.6,0.7-0.8,1.1c-1.3,2.3-0.3,4.4-6,7.6c-3.2,1.9-6.6,2.1-10.6,0.6c-0.9-0.7-3.4-1.3-2.3-3.3
		c1.4-2.6,4-4.4,6.5-5.7c4.8-2,19.8-11.6,24.6-13.7c0.9-0.8-3.4,4.2-5.3,8.6c-0.5,1.2-0.8,3.6,0.6,1.5c2.5-2.4,5-4.7,7.5-7.1
		c3.7-3.8,7.5-7.7,11.2-11.5c0.8-1.1,11.5-9.8,12.1-10.8c0.2-0.3,0-0.4-0.5-0.2c-1.2,0.4-4.5,2-7,3.4c0.6-1.3,0.7-1.7,1.4-3.3
		c3.8-3.2,9.3-7,13.4-10.3c1.4-1.1,1.9-1.3,3.4-2.1c3.2-1.6,5.9-3.5,8.8-5c1.9-1,4.4-1.3,6.5-1.8c0.9-0.2,1.4-0.2,2.3-0.2
		c2.7,0,5.3,0.1,8,0.1c1,0,1,0.1,1.9,0.4c2.2,0.7,4.5,1.2,6.5,2.3c1.4,0.7,3,2.1,4.4,2.8c3.2,1.7,4.5,1.7,7.5,1
		c-1.7,2-5,3.7-6.3,4.7c-1.6,1.1-3.5,2.2-5.2,3.6c-0.5,0.5-1.5,2.1-3.5,4.5c-1.9,2.3-1.6,3.3-1.9,4.1c-1,2.4-2.4,3.9-5.1,5.8
		c-1,1.3-7.1,3.7-6.9,5.2c0.2,1.2-7,5.4-11,8.3c-1.7,1.2-4.6,4.2-7,6.7c-4.4,4.6-5.3,3.6-9.4,4.2c-3.2,0.3-4.6,0.6-3.3-3.7
		c0.7-2.6,2.3-3.3,4.7-3.5c1.6-0.1,3.3-0.1,3.8-0.1c2.1,0,3.9-2.5,3.7-5.9c-0.2-2.5,3.4-3.7,5.2-4.7c1.4-0.8,4-0.6,5.9-4.3
		c0.1-0.1,1-1.9,3.5-3.9c0.8-0.7,6.6-4.3,9.8-5.7c1.6-0.6,0.9-1.2,0.5-1.2c-1.9,0.2-7,1.4-8.4,1.6c-1,0.1-1.4-0.3-0.8-1
		c0.9-1.3,3.1-3,5.7-3c1.5,0,3.8-0.8,6.1-1.7c0.9-0.4,2.3-1.3,4.1-3.2c0.6-0.6,2.2-2.8,4.7-5.7c1.3-1.6-3-3.3-6.6-5
		c-0.9-0.5-2.1-0.2-3.3-0.1c-2.2,0.2-6.4,2.2-8.2,3.2c-1.1,0.6-3,4.1-3.8,5c-1.8,2-2.8,3.9-3.1,5.3c-0.6,2.6-3.2,6.7-3.5,7
		c-1.7,1.9-5.9,5.7-7,6.3c-1.4,0.8-3.8,5.7-3.6,5.3c-2.7,4.7-3.6,3.8-9.3,8.3l-6.1,3.3c-1.2,0.8-2.1,2.2-3.5,2.5
		c-1.5,0.4-3.2-0.1-4.6-0.6c-0.7-0.3-1.5-0.8-1.8-1.6c-0.3-0.6,0-1.3,0.4-1.8c0.5-0.6,1.2-0.7,1.9-1c0.7-0.4,1.7-0.6,2.4-1
		c0.9-0.6,1.9-1.4,2.5-2.4c0.3-0.5-0.5-1.1-0.3-1.7c0.2-0.7,0.6-1.6,1.2-2.1c0.7-0.6,2,0.1,2.5-0.6l2.9-4.3l2.9-4.3
		c0.8-0.7,4-3.9,5.3-4.5c1.2-0.6,2.4-0.6,3.3-0.8c2.3-1.4,2.8-2.7,3.3-4.4c0.6-1.6,2.1-1.9,4.5-2.9c0.6-0.4,1.6-0.8,2.3-1.3
		s1.1-1.5,1.4-1.9c0.3-1.4,0.6-1.5,1.3-2.7c0.6-0.8,1.2-1.7,1.8-2.3c1-1,2-1.5,2.9-2.3c0.3-0.3,0.2-0.7-0.6-0.6
		c-1,0.2-2.9,1.1-2.5,0.7c-1.3,0.5-2.5,0.9-3.8,1.4c-1,1.5-1.9,2.9-3,4.4c-0.8,1.4-1.6,2.7-2.4,4.1c-1.1,0.4-2.1,0.7-3.2,1.1
		c-1.7,1.1-3.3,2.3-5,3.4l-2.7,3.4l-4.1,3.7c-3.7,3.3-7.4,6.7-11.2,10l-5.3,5.7l-5.9,6.6c-1.7,1.8-3.8,3.2-5,5.3
		c-2.4,4.2,0.6,3.6,4.7,2c1.4-0.6,2.4-2.2,3.5-3.2c0.6-0.6,0.8-0.1,0.8,0.2c0.3,3,2.5,3.5,3.8,4.1c2,0.9,4.2,1.1,5.8,1.1
		c0.7,0,5.3-0.4,5.9-0.3c3.8,0.4,2.9,2.2-1.3,2.8c-3.3,0.5-10.5-0.4-13.7,0.6c-1.7,0.5-5.8,3.2-8.1,0.6c-1.2-1.4-1.8-1.3-1.8-2.6
		c0-1-1.3-1-2,0.5C152.6,67.5,150.6,68.8,147.9,68.6L147.9,68.6z M260.6,3.7c-1.1-1.2-2.1-2.5-3.4-3.6c-0.2-0.2-0.6-0.2-0.7,0.1
		c-0.3,0.7,0,1.6-0.2,2.4s-0.4,1.7-0.7,2.4c-0.7,1.2-1.5,2.4-2.6,3.2l-6.8,4.8l-7.5,5.7l-0.3,4c-0.2,1.6-0.1,3.2-0.6,4.8
		c-0.5,1.7-1.3,3.3-2.2,4.8c-0.8,1.3-1.9,2.5-3,3.5c-0.2,0.1-0.6-0.2-0.5-0.4c0.8-2.6,2.5-4.9,3.1-7.6l1.1-5.6
		c0.1-0.3,0.2-1.1-0.6-0.5c-1.9,1.4-2.8,3.4-4.2,5.3c-0.6,0.9-1.1,2.3-1.3,3.5c-0.4,1.8-1.2,3.4-2.1,4.9c-0.4,0.6-1.2,0.6-1.6,1.2
		l-3,4.1c-1.1,0.9-2.1,1.9-3.2,2.9c-2.6,2.2-2.6,2.2-4.2,5.3l-2,4c-1.6,2.2-6,8.3-7.6,10.5c-0.4,0.6-0.6,1.2-1,1.9
		c-2.2,4.1,4.1,4.7,6.5,1.7c0.7-0.9,1.3-3.8,1.3-4.6c0-2.8,3.6-9.3,5.6-12c1.1-0.8,2.9-2.8,4-3.6c0.4-0.3,1.9-3.2,2.3-4.4
		c0.1-0.2,1.5-2.1,2.2-2.8c0.2-0.1,0.9,0,0.6,0.5c-0.7,0.8-1.1,1.9-1.2,2.2c-0.1,0.7-2,3.3-2.1,3.7c-1.5,2.6-2.3,4.1-2.7,5.9
		c-0.3,1.6,2.1,2.7,4.1,0.6c1.4-2.5,2-1.4,1.9-0.5c-0.1,1.3-5.4,10.7-5.2,11.9c0.1,0.7,1.2,0.6,1.6,0c1.3-1.7,2.2-1.3,3.7-2.8
		c0.9-1.4,4.6-5.6,7.3-8.6c2.1-2.3,3.6-4.6,5.2-7.3c0.6-1.1,1-0.2,0.8,0.2c-0.2,0.6-0.2,1.4-0.1,1.9c0.2,0.6,0.7,1.1,1.3,0.6
		c0.9-0.9,1.5-1.4,1.9-1.9c1.1-1.1,0.6,0.1,0.6,0.6c-0.1,1.9-0.6,5-2.4,8.6c-0.5,0.8,0.1,0.8,0.6,0.4c1.7-1.7,2.7-3.5,4.8-6.1
		c1.1-1.3,2.6-2.3,2.6-4.8c0-1.6,0.9-1.6,1.3-0.4c0.7,2.3,2.6,4.5,2.6,6.9c0,1.3,0.2,1.4-0.6,4.5c-0.5,2.2-1.8,4.4-1.5,6.7
		c0.1,0.7,1.8,0.1,2.1-0.5c3.2-5.2,7-12.8,12.7-19.8c1.1-1.4-0.1-1.4,0.3-4.1c0.1-0.5,0.6-1.9,0.8-2.1c0.9-1.3-0.2-1.1,1.8-3.1
		c0.6-0.6,2.6-0.4,2.8,0.5l2.6,2.1c1.9,1.6,2,7.3,2.2,9.8c-0.1,0.8-0.1,4.3,0,5.7c0.2,2.5-0.4,3.2-0.6,5.5c-0.2,1.7-0.3,3.4-0.8,4.4
		c0.1,2.3,3.4,0.2,3.8-2c0.1-1.6,0.6-2.9,0.9-4.2c1-3.1,1.6-5.7-0.1-8.6c-0.3-0.5-0.6-0.9-0.6-1.1c-0.8-1.7-1.7-2.3-0.8-4.2
		c1.6-2.7,1.2-4.9,3.1-7c0.7-0.9,2.6,0,3.1,1c0.7,1.5,2.2,2.6,2,4.7c-0.2,1.9-0.3,4.2-1.2,6.3c-0.2,0.4-0.5,0.6-0.7,1
		c-1.9,1.9-1.2,4.2-1.8,6.4c-0.7,3-0.6,5.9-0.6,8.2c0.3,3,3.2,1.8,3.2,0c0.4-2-1.3-2.5-0.8-4.5c3-3.2,3.8-8.7,5.1-10.8
		c1.1-2.4,2.1-3.9,3-4.7c0.4-0.4,1.3-0.6,1.3-0.7c0.8-1.1,1.9-0.4,0.6,1.6c-1.1,1.6-1.1,1.1-1.8,2.9c-0.2,0.6-1.1,0.8-1.5,1.4
		c-1.2,1.5-2.2,3.4-1.9,7.4c0.1,1.4,1.9-1.7,1.9-1.9c0.6-0.9,1.6-3.9,1.8-4.2c2-2.6,1.2-2.6,2.6-4.9c0.1-0.2,0.8-0.6,1-0.8
		c0.4-0.4,0.6-0.7,1.1-1c0.2-0.1,0.5,0.1,0.5,0.6s0.6,1.3,1.2,1.9c0.6,0.6,0.8,1.9,0.6,2.6s0.5,1.6,0.9,2.4c0.3,0.5,0,0.6-0.5,0.8
		c-1.1,0.5-4.2,1.8-6.5,3.2c-2.4,1.5-2.2,1.8-3.5,4c-0.5,0.7-2,3-2.4,3.7c-0.8,2,2.2,2.2,4.2,0.4c3.9-3,9.6-9.1,10.8-12.1
		c0.4-1.2,2.3-3.1,3.4-4c1.6-1,4-2.7,5.6-3.8c0.4-0.3,1.2-0.6,0.8,0.5c-2.5,1.9-7.1,6.3-7.7,8.3c-2.4,4.3-4.4,8.2-6.5,10
		c-2.1,2.9,0.7,2.5,2.3,0.9c1.7-1.4,3.8-5.7,5.5-7.1c2-2.3,4.4-4.2,6.4-6.3c0.5-0.5,1.8-1.2,3.3-1.9c2.4-1,4.6-3.2,7.1-4
		c2.7-0.9,4.5-1.5,7.2-1.9c-1.9,1-4.2,2-4.8,3c-0.7,1.1-2.1,1.8-3.2,2.4c-2,1.3-2.4,1.9-4.3,3.5c-6.9,6.1-12.5,12.1-18.4,21.3
		l1.5-0.1c29.8-3.6,66.4-3.2,96.6,0.1c-9.3-7-17.6-10.8-28.5-15.6L352.5,46c-5.3-3.2-10.3-6.9-15.9-9.6c-1.3-0.6-3-0.3-4.4-0.1
		l-5.9,0.9c-1.8,0.3-2.2,0.4-4,0.2c-6.3-0.7-12.7-1.2-18.9-2.4c-2.4-0.5-4.5-2-6.8-2.7c-1.3-0.4-2.8,0.1-4.1-0.5
		c-1.7-0.6-3.3-1.7-4.5-3c-1-1.1-2.5-2.7-1.9-4.1l1.9-4.6c-0.8-0.5-1.6-0.9-2.4-1.3c-0.6-0.4-1.4-0.5-2.1-0.6
		c-1.1-0.1-2.4,0.4-3.2-0.3l-9.9-7.5l0.2,0.6c1.9,3.8,5.2,6.8,8.2,8.8c0.5,0.3,0.3,0.8-0.1,0.7c-1.6-0.6-3.2-1.1-4.7-2
		c-1.9-1.1-3.6-2.6-5.4-3.9c-1.4-1.3-2.8-2.6-4.2-4l-2.1-4.7C261.6,4.9,261.5,4.8,260.6,3.7L260.6,3.7z M258.1,21.4
		c-0.1,1.2,2.3,0.2,3.5,0c0.4-0.1,1-0.8,1.6-0.9c1-0.1,2.5,0.2,2.8,1.1c0.5,1.9,1.3,3.8,1.5,5.8c0.3,2,0.4,4.1,0.1,6.1
		c-0.2,1.5-1.2,2.7-1.7,4.1l-1.4,4.2c-0.5,0.8-0.7,1.9-1.4,2.6c-0.2,0.2-0.6-0.2-0.6-0.4l0.6-2.7c0.3-1.6,0.6-3.1,0.8-4.6
		c0.1-0.9,0.5-1.9,0.2-2.9c-0.2-0.6-1.1-0.5-1.5-0.9c-0.5-0.6-0.4-1.7-0.8-2.3c-0.8-1.2-2.2-3.2-3.4-2.3c-1.7,1.1-2,0.6-2.9-0.6
		c-0.5-0.7-2.3-0.7-3.5,0.6c-1.3,1.4-4,2-5.5,3.3c-0.3,0.2-1,0.1-1-0.3c0.3-1.9,1.6-3.4,1.9-5.3c0.1-0.4-0.5-0.5-0.7-0.3
		c-0.9,0.5-1.4,2.3-2,3.2c-1.7,1.9-3.1,2.9-4.9,4.5c-0.4,0.4-1.6,0-1.4-0.5c0.5-2,2.1-3.6,2.9-5.6c0.5-1.3,0.6-2.8,0.9-4.1
		c0.5-1.7,0.3-3.7,1.4-5.1c1.4-1.8,3.8-2.3,5.5-3.7c2.1-1.8,4.4-4.1,6.5-5.8c0.3-0.2,0.5,0.1,0.3,0.4c-0.8,1.9-2.4,3.6-3.4,5.6
		c-0.4,0.7-0.1,1.1,0.8,0.6c1.4-0.6,2.6-1.8,3.8-2.8c0.6-0.5,1.3-1.6,1.8-2.8c0.1-0.2,0.3-0.1,0.4,0.2c0.2,0.6,0.4,1.3,0.8,1.9
		c0.5,0.6,0,1.6-0.2,2c-0.2,0.6,0.2,1.2,0.5,1.9c0.3,0.6,2.2,0.6,1.9,1.3C261.2,18.8,258.2,19.3,258.1,21.4L258.1,21.4z M237.9,11.2
		c-1.4-0.8-2.9-1.9-4.3-2.6c0.1-0.5,0.3-0.6,0.5-1c0.4-0.3,0.8-0.9,1.4-1.1c0.8-0.3,1.8-0.4,2.7-0.4c0.2-0.1,0.6,0.2,0.6,0.4
		c-0.1,0.6,0,1.1,0.1,1.8c0,0.3,0.1,0.6,0.2,0.8c0.3,0.4,0.6,0.8,0.9,1.2c0.5,0.5,1,0.9,1.5,1.4C240.3,11.5,239.2,11.3,237.9,11.2
		L237.9,11.2z M123.1,66.9c0.6-1.6,1.8-3,3-4.2c1.3-1.3,3.1-2,4.5-3.2c1.4-1.1,2.8-2.2,4-3.6l5-5.6c-3.7,0.2-7.4,0-11,0.5
		c-2.6,0.4-5.1,1-7.6,1.9c-1.5,0.6-2.7,1.5-4.1,2.2c-8.7,4.6-12.2,6.7-18.1,14.6c6.5-1.2,16-0.6,19.5-0.2
		C121.4,69.8,121.9,69.8,123.1,66.9L123.1,66.9z"/>
	<path fill="#D1D4D6" d="M147.9,68.6c-0.6-0.3-0.7-1.2,0.1-2.2c0.8-0.6,1.3-1.7,1.7-2.7c0.1-0.3,0.2-0.6,0.3-0.7
		c0.1-0.3,0.2-0.6,0.4-0.7c0.2-0.4,0.4-0.7,0.6-1.1l0,0c0.3-0.5,0.5-0.7,0.6-1.3c0-0.3,0-0.6,0-0.9l0,0l0,0
		c-0.1-0.4-0.2-0.6-0.4-0.9c-0.3-0.5-1.3,0-1.8,0.5c-0.4,0.4-0.6,0.7-0.8,1.1c-1.3,2.3-0.3,4.4-6,7.6c-1.9,1.1-3.9,1.7-6,1.6l0,0
		c-1.5,0-3-0.4-4.6-0.9c-0.9-0.7-3.4-1.3-2.3-3.3c0.4-0.7,0.9-1.5,1.5-2c1.7,1.1,3.9,0.6,5.7,0c2.2-0.8,4.4-2,6.5-3.2
		c2.1-1.4,4.8-3.8,7-5.5c3.6-2.8,7-5.7,10.5-8.6c0.9-0.8-3.4,4.2-5.3,8.6c-0.2,0.4-0.3,0.9-0.4,1.4l0,0l0,0l0,0c0,0.2,0,0.3,0,0.5
		s0,0.6,0.3,0.4l0,0l0,0l0,0c0.1,0,0.1-0.1,0.2-0.2s0.3-0.4,0.5-0.6c2.5-2.4,5-4.7,7.5-7.1c3.7-3.8,7.5-7.7,11.2-11.5
		c0.8-1.1,11.5-9.8,12.1-10.8c0.2-0.3,0-0.4-0.5-0.2l0,0l0,0l0,0l0,0l0,0l0,0l0,0l0,0l0,0l0,0l0,0l0,0l0,0l0,0l0,0l0,0l0,0l0,0l0,0
		l0,0l0,0l0,0l0,0l0,0l0,0l0,0l0,0l0,0l0,0l0,0l0,0l0,0l0,0l0,0l0,0l0,0l0,0l0,0l0,0l0,0l0,0l0,0l0,0l0,0l0,0l0,0l0,0l0,0l0,0l0,0
		l0,0l0,0l0,0l0,0l0,0l0,0l0,0l0,0l0,0l0,0l0,0l0,0l0,0c-1.4,0.6-4.4,2-6.6,3.2c0.6-1,0.6-1.5,1-2.3c2.3-1.2,5.5-3.2,8.2-4
		c4.2-1.2,6.6-4.2,12.1-5.7c-0.8,1.4-1.6,2.7-2.4,4.1c-1.1,0.4-2.1,0.7-3.2,1.1c-1.7,1.1-3.3,2.3-5,3.4l-2.7,3.4l-4.1,3.7
		c-3.7,3.3-7.4,6.7-11.2,10l-5.3,5.7l-5.9,6.6c-1.7,1.8-3.8,3.2-5,5.3c-0.8,1.4-1,2.3-0.7,2.8l0,0c0.7,1.3,4.9-0.6,5.5-0.7
		c1.4-0.5,2.3-2.2,3.5-3.2c0.6-0.6,0.8-0.1,0.8,0.2c0.3,3,2.5,3.5,3.8,4.1c2,0.9,4.2,1.1,5.8,1.1c0.7,0,5.3-0.4,5.9-0.3
		c3.8,0.4,2.9,2.2-1.3,2.8c-3.3,0.5-10.5-0.4-13.7,0.6c-1.7,0.5-5.8,3.2-8.1,0.6c-0.6-0.6-1-1-1.3-1.3c-0.2-0.2-0.3-0.4-0.4-0.6
		c-0.2-0.4,0-0.7-0.2-1c-0.2-0.4-0.6-0.5-1.1-0.2l0,0c0,0-0.1,0-0.1,0.1c-0.3,0.2-0.6,0.5-0.8,0.9c-0.4,0.6-0.8,1.1-1.6,1.6
		c-0.6,0.5-1.5,0.7-2.2,0.8C149,68.7,148.5,68.7,147.9,68.6L147.9,68.6z M341.4,65.8c-2.8,0.8-6.4,0.6-10.1,0
		c-8.3-1.5-9.8-2.3-11.6-3.9c-1.5-1.3-2.9-5-0.6-8c2.1-2.8,4-5.3,6.9-6.4c0.8-0.4,1.9-1.4,2.8-2.6c1.6-2.2,3.5-5.3,6.1-7
		c0.8-0.6,0.2-0.8-0.8-0.6c-3.3,0.9-7.8,1.3-10.8,1.6c-0.8,0.1-2.1,0.8-3.5,2.1c-0.7,0.6-1.2,0.8-1.9,1.1c-0.6,0.3-1.2,0.3-1.9,0.3
		c-0.4,0-0.3-0.4-0.2-0.5c1.3-1.2,2.9-2.4,2.9-2.7c0-0.4-0.3-0.6-0.6-0.6c-2.3-0.2-4.2-0.1-6.8-0.3c-0.7,0-0.9,0.6-1.1,1
		c-0.6,2.1-2.3,3.6-6.2,5.9c-0.7,0.5-1.5,0.4-1.6-0.4c-0.2-1.1-0.9-2.3-1.4-2.4c-0.7-0.1-0.6-1.2-0.4-1.6c0.6-1,2.9-3.3,3.5-4.3
		c0.4-0.5,0.1-0.6-0.4-0.6c-1.3,0-2.5,0.6-3.6,0.7c-0.6,0.1-1,0.4-1.5,0.8c-0.3,0.3-0.9,0.7-1.4,0.9c-1.7,0.8-2.3,0.5-1.9,0
		c0.3-0.4,1.7-1.7,2-2.4c0.4-0.8,0.2-0.9-0.7-1.2c-1.3-0.4-2.6-0.3-3.3,0.4c-0.7,0.7-2.1,2.1-3.8,3.8c-0.6,0.6-0.8,0.1-0.8,0
		c0.4-1.3,0.7-3.1,0.5-5.3c-0.1-0.8-0.2-1.2-0.4-1.2c-0.7-0.6-1.9-1.2-2.6-1.8c-1.7-1.6-4-2.7-5-2.9c-0.7-0.1-1.2-0.3-1.2,0.5
		c0.1,3.7-0.2,6.7-1.2,8.7c-0.4,0.8-1.3-0.6-1.9-1.9c-0.8-1.7-1.9-2.3-4.8-2.3c0.3,0.1,0.5,0.3,0.5,0.6l2.6,2.1
		c1.9,1.6,2,7.3,2.2,9.8c-0.1,0.8-0.1,4.3,0,5.7c0.2,2.5-0.4,3.2-0.6,5.5c-0.2,1.7-0.3,3.4-0.8,4.4c0.1,2.3,3.4,0.2,3.8-2
		c0.1-1.6,0.6-2.9,0.9-4.2c1-3.1,1.6-5.7-0.1-8.6c-0.3-0.5-0.6-0.9-0.6-1.1c-0.8-1.7-1.7-2.3-0.8-4.2c1.6-2.7,1.2-4.9,3.1-7
		c0.7-0.9,2.6,0,3.1,1c0.7,1.5,2.2,2.6,2,4.7c-0.2,1.9-0.3,4.2-1.2,6.3c-0.2,0.4-0.5,0.6-0.7,1c-1.9,1.9-1.2,4.2-1.8,6.4
		c-0.7,3-0.6,5.9-0.6,8.2c0.3,3,3.2,1.8,3.2,0c0.4-2-1.3-2.5-0.8-4.5c3-3.2,3.8-8.7,5.1-10.8c1.1-2.4,2.1-3.9,3-4.7
		c0.4-0.4,1.3-0.6,1.3-0.7c0.8-1.1,1.9-0.4,0.6,1.6c-1.1,1.6-1.1,1.1-1.8,2.9c-0.2,0.6-1.1,0.8-1.5,1.4c-1.2,1.5-2.2,3.4-1.9,7.4
		c0.1,1.4,1.9-1.7,1.9-1.9c0.6-0.9,1.6-3.9,1.8-4.2c2-2.6,1.2-2.6,2.6-4.9c0.1-0.2,0.8-0.6,1-0.8c0.4-0.4,0.6-0.7,1.1-1
		c0.2-0.1,0.5,0.1,0.5,0.6s0.6,1.3,1.2,1.9c0.6,0.6,0.8,1.9,0.6,2.6c-0.2,0.7,0.5,1.6,0.9,2.4c0.3,0.5,0,0.6-0.5,0.8
		c-1.1,0.5-4.2,1.8-6.5,3.2c-2.4,1.5-2.2,1.8-3.5,4c-0.5,0.7-2,3-2.4,3.7c-0.8,2,2.2,2.2,4.2,0.4c3.9-3,9.6-9.1,10.8-12.1
		c0.4-1.2,2.3-3.1,3.4-4c1.6-1,4-2.7,5.6-3.8c0.4-0.3,1.2-0.6,0.8,0.5c-2.5,1.9-7.1,6.3-7.7,8.3c-2.4,4.3-4.4,8.2-6.5,10
		c-0.3,0.5-0.5,0.7-0.6,1c-0.5,1.3,0.7,1.2,1.7,0.7l0,0l0,0c0.6-0.4,1.3-0.8,1.8-1.4c1.6-1.8,3.5-5.4,5-6.7c2-2.3,4.4-4.2,6.4-6.3
		c0.5-0.5,1.8-1.2,3.3-1.9c2.4-1,4.6-3.2,7.1-4c2.7-0.9,4.5-1.5,7.2-1.9l-0.1,0.1l0,0c-1.8,0.9-3.2,1.7-4.1,2.3
		c-0.3,0.2-0.5,0.5-0.6,0.6c-0.7,1.1-2.1,1.8-3.2,2.4c-2,1.3-2.4,1.9-4.3,3.5c-4.5,4-8,7.3-11.5,11.8c-1.2,1.5-3.2,4.1-4.3,5.7
		c-0.8,1.2-1.7,2.5-2.6,3.9l1.5-0.1c27.8-3.3,61.6-3.2,90.6-0.5l0,0c0,0,0,0-0.1,0c-1.5-1-3.5-2.1-4.7-2.9
		c-3.5-2.2-9.3-4.9-13.1-6.6c-4.7-2-9.9-2.9-14.8-4.5c-2.3-0.8-4.5-2.3-6.9-3c-0.6-0.2-1.5,0.4-0.9,0.8c3.6,3.2,6.4,3.8,9.4,7
		c0.7,0.7,2.1,3.3-0.9,3c-1.7-0.2-3.4-0.2-5-0.8c-2.6-1-4.2-1.8-6.4-2.9c-2.6-1.2-5.4-1.5-5.7,0.9c-0.2,1.5,0.6,3.2-0.6,4.5
		C343.5,64.8,342.5,65.4,341.4,65.8L341.4,65.8z M125.5,53.7c3.6-1.1,9.2-1.3,14.2-3.2l-5,5.6c-1.2,1.3-2.6,2.5-4,3.6
		c-1.5,1.1-3.2,1.9-4.5,3.2c-1.2,1.2-2.3,2.6-3,4.2c-1.2,2.9-1.8,2.9-4.9,2.4c-0.9-0.1-1.9-0.2-3-0.3c-1.3-0.1-2.6-0.2-3.9-0.2
		c-3-0.1-6.4-0.1-9.6,0.2c2.9-3,6-6.1,9.1-8.1C118.1,56.4,124.3,54.1,125.5,53.7L125.5,53.7z M213.8,53.2c-1.6,2.2-6,8.3-7.6,10.5
		c-0.4,0.6-0.6,1.2-1,1.9c-2.2,4.1,4.1,4.7,6.5,1.7c0.7-0.9,1.3-3.8,1.3-4.6c0-1.4,0.9-3.8,2.1-6.2
		C214.2,55.5,213.3,55.2,213.8,53.2L213.8,53.2z M241.5,41.6c0.4-0.3,0.8-0.4,0.7,0.3c-0.2,0.9-0.5,2-0.6,3
		c-0.2,1.2-0.3,2.5,0.4,3.2c0.1,0.1,0.2,0.2,0.4,0.3l0,0c-0.5,0.6-1,0-1.3-0.6c-0.1-0.5-0.1-1.3,0.1-1.9c0.1-0.4-0.2-1.3-0.8-0.2
		l0,0l0,0l0,0l0,0l0,0l0,0l0,0l0,0l0,0l0,0l0,0l0,0l0,0l0,0l0,0l0,0l0,0l0,0l0,0l0,0l0,0l0,0l0,0l0,0l0,0l0,0l0,0l0,0l0,0l0,0l0,0
		l0,0l0,0l0,0l0,0l0,0l0,0l0,0l0,0l0,0l0,0l0,0l0,0l0,0l0,0l0,0l0,0l0,0l0,0l0,0l0,0l0,0l0,0l0,0l0,0l0,0l0,0l0,0l0,0l0,0l0,0l0,0
		l0,0l0,0l0,0l0,0l0,0l0,0l0,0l0,0l0,0l0,0l0,0l0,0l0,0l0,0l0,0l0,0l0,0l0,0l0,0c-1.1,1.8-2.3,3.4-3.9,5.2c-2.7,3-6.4,7.1-7.3,8.6
		c-1.5,1.6-2.4,1.1-3.7,2.8c-0.5,0.6-1.5,0.7-1.6,0c-0.2-1.3,5.1-10.6,5.2-11.9c0.1-0.9-0.6-2-1.9,0.5c-1.9,2-4.4,0.9-4.1-0.6
		c0.4-1.9,1.3-3.3,2.7-5.9c0-0.5,2-3.1,2.1-3.7c0-0.3,0.5-1.5,1.2-2.2c0.3-0.3-0.1-0.5-0.3-0.5c0.1-0.1,0.2-0.3,0.2-0.4
		c0.9-1.5,2.3-3.2,3-4.8c0.7-2,1.1-4.2,1.9-6.1c0.6-1.9,1.2-3.3,2.9-6.1c0.1-0.1,0.2-0.2,0.3-0.3c0.9-0.6,0.7,0.2,0.6,0.5l-1.1,5.6
		c-0.6,2.7-2.2,5-3.1,7.6c-0.1,0.2,0.4,0.5,0.5,0.4c1.1-1,2.1-2.2,3-3.5c0.9-1.5,2.4-5.3,2.6-7c0.2-1.9,0.5-4.5,0.5-6.6
		c1.5-0.5,4.9-1.5,6.8-2.3c-0.7,0.5-1.4,0.9-1.9,1.6c-1.1,1.4-0.9,3.4-1.4,5.1c-0.4,1.4-0.4,2.8-0.9,4.1c-0.7,1.9-2.4,3.5-2.9,5.6
		c-0.1,0.5-6.2,6.8-6.6,7.2c-4.5,5.1,0.3,5.4-2.4,10c-2.5,4.4,0.5,4.7,2,3.2c2.5-2.3,6.8-7.4,8.3-9.8
		C239.9,43.2,240.7,42.2,241.5,41.6L241.5,41.6z M249.3,30c1.7-0.3,2.5-0.2,3.7-0.2c1.1,0,2.4,0.6,3.3,1.3c0.9,0.7,1.4,3.4,1.4,4.8
		c-0.1,3.1,2,4.1,1.6,6.2c-0.6,2.8-2.2,5.8-2.5,6.5c-1.5,3.2-2.2,4.8-3.1,7.5c-0.5,2.2-1.8,4.4-1.5,6.7c0.1,0.7,1.8,0.1,2.1-0.5
		c3.2-5.2,7-12.8,12.7-19.8c1.1-1.4-0.1-1.4,0.3-4.1c0.1-0.5,0.6-1.9,0.8-2.1c0.9-1.3-0.2-1.1,1.8-3.1c0,0,0,0,0.1-0.1
		c-0.6,0.3-1.9,1.4-2.6,2.6c-0.8,1.6-1.2,3.2-1.6,4.4c-0.5,1.8-2.7,3.8-2.7,4c-0.2,0.6-0.7,0.1-0.7-0.1l0.6-2.7
		c0.3-1.6,0.6-3.1,0.8-4.6c0.1-0.9,0.5-1.9,0.2-2.9c-0.2-0.6-1.1-0.5-1.5-0.9c-0.5-0.6-0.4-1.7-0.8-2.3c-0.2-0.3-0.5-0.7-0.8-1l0,0
		l0,0l0,0l0,0l0,0l-0.1-0.1l0,0l0,0l0,0l0,0c-0.1-0.1-0.1-0.1-0.2-0.2l0,0l0,0l0,0c-0.1-0.1-0.1-0.1-0.2-0.2l0,0l0,0l0,0l0,0l0,0
		l0,0l0,0l0,0l0,0l0,0l0,0l0,0l0,0l0,0l0,0l0,0l0,0l0,0l0,0l0,0l0,0l0,0l0,0l0,0l0,0l0,0l0,0l0,0l0,0l0,0l0,0h-0.1l0,0l0,0l0,0l0,0
		l0,0l0,0l0,0h-0.1l0,0h-0.1l0,0H260l0,0h0l0,0l0,0l0,0h-0.1l0,0h-0.1l0,0l0,0l0,0l0,0h-0.1l0,0h-0.1l0,0h-0.1l0,0l0,0l0,0l0,0h-0.1
		l0,0l0,0l0,0l0,0h-0.1l0,0l0,0h-0.1l0,0l0,0l0,0h-0.1c-1.7,1.1-2,0.6-2.9-0.6c-0.5-0.7-2.3-0.7-3.5,0.6
		C251.3,29,250.3,29.5,249.3,30L249.3,30z M234.4,17.1c0.6-0.5,2.4-1.7,6.9-2.2c-1.5,1.1-3.2,2-4,2.6c-1.6,1.1-3.5,2.2-5.2,3.6
		c-0.5,0.5-1.5,2.1-3.5,4.5c-1.9,2.3-1.6,3.3-1.9,4.1c-1,2.4-2.4,3.9-5.1,5.8c-1,1.3-7.1,3.7-6.9,5.2c0.2,1.2-7,5.4-11,8.3
		c-1.7,1.2-4.6,4.2-7,6.7c-4.4,4.6-5.3,3.6-9.4,4.2c-3.2,0.3-4.6,0.6-3.3-3.7c0.7-2.6,2.3-3.3,4.7-3.5c1.6-0.1,3.3-0.1,3.8-0.1
		c2.1,0,3.9-2.5,3.7-5.9c-0.2-2.5,3.4-3.7,5.2-4.7c1.4-0.8,4-0.6,5.9-4.3c0.1-0.1,1-1.9,3.5-3.9c0.8-0.7,6.6-4.3,9.8-5.7
		c1.6-0.6,0.9-1.2,0.5-1.2c-1.9,0.2-7,1.4-8.4,1.6c-1,0.1-1.4-0.3-0.8-1c0.9-1.3,3.1-3,5.7-3c1.5,0,3.8-0.8,6.1-1.7
		c0.9-0.4,2.3-1.3,4.1-3.2C229.2,19.4,232.3,18.6,234.4,17.1L234.4,17.1z M237.9,11.2c-1.4-0.8-2.9-1.9-4.3-2.6
		c0.1-0.5,0.3-0.6,0.5-1c0.4-0.3,0.8-0.9,1.4-1.1c0.3-0.1,0.6-0.2,0.8-0.2c0,0.3,0,0.6,0,0.9c0,0.6,0.1,1.3,0.4,1.9
		c0.5,0.8,1.3,1.7,2,2.3L237.9,11.2L237.9,11.2z"/>
	<path id="Squamish" fill="#FFFFFF" d="M341.1,208.2c0,0.5,0.2,0.8,0.4,1.1c0.3,0.3,0.6,0.5,0.9,0.5h17.4c0.3,0,0.5-0.1,0.6-0.4
		c0.2-0.2,0.3-0.5,0.3-0.7V181c0-0.2,0.1-0.5,0.2-0.6c0.1-0.2,0.3-0.3,0.6-0.3h2.4c0.2,0,0.4,0.1,0.5,0.3s0.2,0.4,0.2,0.6v27.6
		c0,0.3,0.1,0.6,0.3,0.7c0.2,0.3,0.4,0.4,0.6,0.4h18.1c0.3,0,0.5-0.2,0.6-0.4c0.2-0.2,0.2-0.5,0.2-0.7v-77.2c0-0.3-0.1-0.5-0.3-0.6
		c-0.2-0.2-0.5-0.3-0.7-0.3h-17.9c-0.3,0-0.5,0.1-0.6,0.3c-0.2,0.2-0.2,0.4-0.2,0.6V159c0,0.2-0.1,0.4-0.3,0.5
		c-0.2,0.2-0.4,0.2-0.6,0.3h-2.1c-0.2,0-0.4-0.1-0.6-0.2c-0.2-0.2-0.2-0.3-0.2-0.6v-27.7c0-0.3-0.1-0.5-0.3-0.6
		c-0.2-0.2-0.4-0.2-0.7-0.2H342c-0.3,0-0.6,0.1-0.7,0.3s-0.3,0.5-0.3,0.7L341.1,208.2L341.1,208.2z M286.6,209.8
		c0.4,0,0.6-0.2,0.9-0.5c0.2-0.3,0.4-0.6,0.4-0.9v-77c0-0.3-0.1-0.6-0.4-0.7c-0.2-0.2-0.6-0.3-0.9-0.3h-18.1c-0.3,0-0.5,0.1-0.6,0.4
		c-0.2,0.2-0.3,0.5-0.3,0.7v76.7c0,0.5,0.2,0.8,0.4,1.1c0.3,0.3,0.6,0.5,0.9,0.5H286.6L286.6,209.8z M213.5,209.8
		c0.4,0,0.6-0.1,0.8-0.3s0.3-0.5,0.3-0.8v-31c0-0.5,0.1-0.7,0.2-1s0.2-0.4,0.4-0.4s0.4,0.1,0.6,0.4c0.2,0.3,0.4,0.8,0.6,1.8
		l4.8,30.2c0.1,0.4,0.3,0.6,0.5,0.8s0.5,0.3,0.7,0.3h12c0.3,0,0.6-0.1,0.7-0.2c0.2-0.1,0.4-0.4,0.5-0.6l5.5-32.5
		c0.2-0.8,0.3-1.4,0.4-1.7c0.1-0.3,0.2-0.5,0.4-0.5c0.1,0,0.2,0.1,0.3,0.3s0.1,0.5,0.1,0.9v33.1c0,0.4,0.1,0.6,0.4,0.8
		c0.2,0.2,0.5,0.3,0.8,0.3h19.2c0.4,0,0.6-0.1,0.8-0.3c0.2-0.2,0.4-0.5,0.4-0.7v-77.2c0-0.4-0.1-0.6-0.3-0.8
		c-0.2-0.2-0.5-0.3-0.8-0.3h-29.4c-0.3,0-0.6,0.1-0.7,0.4c-0.2,0.2-0.4,0.5-0.4,0.8l-2.5,20.9c0,0.4-0.1,0.6-0.1,0.8
		c-0.1,0.2-0.2,0.3-0.3,0.3s-0.2-0.1-0.3-0.3s-0.2-0.5-0.2-0.8l-3.2-21c-0.1-0.3-0.2-0.6-0.4-0.7c-0.2-0.2-0.5-0.3-0.6-0.3h-28.4
		c-0.3,0-0.5,0.1-0.6,0.4c-0.2,0.2-0.2,0.5-0.2,0.7V209c0,0.2,0.1,0.5,0.3,0.6c0.2,0.2,0.4,0.3,0.6,0.3L213.5,209.8L213.5,209.8z
		 M168.7,180.5c0.1,0.3,0,0.6-0.2,0.6c-0.1,0.2-0.5,0.2-1,0.3c-0.6,0-1.4,0-2.5,0c-0.3,0-0.5-0.1-0.6-0.4c-0.1-0.2-0.2-0.5-0.1-0.7
		l1.4-10c0.1-0.8,0.2-1.5,0.4-1.9c0.1-0.4,0.3-0.6,0.4-0.6c0.1,0,0.3,0.2,0.4,0.6c0.1,0.5,0.2,1,0.4,1.8L168.7,180.5L168.7,180.5z
		 M156,130.4c-0.3,0-0.6,0.2-0.8,0.5s-0.4,0.6-0.5,0.8L140.5,208c-0.1,0.6,0,0.9,0.2,1.3s0.6,0.5,1.1,0.6h17.4
		c0.3,0,0.6-0.1,0.8-0.3c0.3-0.2,0.5-0.5,0.6-0.8l2-15.6c0.1-0.3,0.2-0.6,0.4-0.7s0.4-0.3,0.6-0.3h5.7c0.3,0,0.5,0.1,0.6,0.2
		c0.2,0.2,0.3,0.4,0.4,0.6l2.1,15.9c0.1,0.3,0.2,0.6,0.5,0.7s0.6,0.3,0.9,0.3H191c0.6,0,1-0.3,1.3-0.7c0.3-0.5,0.4-1,0.2-1.6
		L178,131.9c-0.1-0.4-0.2-0.7-0.5-0.9c-0.3-0.3-0.6-0.4-0.9-0.4H156V130.4z M97.3,130.4c-0.3,0-0.6,0.1-0.7,0.3
		c-0.2,0.2-0.3,0.5-0.3,0.8v56.7c0,2.8,0.5,5.5,1.5,8.1c0.9,2.6,2.4,4.8,4.3,6.9s4.2,3.6,6.9,4.8s5.8,1.8,9.4,1.9
		c3.5,0,6.6-0.6,9.4-1.8c2.7-1.2,5-2.8,7-4.8c1.9-2,3.3-4.4,4.3-6.9c1-2.6,1.5-5.3,1.5-8.1v-56.8c0-0.4-0.2-0.6-0.4-0.8
		s-0.5-0.3-0.7-0.3h-17.9c-0.3,0-0.6,0.1-0.8,0.4c-0.2,0.2-0.4,0.5-0.4,0.7v54c0,0.6-0.2,1.2-0.5,1.6c-0.3,0.4-0.7,0.6-1.4,0.6
		s-1.1-0.2-1.4-0.6c-0.3-0.5-0.5-0.9-0.5-1.7v-53.8c0-0.4-0.1-0.6-0.4-0.8c-0.2-0.2-0.5-0.3-0.8-0.3L97.3,130.4L97.3,130.4z
		 M86.1,136.2c-4.2-4.1-9.6-5.9-15.4-5.9s-11.2,1.9-15.4,5.9c-4.8,4.8-6.5,11.6-6.6,18.3v31.3c0,4.1,0.6,7.7,1.8,10.8
		s2.8,5.6,4.8,7.6s4.4,3.5,7,4.5s5.4,1.5,8.3,1.5c1.9-0.1,3.9-0.4,5.7-0.9c0.5-0.1,0.7-0.2,1.1,0.1c0.7,0.5,1.7,1,2.4,1.5
		c3.2,2.1,8.2,3.2,11.9-0.2c1.8-1.6,3-3.2,4.2-5.9c0.1-0.3,0.2-0.6-0.1-0.7l-6.6-4.1c-0.1,0-0.1-0.1,0-0.2c0.1-0.1,0.1-0.2,0.2-0.3
		c0.4-0.6,0.6-1.1,0.9-1.8c0.7-1.4,1.3-3.2,1.8-5.1c0.5-2,0.7-4.5,0.7-6.6c0.1-9.1,0.1-18.2,0.1-27.3c0-1,0-1.9-0.1-3
		C92.7,148.4,91.5,141.4,86.1,136.2L86.1,136.2z M69,154.7c0-0.7,0.2-1.4,0.5-1.9c0.3-0.6,0.7-0.8,1.3-0.8c0.6,0,1,0.3,1.3,0.8
		c0.3,0.6,0.4,1.2,0.4,1.9v30.7c0,0.8-0.2,1.6-0.4,2c-0.3,0.6-0.7,0.7-1.3,0.8c-0.6,0-1.1-0.3-1.3-0.7c-0.3-0.6-0.4-1.2-0.4-1.9
		L69,154.7L69,154.7z M44.9,158c0.7,0,1.3-0.5,1.3-1.4c0-7.8-2.7-16-7-20.2c-4.2-4.1-9.8-6.3-16.1-6.3c-4.9,0-9.8,1.5-13.8,4.6
		c-5,4-8.5,10.7-8.5,17.9c0,8.6,4.7,16,10.7,20.9c3.6,2.9,8.2,6.2,11.3,9.7c4.6,5.1-0.7,9.7-3.7,3.9c-0.9-1.8-1.5-4-1.7-5.7
		c-0.1-0.9-0.5-1.4-1.3-1.4H1c-0.6,0-1,0.3-1,1c0,7.6,1.4,15.7,6,21.3c4.6,5.7,11,7.6,17.6,7.6c7.3,0,14.1-3.3,18.3-9.9
		c4-6.3,5.6-15.9,2.5-23.2c-2-4.8-6.2-9.7-10.2-12.4c-3.2-2.1-8.9-5.9-10.8-9.5c-1.9-3.2,1.8-6,3.4-2.1c0.4,0.9,0.6,2.2,0.7,4.1
		c0.2,0.7,0.6,1.2,1.3,1.2h16L44.9,158L44.9,158z M336.2,158c0.7,0,1.3-0.5,1.3-1.4c0-7.8-2.7-16-7-20.2c-4.2-4.1-9.8-6.3-16.1-6.3
		c-4.9,0-9.8,1.5-13.8,4.6c-5,4-8.5,10.7-8.5,17.9c0,8.6,4.7,16,10.7,20.9c3.6,2.9,8.2,6.2,11.3,9.7c4.6,5.1-0.7,9.7-3.7,3.9
		c-0.9-1.8-1.5-4-1.7-5.7c-0.1-0.9-0.5-1.4-1.3-1.4h-14.9c-0.6,0-1,0.3-1,1c0,7.6,1.4,15.7,6,21.3c4.6,5.7,11,7.6,17.6,7.6
		c7.3,0,14.1-3.3,18.3-9.9c4-6.3,5.6-15.9,2.5-23.2c-2-4.8-6.2-9.7-10.2-12.4c-3.2-2.1-8.9-5.9-10.8-9.5c-1.9-3.2,1.8-6,3.4-2.1
		c0.4,0.9,0.6,2.2,0.7,4.1c0.2,0.7,0.6,1.2,1.3,1.2h15.9L336.2,158L336.2,158z"/>
	<path id="_x35_0" fill="#CEBB6B" d="M447.1,186.1c0,3.5,0.6,6.7,1.9,9.6c1.2,2.9,3,5.5,5.3,7.6s5.1,3.8,8.3,5
		c3.2,1.2,6.8,1.8,10.8,1.8s7.6-0.6,10.8-1.8c3.2-1.2,6.1-2.9,8.4-5s4.2-4.7,5.5-7.6c1.3-2.9,1.9-6.1,1.9-9.6v-32.7
		c0-3.4-0.6-6.6-1.9-9.5s-3.1-5.4-5.5-7.5c-2.3-2.1-5.2-3.8-8.4-5c-3.2-1.2-6.8-1.8-10.8-1.8s-7.6,0.6-10.8,1.8
		c-3.2,1.2-6,2.9-8.3,5s-4.1,4.6-5.3,7.5c-1.2,2.9-1.9,6-1.9,9.5V186.1L447.1,186.1z M471.3,153.6c0-0.6,0.2-1.2,0.6-1.5
		c0.4-0.4,0.9-0.6,1.5-0.6s1.2,0.2,1.5,0.6c0.4,0.4,0.6,0.9,0.6,1.6v31.9c0,0.7-0.2,1.2-0.6,1.6c-0.4,0.4-0.8,0.6-1.5,0.6
		c-0.6,0-1.2-0.2-1.5-0.6c-0.4-0.4-0.6-0.9-0.6-1.6V153.6L471.3,153.6z M390.7,175c0,0.4,0.1,0.6,0.3,0.8c0.2,0.1,0.5,0.2,0.7,0.2
		h21.9c0.4,0,0.6-0.1,0.7-0.7c0.1-2.2,0.7-3.2,2-3.2c1.8,0,2.4,1.2,2.4,2.5c0.1,3.2,0.2,7.5,0.1,8.5c-0.1,1.6,0,3.6-1.9,3.5
		c-1,0-1.7-0.6-1.9-1.8c-0.2-1.1-0.3-2.6-0.3-3.2c0-0.3-0.1-0.5-0.2-0.6s-0.3-0.2-0.6-0.2h-22.6c-0.2,0-0.4,0.1-0.5,0.2
		c-0.1,0.1-0.2,0.3-0.2,0.6v5c0,2.3,0.4,4.5,1.2,6.8c0.7,2.2,1.9,4.4,3.4,6.4s3.3,3.8,5.5,5.4c2.1,1.6,4.6,2.8,7.4,3.7
		s5.6,1.3,8.9,1.4c4.4,0,7.4-0.6,10.8-1.8c3.5-1.1,6.6-2.9,9.1-5.2c2.6-2.3,4.5-5.2,5.8-8.6c1.4-3.4,2-7.4,2-12.1
		c0-3.9-0.6-7.4-1.9-10.7c-1.2-3.2-3.1-6.1-5.4-8.5s-5.2-4.3-8.4-5.7c-3.2-1.3-7-2-10.9-2c-1.6,0-2.7,0.1-4,0.4
		c-1.3,0.3-2.4,0.6-3.2,1c-0.3,0.1-0.5,0.2-0.6,0.2c-0.1,0.1-0.2,0.1-0.3,0.1s-0.1,0-0.2,0s-0.1-0.1-0.1-0.3v-4.3
		c0-0.4,0.5-1,1.1-0.9l21,1.1c7.1,0.4,13.1-3.3,13.3-10.6l0.4-10.9c0-0.3-0.1-0.5-0.2-0.6s-0.4-0.2-0.6-0.2h-53
		c-0.6,0-1.2,0.6-1.2,1.3v43H390.7z"/>
	<path id="Nesters_Market" fill="#CEBB6B" d="M323,83.1c-0.2-0.5-0.7-1-1.2-1.2s-0.9-0.3-1.4-0.2c-0.3,0-0.6,0.1-0.8,0.2
		c-0.8,0.2-1.9,0.5-2.7,0.7c-0.4,0.1-0.8,0.3-1.2,0.4c-0.6,0.3-1.1,0.6-1.7,1.1s-1.1,1-1.6,1.6c-0.9,1-1.8,2-2.6,3.1
		c-5.4,6.6-10.8,13.1-16.2,19.7l0,0c-0.6,0.8-1.3,1.6-2,2.3c0.1-0.7,0.2-1.5,0.3-2.2c0.3-1.7,0.6-3.2,0.9-4.9c0.6-3.2,1.4-6.3,2-9.5
		c0.5-2.3,1-4.5,1.6-6.9c0.1-0.5,0.3-1,0.3-1.6c0.2-1.1-0.3-1.9-1.3-2.3c-0.6-0.3-1.2-0.5-1.9-0.5c-1.1,0-2.1,0.2-3.2,0.6
		c-0.7,0.2-1.4,0.5-2.1,0.8c-0.2,0.1-0.3,0.3-0.4,0.4c-0.6,1.1-1.5,2.2-2.2,3.3c-0.9,1.3-1.9,2.6-2.8,3.9c-1.8,2.5-3.6,5-5.5,7.4
		c-0.9,1.3-1.9,2.8-3,3.9c0-0.9,0-1.9,0.1-2.9c0.1-2.6,0.2-5.2,0.3-7.8c0.1-1.7,0.1-3.3,0.2-4.9c0-0.5,0.1-0.9,0.1-1.4
		s0-0.9-0.2-1.4c-0.5-1.5-1.9-1.8-3.3-1.6c-0.6,0.1-1.1,0.2-1.7,0.4c-0.9,0.3-1.9,0.6-2.9,0.9c-0.4,0.1-0.7,0.3-1,0.5
		c-0.4,0.2-0.5,0.3-0.6,0.6c-0.5,1.3-0.8,2.4-1.4,3.7c-0.6,1.1-1.1,2.1-1.6,3.2c-1.9,3.9-3.8,7.9-5.7,11.8c-0.9,1.9-1.8,3.7-2.8,5.6
		c-0.6,1-1.1,2.1-1.8,3.1c-0.3,0.4-0.6,0.8-0.7,1.2c-0.7,1.5,0.8,2,2.1,1.7c0.8-0.3,1.7-0.6,2.4-1s1.5-0.8,2.1-1.3
		c1.2-0.8,1.8-1.6,2.5-2.9c0.4-0.7,0.7-1.5,1.1-2.2c1.6-3.4,3.2-7,4.8-10.3c0.5-0.9,0.9-1.8,1.4-2.7c-0.3,4-0.4,8-0.5,12.1
		c0,0.8-0.1,1.8-0.1,2.6c0,0.7,0,1.8,0.2,2.5c0.1,0.6,0.2,1,0.6,1.4c0.6,0.6,1.4,0.8,2.2,0.7c0.7-0.1,1.5-0.3,2.1-0.6
		c1.2-0.6,1.9-1.5,2.8-2.5c1.1-1.2,1.9-2.4,3.1-3.8c1-1.3,1.9-2.6,3-4c1.3-1.8,2.5-3.4,3.8-5.2c0.8-1.1,1.7-2.2,2.4-3.3
		c-0.3,1.3-0.6,2.7-0.9,4c-0.4,1.6-0.7,3.2-1.1,4.7c-0.5,2-0.9,4-1.3,6.1c-0.2,0.9-0.4,1.9-0.4,2.8c0,0.4-0.1,0.7,0,1.1
		c0.3,1.4,1.8,1.7,2.9,1.2c0.4-0.2,0.6-0.3,0.9-0.5c0.6-0.4,1.2-0.7,1.9-1c-0.1,0.3-0.2,0.6,0,1s0.6,0.7,0.9,0.9
		c0.6,0.4,1.3,0.4,1.9,0.2c0.7-0.2,1.3-0.5,1.9-0.8c1.7-1,3.1-2.4,4.3-3.9c0.7-0.9,1.4-1.9,2.1-2.8l0,0l0,0l0,0
		c0.9-1.1,1.6-1.5,3-1.8c0.7-0.1,1.5-0.2,2.2-0.3c2.7-0.2,8-0.5,8-0.5c-0.1,0.7-0.1,1.5-0.2,2.2c-0.1,0.8-0.1,1.7-0.1,2.5
		c0,0.5,0,0.9-0.1,1.4c0,0.5,0,0.9,0,1.5c0.1,0.7,0.2,1.5,0.8,1.9c0.6,0.6,1.6,0.6,2.3,0.3c0.6-0.3,1.1-0.6,1.7-0.9
		c0.6-0.4,1.1-0.7,1.7-1.1c0.4-0.3,0.8-0.6,1.1-0.9c0.4-0.5,0.6-1,0.5-1.7c-0.1-0.3-0.1-0.5-0.1-0.8c-0.1-0.9-0.1-1.9,0-2.9
		c0.4-5.6,1.1-15.9,1.4-19c0-0.5,0.1-0.8,0.1-1.3c0.1-0.8,0.3-1.6,0.5-2.3C323.1,84.4,323.3,83.9,323,83.1z M314.1,100.5
		c0,0-5.9,0.4-7.3,0.5c1.5-1.9,3.1-3.7,4.7-5.6c1.1-1.2,2.2-2.4,3.2-3.6C314.5,94.6,314.4,97.6,314.1,100.5z M388,85.9
		c-0.3-0.9-1-1.6-1.9-1.9c-0.8-0.4-1.6-0.4-2.4,0c-0.6,0.3-0.9,0.6-1.4,0.9c-1.7,1.2-3.2,2.3-5,3.4c-1.7,1.1-3.3,2.1-5,3.2
		c-1.4,0.8-2.8,1.7-4.3,2.5c-0.1,0-0.6,0.4-0.6,0.4c0.7-1.3,1.5-2.5,2.2-3.7s1.6-2.5,2.4-3.7c0.4-0.5,0.7-0.8,1-1.4
		c0.6-1.1-0.2-1.9-1.1-2.3c-0.7-0.3-1.7-0.2-2.5-0.1c-0.9,0.1-1.8,0.4-2.7,0.6c-0.7,0.2-1.5,0.5-2.2,0.8c-0.4,0.2-0.7,0.4-1,0.7
		c-0.3,0.4-0.5,0.7-0.6,1.2c-0.1,0.4-0.1,0.7-0.4,1.1c-0.1,0.3-0.3,0.5-0.4,0.7c-0.6,1.1-1.3,2.1-1.9,3.2c-2.4,4-4.7,8.2-6.7,12.4
		c-0.8,1.8-1.6,3.5-2.2,5.4c-0.2,0.6-0.4,1.2-0.6,1.8c-0.1-0.1-0.2-0.1-0.3-0.2c-0.4-0.2-0.6-0.3-0.9-0.6c-0.3-0.2-0.6-0.5-0.7-0.6
		c-0.6-0.6-1.3-1.4-1.9-2.1c-1.2-1.5-2.4-3-3.5-4.5c-0.4-0.5-1.2-1.6-1.4-2c1.8-0.6,2.9-0.9,4.3-1.6c1.8-0.7,3.5-1.5,5.2-2.5
		c1.9-1.1,3.6-2.2,5.1-3.8c1.2-1.3,1.9-2.4,2.2-4.2c0.4-2.2-0.3-4-2.4-5.3c-3.2-1.7-8-1.6-11.5-1.1c-4.4,0.5-8.3,1.4-12.5,2.8
		c-0.6,0.2-1.2,0.5-1.8,0.7c-0.6,0.4-1.2,0.7-1.6,1.3c-0.3,0.5-0.3,0.9,0,1.4s0.7,0.7,1.3,0.8s0.8,0.1,1.4,0
		c0.4-0.1,0.7-0.1,1.1-0.2c0,0-3.2,6-4.4,8.1c-1.3,2.5-2.6,5-3.7,7.6c-0.8,1.9-1.8,4.1-2.3,6.2c-0.2,0.8-0.4,1.5-0.4,2.3
		c-0.1,1.5,1.3,2.1,2.9,1.8c0.9-0.3,1.8-0.6,2.7-1c0.7-0.3,1.5-0.7,2.1-1.1s1-0.6,1.3-1.3c0.3-0.6,0.4-1.2,0.6-1.8
		c0.6-2.2,1.4-4.5,2.4-6.7c0.5,0.6,0.9,1.2,1.4,1.9c1.4,1.9,2.9,3.6,4.3,5.5c0.6,0.8,1.4,1.7,2.1,2.5c0.4,0.5,0.7,0.8,1.2,1.2
		c1.4,1,2.7,1.1,4.4,0.6c0.8-0.3,1.9-0.7,2.7-1.3l0.1-0.1c0,0.1,0,0.2,0,0.2c0,1.2,1.3,1.5,2.3,1.4c1.5-0.2,4.5-1.5,5.8-2.2
		c1.1-0.6,1.4-1.1,1.8-2.3c0.5-1.6,0.7-3,1.4-4.5c0.2-0.5,1.6-3.6,2-4.5c1,2,2.2,4.1,3.4,6c1.2,1.9,2.5,3.7,4,5.5
		c0.6,0.7,1.3,1.4,2,1.9c1.4,0.9,2.6,1.1,4.2,0.5c1.1-0.5,2.6-1.6,3.3-2.5c0.6-0.8,0.6-1.5-0.1-2.3c-0.3-0.3-0.6-0.6-1-0.7
		c-1-0.7-1.6-1.2-2.3-2.1c-1-1.3-2.1-2.8-3.2-4.4c-0.8-1.2-2.3-3.5-2.9-4.9c-0.1-0.2-0.1-0.3,0.1-0.5s0.4-0.3,0.6-0.5
		c0.6-0.5,1.3-0.9,2-1.4c1.5-1,2.9-1.9,4.4-2.8c1.8-1.1,3.6-2.4,5.4-3.3c1-0.6,2.1-1.2,3.2-1.8c0.3-0.2,0.6-0.4,0.9-0.6
		C388,87.4,388.3,86.7,388,85.9z M340.2,96.8c-0.7,0.2-1.5,0.4-2.2,0.6c-0.3,0.1-0.6,0.1-0.9,0.1c0.6-1.7,1.9-3.8,2.8-5.4
		c0.6-1.1,1.2-2.2,1.9-3.2c0.2-0.3,0.3-0.4,0.6-0.6c0.4-0.2,1-0.3,1.4-0.4c0.9-0.2,1.9-0.3,2.9-0.3c0.6,0,1.2,0,1.9,0.2
		c1.3,0.4,1.7,1.4,1.3,2.5c-0.2,0.6-0.5,0.9-0.8,1.5C347,94.3,343.4,95.7,340.2,96.8z M95.6,92.5c-0.3,0.6-0.6,1.2-0.9,1.9
		c-1,2-2,4.1-2.9,6.2c-0.5,1-0.9,2-1.4,3.2l0,0l0,0C89.2,99.9,88.1,91.5,88,87c0-0.5,0-0.8-0.1-1.3c0-0.6-0.1-1.1-0.5-1.7
		c-0.6-0.8-1.6-1.1-2.5-1c-0.9,0-2.1,0.4-3.1,0.6c-0.9,0.3-1.9,0.6-2.8,0.9c-0.3,0.1-0.6,0.3-0.7,0.4c-0.4,0.2-0.6,0.5-0.9,0.7
		c-0.3,0.4-0.4,0.6-0.6,0.9c-0.4,0.8-0.6,1.7-1,2.5c-1,2.1-1.9,4.1-3,6.3c-1.6,3.2-3.1,6.4-4.7,9.6c-0.6,1.1-1.1,2.2-1.7,3.2
		c-0.5,0.8-0.9,1.8-1.4,2.6c-0.3,0.5-0.6,1-0.7,1.5c-0.5,1-0.5,1.8,0.7,2.4c0.4,0.2,0.7,0.3,1.2,0.3c0.7,0,1.3-0.2,1.9-0.5
		c1.1-0.5,2.1-1,3.2-1.5c0.4-0.2,0.6-0.4,1-0.6c0.4-0.3,0.6-0.6,0.8-0.9c0.2-0.4,0.3-0.6,0.4-1c0.1-0.5,0.3-0.9,0.4-1.3
		c0.4-1.1,0.8-2.2,1.3-3.3c0.6-1.6,1.4-3.1,2.2-4.5c0.8-1.7,1.8-3.4,2.7-5.1c0.2,2.2,0.5,4.5,0.8,6.7c0.6,3.2,1.1,7,2.3,10
		c0.9,2.1,2.4,2.6,4.5,2c1.8-0.6,3.7-1.3,5.4-2.1c1.4-0.6,2-1.1,2.4-2.8c0.3-1.2,0.6-2.4,1-3.5c0.7-2.1,1.7-4.3,2.7-6.3
		c1.1-2.3,2.3-4.6,3.6-6.9c1.1-2,2.4-4.2,3.7-6.1c0.3-0.5,0.6-0.8,0.9-1.3c0.3-0.4,0.5-0.7,0.6-1.1s0.1-0.7-0.1-1.1
		c-0.3-0.6-0.8-0.8-1.4-1c-0.5-0.2-0.8-0.2-1.3-0.2c-0.6,0-1.3,0.1-1.9,0.3c-0.7,0.2-1.4,0.5-2.1,0.7c-0.6,0.3-1.2,0.6-1.9,0.8
		c-0.3,0.2-0.6,0.4-0.8,0.6c-0.3,0.3-0.5,0.7-0.6,1.1s-0.3,0.8-0.4,1.2c-0.3,0.6-0.6,1.2-0.9,1.9C96.7,90.2,96.2,91.3,95.6,92.5
		L95.6,92.5z M151.8,88.4c-0.4,1-1,1.9-1.9,2.6c-0.5,0.5-0.9,0.8-1.5,1.1c-0.5,0.3-1,0.5-1.6,0.5s-1-0.2-1.4-0.6
		c-0.1-0.2-0.2-0.5-0.2-0.7c0-0.6,0.3-0.9,0.5-1.5c0.2-0.5,0.2-1,0.1-1.6c-0.1-0.7-0.6-1.1-1.3-1.3c-0.9-0.2-2.2-0.1-3.2,0.1
		c-0.7,0.2-1.5,0.5-2.1,0.7c-1,0.6-2.3,1.5-2.9,2.5c-0.3,0.6-0.5,1.2-0.5,1.9c0.1,1.7,1.5,2.1,2.9,2.5c1.7,0.5,3.2,0.9,4.9,1.4
		c1.3,0.4,2.6,0.7,3.7,1.5c1.7,1.1,2.5,2.8,2.3,4.7c-0.1,1.2-0.6,2.3-1.2,3.3c-1.1,1.9-2.9,3.4-4.5,4.7c-1.9,1.5-4.2,2.9-6.4,3.7
		c-1.9,0.7-4.2,1.2-6.3,1.2c-1.2,0-2.4-0.2-3.5-0.6c-1.4-0.6-2.4-1.8-2.9-3.2c-0.6,0.4-1.1,0.7-1.5,1c-1.2,0.7-2.5,1.2-3.9,1.6
		c-2.1,0.6-4.5,0.9-6.8,1.1c-2.9,0.2-6.5,0.4-8.9-1.6c-1.6-1.3-2-3.2-1.8-5.2c0.2-1,0.5-2,0.7-3.1c1.3-4,3.1-7.6,4.9-11.4l1.7-3.4
		c0.2-0.5,0.4-0.8,0.6-1.3c0.1-0.3,0.2-0.5,0-0.7c-0.1-0.3-0.2-0.5-0.3-0.7c-0.2-0.5-0.1-1,0.2-1.5c0.3-0.5,0.6-0.7,0.9-1.1
		c0.7-0.7,1.8-1.1,2.8-1.4c0.8-0.2,1.6-0.3,2.4-0.5c1.9-0.3,4-0.5,5.9-0.6c2-0.2,4.2-0.2,6.2-0.1c0.7,0,1.6,0,2.2,0.3
		c0.7,0.4,1.2,0.9,0.8,1.8c-0.5,1.1-2.1,2.2-3.2,2.8c-0.9,0.5-1.9,0.6-3,0.7c-1.6,0.1-3.2,0.1-4.6,0.2c-0.6,0-1.4,0.1-1.9,0.3
		c-0.6,0.2-0.6,0.4-1,0.8c-0.3,0.4-0.5,0.8-0.7,1.3c-0.4,0.7-0.8,1.7-1.3,2.6c-0.3,0.6-0.6,1.2-0.7,1.8l3.7-0.4
		c1.3-0.1,2.6-0.2,3.9-0.3c1-0.1,1.9-0.1,3-0.1c0.5,0,1,0.1,1.4,0.3c0.6,0.3,0.9,0.9,0.6,1.6c-0.4,0.7-1.6,1.6-2.3,2
		c-1.1,0.6-2.1,1-3.4,1.3c-1,0.2-2,0.2-3.1,0.2l-2.4,0.1c-0.3,0-0.6,0-0.9,0c-0.5,0-1,0.1-1.6,0.2s-0.8,0.2-1.2,0.7
		c-0.5,0.6-1,1.9-1.3,2.6s-0.6,1.7-0.8,2.5c-0.2,0.6-0.6,1.9-0.5,2.5s0.2,0.6,0.8,0.7c0.6,0.1,1.5,0.1,2.2,0.1
		c1.4,0,2.9-0.2,4.3-0.5c1.6-0.3,3.2-0.6,4.8-1.1c0.6-0.2,1.2-0.3,1.8-0.5c0.4-0.1,0.7-0.2,1.2-0.1v-0.1c0.3-0.6,0.6-1.3,1.1-1.9
		c0.6-0.6,1.2-1.2,2-1.4c0.7-0.2,1.7,0,2,0.7c0.3,0.6,0.1,1.3,0,1.9s0,1.2,0.4,1.8c0.5,0.7,1.4,1.1,2.2,1.2c0.9,0.1,2,0,3-0.2
		c1.6-0.3,3.2-0.9,4.5-1.7c0.5-0.3,0.9-0.6,1.4-0.9c0.6-0.5,1-1,1.3-1.7s0.3-1.6-0.5-2c-0.4-0.3-1-0.4-1.5-0.6
		c-1.8-0.5-3.5-1-5.3-1.5c-2.1-0.6-4.5-1.3-5.7-3.2c-1.2-1.8-1.1-4.3-0.4-6.2c0.4-0.8,0.8-1.7,1.5-2.5c1.6-1.9,3.9-3.7,6.2-4.9
		c1.3-0.7,2.7-1.3,4.3-1.7c1.7-0.5,3.5-0.6,5.3-0.5c2.2,0.2,4.5,1,5,3.4C152.2,86.5,152.1,87.5,151.8,88.4z M221.4,83.2
		c-2.8-1.7-7-1.6-10.1-1.2c-3.9,0.5-7.4,1.4-11,2.8c-0.6,0.2-1.1,0.5-1.6,0.7c-0.6,0.4-1.1,0.7-1.4,1.3c-0.3,0.5-0.3,0.9,0,1.4
		s0.6,0.7,1.2,0.8c0.5,0.1,0.7,0.1,1.2,0c0.4-0.1,0.6-0.1,1-0.2c0,0-2.9,6.1-3.8,8.1c-1.2,2.5-2.3,5.1-3.2,7.7
		c-0.4,0.8-0.6,1.8-1,2.7c-0.6-0.2-1.1-0.1-1.6,0c-0.6,0.2-1.1,0.3-1.7,0.5c-1.5,0.4-3.1,0.8-4.5,1.1c-1.3,0.2-2.7,0.4-4,0.5
		c-0.6,0-1.5,0.1-2-0.1c-0.6-0.1-0.7-0.2-0.7-0.7c0-0.6,0.3-1.9,0.5-2.5c0.2-0.8,0.5-1.7,0.8-2.5c0.3-0.7,0.7-1.9,1.2-2.6
		c0.4-0.6,0.6-0.6,1.2-0.7c0.5-0.1,1-0.1,1.5-0.2c0.3,0,0.6,0,0.9,0l2.2-0.1c1,0,1.9,0,2.9-0.2c1.3-0.3,2.1-0.6,3.2-1.3
		c0.7-0.5,1.8-1.2,2.1-2c0.3-0.6,0-1.3-0.6-1.6c-0.4-0.2-0.8-0.3-1.3-0.3c-0.9,0-1.9,0-2.8,0.1c-1.2,0.1-2.4,0.2-3.7,0.3l-3.5,0.4
		c0.2-0.6,0.5-1.2,0.6-1.8c0.4-0.9,0.8-1.9,1.2-2.6c0.2-0.5,0.5-0.8,0.6-1.3c0.3-0.5,0.4-0.6,0.9-0.8c0.6-0.2,1.3-0.3,1.9-0.3
		c1.5-0.1,3-0.1,4.4-0.2c0.9-0.1,1.9-0.3,2.8-0.7c0.9-0.5,2.5-1.7,3-2.8c0.4-0.8,0-1.4-0.7-1.8c-0.6-0.3-1.5-0.3-2.1-0.3
		c-1.9-0.1-3.9-0.1-5.8,0.1c-1.9,0.2-3.8,0.3-5.7,0.6c0,0,0,0-0.1,0c0.6-0.7,0.5-1.6-0.6-2c-0.6-0.3-1.2-0.2-1.8-0.1
		c-0.7,0.1-1.7,0.3-2.6,0.4c-1.6,0.2-3.2,0.4-4.8,0.6c-4.5,0.5-12.1,1.2-12.1,1.2c-0.6,0-1.1,0.1-1.7,0.1c-0.3,0-0.6,0.1-0.9,0.1
		c-0.2,0-0.5,0.1-0.6,0.2c-0.6,0.3-1,0.5-1.6,0.7c-0.9,0.5-1.8,1-2.6,1.7c-0.6,0.5-1.1,0.8-1.5,1.5c-0.4,0.6-0.3,1.1,0.3,1.6
		c0.4,0.3,0.7,0.5,1.2,0.5c0.5,0.1,0.8,0,1.3,0s0.8-0.1,1.3-0.1c2-0.3,4-0.5,6-0.7c-1.1,2-2.2,4.1-3.3,6.1
		c-1.8,3.3-3.3,6.6-4.6,10.2c-0.8,2.1-2.2,5.7-2.4,7.9c-0.1,1.6,1,2.2,2.5,1.9c1.3-0.3,3.1-1.1,4.3-1.8c0.5-0.3,1.1-0.6,1.5-0.9
		c0.4-0.4,0.6-0.6,0.6-1c0.1-0.3,0.1-0.6,0.1-0.8c0-0.4,0.1-0.7,0.2-1.1c0.2-0.7,0.4-1.5,0.6-2.1c0.5-1.3,0.9-2.6,1.5-3.8
		c1.1-2.6,2.1-5,3.4-7.4c0.9-1.9,3.2-6.3,4.5-8c0.3-0.1,0.6-0.1,0.7-0.1c0.6-0.1,1.4-0.1,2-0.2c1.1-0.1,2.1-0.2,3.2-0.5
		c0,0.2,0,0.4,0.1,0.6c0.1,0.3,0.2,0.5,0.2,0.7c0.1,0.3,0.1,0.5,0,0.7c-0.2,0.5-0.4,0.9-0.6,1.3l-1.6,3.4c-1.8,3.8-3.3,7.4-4.6,11.4
		c-0.3,1-0.6,2-0.7,3.1c-0.3,2,0.2,3.8,1.7,5.2c2.2,1.9,5.7,1.8,8.3,1.6c2.1-0.2,4.3-0.6,6.3-1.1c1.3-0.4,2.5-0.8,3.6-1.6
		c0.3-0.2,0.6-0.4,0.8-0.6c-0.1,0.5-0.2,0.9-0.2,1.5c-0.1,1.6,1.1,2.1,2.5,1.8c0.8-0.3,1.6-0.6,2.3-1c0.6-0.3,1.3-0.7,1.9-1.1
		c0.6-0.4,0.9-0.6,1.1-1.3c0.2-0.6,0.3-1.2,0.5-1.8c0.5-2.2,1.2-4.5,2.1-6.7c0.4,0.6,0.8,1.2,1.2,1.9c1.2,1.9,2.5,3.7,3.8,5.5
		c0.6,0.8,1.2,1.7,1.9,2.5c0.4,0.5,0.6,0.8,1.1,1.2c1.2,1,2.4,1.1,3.9,0.6c0.7-0.3,1.7-0.7,2.4-1.4c0.3-0.3,0.6-0.6,0.8-0.9
		c0.4-0.6,0.5-1,0-1.6c-0.2-0.2-0.3-0.3-0.5-0.5c-0.3-0.2-0.6-0.3-0.8-0.6c-0.2-0.2-0.5-0.5-0.6-0.7c-0.6-0.6-1.2-1.4-1.7-2.1
		c-1.1-1.5-2.1-3-3.2-4.5c-0.3-0.5-1-1.6-1.3-2.1c1.5-0.6,2.5-0.9,3.8-1.6c1.6-0.7,3.1-1.6,4.5-2.5c1.8-1.1,3.2-2.2,4.5-3.8
		c1.1-1.3,1.8-2.4,2-4.2C223.9,86.3,223.4,84.5,221.4,83.2z M215.7,89.7c-0.2,0.6-0.4,0.9-0.7,1.5c-1.8,2.5-5,4.1-7.7,5.1
		c-0.6,0.2-1.3,0.4-1.9,0.6c-0.3,0.1-0.6,0.1-0.8,0.1c0.6-1.7,1.7-3.8,2.4-5.4c0.6-1.1,1-2.2,1.8-3.2c0.2-0.3,0.3-0.4,0.6-0.6
		c0.4-0.2,0.8-0.3,1.3-0.4c0.8-0.2,1.7-0.3,2.5-0.3c0.6,0,1,0,1.7,0.2C215.6,87.6,216,88.7,215.7,89.7z M236.8,96.2
		c-1.6-0.5-3.2-0.9-4.7-1.4c-1.3-0.4-2.6-0.7-2.8-2.5c0-0.6,0.1-1.3,0.4-1.9c0.6-1,1.8-1.9,2.8-2.5c0.6-0.4,1.4-0.6,2-0.7
		c0.9-0.2,2.1-0.3,3.1-0.1c0.7,0.2,1.2,0.5,1.3,1.3c0.1,0.5,0,1.1-0.1,1.6c-0.2,0.5-0.4,0.9-0.5,1.5c0,0.3,0.1,0.5,0.2,0.7
		c0.3,0.5,0.8,0.6,1.3,0.6c0.6,0,1-0.2,1.6-0.5s1-0.7,1.5-1.1c0.8-0.7,1.4-1.6,1.9-2.6c0.4-0.9,0.5-1.9,0.3-3
		c-0.5-2.4-2.7-3.2-4.8-3.4c-1.7-0.1-3.4,0.1-5.1,0.5c-1.5,0.4-2.8,0.9-4.1,1.7c-2.1,1.2-4.5,3-5.9,4.9c-0.6,0.8-1.1,1.7-1.5,2.5
		c-0.7,1.9-0.8,4.4,0.3,6.2c1.3,1.9,3.5,2.6,5.6,3.2c1.7,0.5,3.4,1,5.1,1.5c0.5,0.1,1,0.3,1.4,0.6c0.7,0.5,0.7,1.3,0.5,2
		c-0.3,0.6-0.7,1.2-1.3,1.7c-0.4,0.4-0.8,0.6-1.3,0.9c-1.3,0.8-3,1.4-4.5,1.7c-0.8,0.2-1.9,0.3-2.9,0.2c-0.8-0.1-1.7-0.5-2.1-1.2
		c-0.3-0.6-0.4-1.1-0.4-1.8c0.1-0.6,0.3-1.3,0-1.9c-0.4-0.7-1.2-0.9-1.9-0.7c-0.7,0.2-1.4,0.7-1.9,1.4c-0.5,0.6-0.8,1.2-1.1,1.9
		c-0.5,1.2-0.6,2.6-0.4,3.9c0.4,1.6,1.4,2.9,2.8,3.5c1,0.5,2.2,0.6,3.3,0.6c2,0,4.2-0.5,6.1-1.2c2.2-0.8,4.4-2.2,6.2-3.7
		c1.7-1.3,3.3-2.9,4.4-4.7c0.6-1,1-2.1,1.2-3.3c0.2-2-0.6-3.7-2.2-4.7C239.3,96.9,238,96.6,236.8,96.2L236.8,96.2z M397.2,95.3
		l-3.7,0.4c0.2-0.6,0.5-1.2,0.7-1.8c0.4-0.9,0.8-1.9,1.3-2.6c0.2-0.5,0.5-0.8,0.7-1.3c0.3-0.5,0.5-0.6,1-0.8
		c0.6-0.2,1.4-0.3,1.9-0.3c1.6-0.1,4.9-0.1,6.5-0.2c1-0.1,2-0.3,3-0.7c1-0.5,2.7-1.7,3.2-2.7c0.4-0.8,0-1.4-0.8-1.8
		c-0.6-0.3-1.6-0.3-2.2-0.3c-2-0.1-6-0.1-8.1,0.1c-1.9,0.2-4,0.3-5.9,0.6c-0.8,0.1-1.6,0.3-2.4,0.5c-1,0.3-1.9,0.6-2.8,1.3
		c-0.4,0.4-0.6,0.6-0.9,1.1s-0.4,0.9-0.2,1.4c0.1,0.3,0.2,0.5,0.3,0.7s0.1,0.5,0,0.7c-0.2,0.5-0.4,0.9-0.6,1.3l-1.7,3.4
		c-1.9,3.8-3.5,7.3-4.8,11.4c-0.3,1-0.6,2-0.7,3.1c-0.3,2,0.2,3.8,1.8,5.1c2.3,1.9,5.9,1.8,8.8,1.6c2.2-0.2,4.5-0.6,6.7-1.1
		c1.4-0.4,2.6-0.8,3.9-1.6c1-0.6,3.1-1.9,3.3-3.2c0.1-0.5,0-0.9-0.3-1.3c-0.6-0.6-1.7-0.6-2.5-0.5c-0.6,0.2-1.1,0.3-1.8,0.5
		c-1.6,0.4-3.2,0.8-4.8,1.1c-1.4,0.2-2.9,0.4-4.3,0.5c-0.6,0-1.5,0.1-2.2-0.1c-0.6-0.1-0.7-0.2-0.8-0.7c-0.1-0.6,0.3-1.9,0.5-2.5
		c0.2-0.8,0.6-1.7,0.8-2.5c0.3-0.7,0.7-1.9,1.3-2.6c0.4-0.6,0.6-0.6,1.2-0.7c0.5-0.1,1-0.1,1.6-0.2c0.3,0,0.6,0,0.9,0l2.4-0.1
		c1,0,2,0,3.1-0.2c1.3-0.3,2.3-0.6,3.4-1.3c0.7-0.5,1.9-1.2,2.3-2c0.4-0.6,0.1-1.3-0.6-1.6c-0.4-0.2-0.8-0.3-1.4-0.3
		c-1,0-1.9,0-3,0.1C399.8,95.1,398.5,95.2,397.2,95.3L397.2,95.3z M431,82.7c-4.4,0.5-11.6,1.2-11.7,1.2c-0.6,0-1,0.1-1.6,0.1
		c-0.3,0-0.6,0.1-0.9,0.1c-0.1,0-0.5,0.1-0.6,0.2c-0.6,0.3-1,0.5-1.5,0.7c-0.8,0.5-1.7,1-2.5,1.7c-0.6,0.5-1.1,0.8-1.5,1.5
		c-0.4,0.6-0.3,1.1,0.2,1.6c0.4,0.3,0.7,0.5,1.1,0.5c0.5,0.1,0.8,0,1.3,0c0.4,0,0.8-0.1,1.2-0.1c1.9-0.3,3.9-0.5,5.7-0.7
		c-1,2-2.1,4.1-3.2,6.1c-1.8,3.3-3.2,6.6-4.5,10.2c-0.7,2.1-2.1,5.7-2.3,7.9c-0.1,1.6,1,2.2,2.4,1.9c1.3-0.3,3-1.1,4.2-1.8
		c0.5-0.3,1.1-0.6,1.4-0.9c0.4-0.4,0.5-0.6,0.6-1c0.1-0.3,0.1-0.6,0.1-0.8c0-0.4,0.1-0.7,0.2-1.1c0.2-0.7,0.4-1.5,0.6-2.1
		c0.5-1.3,0.9-2.6,1.4-3.8c1-2.6,2.1-5,3.2-7.4c0.9-1.9,3.1-6.3,4.3-8c0.3-0.1,0.5-0.1,0.7-0.1c0.6-0.1,1.3-0.1,1.9-0.2
		c1.8-0.2,3.2-0.4,4.9-1.2c0.8-0.5,1.6-1,2.4-1.6c0.5-0.4,1-0.8,1.4-1.3c0.6-0.8,0.6-1.7-0.4-2.1c-0.6-0.3-1.1-0.2-1.8-0.1
		c-0.7,0.1-1.7,0.3-2.5,0.4C434.1,82.3,432.6,82.5,431,82.7L431,82.7z"/>
	<path fill="#CEBB6B" d="M65.2,248.1h2.9v-4.6h1.3c1.1,0,2-0.2,2.8-0.5c0.7-0.3,1.4-0.7,1.8-1.4c0.4-0.6,0.6-1.4,0.6-2.3
		c0-0.9-0.2-1.7-0.6-2.3s-0.9-1-1.8-1.3c-0.7-0.3-1.7-0.5-2.8-0.5h-4.3L65.2,248.1L65.2,248.1z M68.1,237.3h1.3c0.5,0,0.8,0,1.1,0.1
		s0.6,0.2,0.7,0.4c0.2,0.2,0.3,0.4,0.4,0.6c0.1,0.3,0.1,0.6,0.1,0.9c0,0.5-0.1,0.8-0.2,1.1c-0.2,0.3-0.4,0.6-0.7,0.7
		c-0.4,0.2-0.8,0.3-1.4,0.3h-1.3V237.3L68.1,237.3z M83.4,248.1H86v-0.7l-2.7-4.8c0.6-0.3,1.1-0.7,1.5-1.4c0.4-0.6,0.6-1.3,0.6-2.1
		s-0.2-1.5-0.6-2c-0.4-0.6-0.9-1-1.7-1.3c-0.7-0.3-1.6-0.5-2.7-0.5h-4.3V248H79v-5h1.7L83.4,248.1L83.4,248.1z M79,237.3h1.3
		c0.5,0,0.9,0.1,1.2,0.2c0.3,0.2,0.6,0.4,0.6,0.6c0.2,0.3,0.2,0.6,0.2,1c0,0.5-0.1,0.7-0.2,1c-0.2,0.3-0.4,0.5-0.6,0.6
		c-0.3,0.2-0.7,0.2-1.2,0.2h-1.4L79,237.3L79,237.3z M87.6,248.1h8.6v-2h-5.7v-3.5h4v-1.9h-4v-3.2h5.6v-2h-8.4L87.6,248.1
		L87.6,248.1z M101.5,248.2c1,0,1.9-0.2,2.6-0.5s1.2-0.7,1.6-1.3s0.6-1.3,0.6-2.1c0-0.6-0.1-1.1-0.2-1.5c-0.2-0.5-0.4-0.7-0.7-1.1
		c-0.3-0.3-0.7-0.6-1.2-0.7c-0.5-0.2-1.1-0.4-1.8-0.6c-0.5-0.1-0.9-0.3-1.3-0.4c-0.4-0.1-0.6-0.3-0.8-0.6c-0.2-0.2-0.3-0.5-0.3-0.8
		c0-0.6,0.2-0.9,0.6-1.1c0.4-0.3,0.9-0.4,1.6-0.4c0.6,0,1,0.1,1.4,0.3s0.7,0.4,1.1,0.6h0.9v-2c-0.4-0.3-0.9-0.5-1.5-0.6
		c-0.6-0.2-1.3-0.2-2-0.3c-0.6,0-1.3,0.1-1.8,0.2c-0.6,0.2-1,0.4-1.4,0.7s-0.7,0.7-0.9,1.2s-0.4,1-0.4,1.7c0,0.6,0.1,1,0.2,1.4
		c0.2,0.4,0.4,0.7,0.6,1c0.3,0.3,0.6,0.6,1.1,0.7c0.5,0.2,0.9,0.4,1.6,0.6c0.4,0.1,0.7,0.2,1,0.3c0.4,0.1,0.6,0.2,0.8,0.3
		c0.3,0.1,0.5,0.3,0.6,0.5c0.2,0.2,0.2,0.5,0.2,0.8c0,0.5-0.2,0.9-0.6,1.1c-0.4,0.3-0.9,0.4-1.8,0.4c-0.5,0-0.9-0.1-1.3-0.2
		c-0.4-0.1-0.7-0.3-1-0.5s-0.6-0.4-0.7-0.6h-0.9v2.1c0.4,0.2,0.7,0.4,1.1,0.6s0.8,0.3,1.3,0.4C100.4,248.2,100.9,248.2,101.5,248.2
		L101.5,248.2z M107.9,248.1h8.6v-2h-5.8v-3.5h4v-1.9h-4v-3.2h5.6v-2h-8.4L107.9,248.1L107.9,248.1z M118.3,248.1h2.4v-9.4h0.1
		l5.4,9.4h2.6v-12.8h-2.4v8.2h-0.1l-4.7-8.2h-3.2v12.8H118.3z M136.6,248.1v-10.8h3.5v-2h-9.8v2h3.5v10.8H136.6L136.6,248.1z
		 M141.7,248.1h8.6v-2h-5.8v-3.5h4v-1.9h-4v-3.2h5.6v-2h-8.4L141.7,248.1L141.7,248.1z M152,248.1h4c1.5,0,2.7-0.3,3.7-0.7
		s1.8-1.2,2.3-2.1c0.6-0.9,0.8-2.1,0.8-3.6s-0.3-2.7-0.8-3.6c-0.6-0.9-1.3-1.7-2.3-2c-1-0.5-2.2-0.6-3.6-0.6H152V248.1L152,248.1z
		 M154.9,246v-8.7h1.1c0.9,0,1.6,0.1,2.2,0.5c0.6,0.3,1,0.7,1.3,1.4c0.3,0.6,0.4,1.5,0.4,2.5s-0.1,1.9-0.4,2.5s-0.7,1.1-1.3,1.4
		c-0.6,0.3-1.3,0.5-2.2,0.5L154.9,246L154.9,246z M167.9,248.1h4.5c1,0,1.9-0.2,2.6-0.5c0.7-0.3,1.3-0.7,1.7-1.3s0.6-1.2,0.6-2
		c0-0.6-0.1-1.1-0.4-1.5c-0.2-0.4-0.6-0.7-0.9-0.9c-0.4-0.3-0.9-0.4-1.4-0.5v-0.1c0.5-0.1,0.8-0.3,1.2-0.5s0.6-0.6,0.8-0.8
		c0.2-0.4,0.3-0.8,0.3-1.3c0-1.1-0.4-2-1.1-2.6c-0.7-0.6-1.9-0.8-3.4-0.8H168L167.9,248.1L167.9,248.1z M170.7,246v-3.7h1.7
		c0.6,0,1.2,0.2,1.5,0.5c0.4,0.3,0.5,0.7,0.5,1.4c0,0.4-0.1,0.7-0.2,1c-0.2,0.3-0.4,0.5-0.6,0.6c-0.3,0.2-0.6,0.2-1.1,0.2H170.7
		L170.7,246z M170.7,240.5v-3.2h1.5c0.6,0,1,0.1,1.4,0.4c0.3,0.3,0.5,0.6,0.5,1.2c0,0.6-0.2,0.9-0.5,1.2s-0.7,0.4-1.4,0.4
		L170.7,240.5L170.7,240.5z M184.6,248.1V243l3.7-7v-0.8h-2.2l-2.8,5.4l0,0l-2.9-5.4h-2.7v0.8l4,7v4.9L184.6,248.1L184.6,248.1z"/>
	<path fill="#CEBB6B" d="M222.8,237.5c0-1.3,0.7-2,5.1-2c2.9,0,5.9,0.1,9.6,1.3v-4.2c-1.8-0.5-4.8-1-9.5-1c-8,0-10.1,2.4-10.1,6
		c0,4.4,3.4,5.6,10.1,6.4c3.8,0.4,5.6,0.5,5.6,1.8c0,1.3-0.9,1.8-5.2,1.8c-3,0-6.5-0.3-9.9-1.6v4.5c3.5,0.9,6.3,1.2,10,1.2
		c6,0,10.1-1.2,10.1-6.1c0-4.7-3.4-5.3-10-6C225.4,239.3,222.8,239,222.8,237.5L222.8,237.5z M255.6,244.2L255.6,244.2
		c0,2.9-2.5,3.4-5.9,3.4c-4,0-4.8-0.8-4.8-1.9c0-1.3,1.3-1.5,4.6-1.9c2.7-0.4,5.5-1,6.2-1.7L255.6,244.2L255.6,244.2z M260.1,245.1
		L260.1,245.1v-7c0-5.9-5.1-6.7-9.9-6.7c-2.3,0-5.8,0.5-8.4,1.2v4.2c3.4-0.7,6.5-1.1,8.4-1.1c2.2,0,4.9,0.2,4.9,1.7
		c0,1.3-1.6,1.8-4.9,2.3c-6,0.8-10.2,1.6-10.2,6.1c0,4.8,3.8,6.1,10.2,6.1C257.5,251.8,260.1,249.2,260.1,245.1L260.1,245.1z
		 M270.7,251.5L270.7,251.5c1.6,0,3.8-0.1,5.2-0.3l-0.6-3.9c-1.3,0.2-3.1,0.3-4.6,0.3c-2.6,0-4.4-1-4.4-3v-12.9h-4.5v13.2
		C261.9,250.3,266.8,251.5,270.7,251.5L270.7,251.5L270.7,251.5z M292.4,241.8L292.4,241.8c0,0.8-0.1,1.6-0.2,2.3
		c-0.3,2.4-1.7,3.5-4.4,3.5h-2.4c-2.6,0-4-1.2-4.4-3.5c-0.1-0.7-0.2-1.5-0.2-2.3s0.1-1.6,0.2-2.3c0.3-2.4,1.7-3.6,4.4-3.6h2.4
		c2.6,0,4,1.2,4.4,3.6C292.3,240.1,292.4,240.9,292.4,241.8L292.4,241.8z M296.5,245.9L296.5,245.9c0.3-1.2,0.3-2.5,0.3-3.9v-0.3
		v-0.3c0-1.4-0.1-2.7-0.3-3.9c-0.6-4.1-3.4-6.1-8.7-6.1h-2.4c-5.3,0-8,2-8.7,6.1c-0.3,1.2-0.3,2.5-0.3,3.9v0.3v0.3
		c0,1.3,0.1,2.7,0.3,3.9c0.6,4,3.4,6,8.7,6h2.4C293.1,252,296,250,296.5,245.9L296.5,245.9z M328.2,251.3L328.2,251.3h4.6v-9.2
		c0-1.6-0.1-3.1-0.3-4.5c-0.6-4-3.4-6-8.7-6h-1.3c-3,0-5.3,0.7-6.8,2.1c-1.5-1.4-3.8-2.1-6.8-2.1h-1.3c-5.3,0-8,2-8.7,6
		c-0.3,1.4-0.3,2.9-0.3,4.5v9.2h4.6v-9.2c0-0.9,0.1-1.8,0.3-2.7c0.3-2.4,1.7-3.5,4.3-3.5h1.3c2.6,0,4,1.2,4.4,3.5
		c0.1,0.8,0.2,1.7,0.2,2.7v9.2h4.6v-9.2c0-0.9,0.1-1.8,0.2-2.7c0.3-2.4,1.7-3.5,4.4-3.5h1.3c2.6,0,4,1.2,4.3,3.5
		c0.2,0.8,0.3,1.7,0.3,2.7v9.2H328.2z M350.5,241.8L350.5,241.8c0,0.8-0.1,1.6-0.2,2.3c-0.3,2.4-1.7,3.5-4.4,3.5h-2.4
		c-2.6,0-4-1.2-4.4-3.5c-0.1-0.7-0.2-1.5-0.2-2.3s0.1-1.6,0.2-2.3c0.3-2.4,1.7-3.6,4.4-3.6h2.4c2.7,0,4,1.2,4.4,3.6
		C350.5,240.1,350.5,240.9,350.5,241.8L350.5,241.8z M354.8,245.9L354.8,245.9c0.3-1.2,0.3-2.5,0.3-3.9v-0.3v-0.3
		c0-1.4-0.1-2.7-0.3-3.9c-0.6-4.1-3.5-6.1-8.7-6.1h-2.4c-5.3,0-8.1,2-8.7,6.1c-0.3,1.2-0.3,2.5-0.3,3.9v0.3v0.3
		c0,1.3,0.1,2.7,0.3,3.9c0.6,4,3.4,6,8.7,6h2.4C351.4,252,354.2,250,354.8,245.9L354.8,245.9z M377,251.3L377,251.3v-9.2
		c0-1.6-0.1-3.1-0.3-4.5c-0.6-4.1-3.4-6.1-8.7-6.1h-2.1c-5.3,0-8.1,2-8.7,6.1c-0.3,1.3-0.3,2.9-0.3,4.5v9.2h4.6v-9.2
		c0-0.9,0.1-1.8,0.2-2.7c0.3-2.4,1.7-3.6,4.4-3.6h2.1c2.6,0,4,1.2,4.3,3.6c0.1,0.8,0.2,1.6,0.2,2.7v9.2H377L377,251.3z"/>
	<path fill="#CEBB6B" d="M418,223.4c1.8,0,3.4,1.6,3.4,3.4v29.6c0,1.8-1.6,3.4-3.4,3.4h-29.6c-1.8,0-3.4-1.6-3.4-3.4v-29.6
		c0-1.8,1.6-3.4,3.4-3.4H418L418,223.4z M400.5,250.6L400.5,250.6c-0.3,0-0.8-0.2-1.3-0.4l-2.9-1.6c-0.5-0.3-0.9-0.4-1.3-0.4h-3.8
		c-0.4,0-0.7,0.3-0.7,0.7v3.8c0,0.8,0.6,1.3,1.3,1.4c7.5,0.7,14.8,0.7,22.4,0c0.8-0.1,1.3-0.7,1.3-1.4v-6.4c0-1.1-0.6-2-1.5-2.6
		l-15.1-8.5c-0.4-0.2-0.6-0.6-0.6-1.1c0-0.7,0.5-1.3,1.2-1.3h6c0.3,0,0.8,0.2,1.3,0.4l2.9,1.6c0.5,0.3,0.9,0.4,1.3,0.4h3.8
		c0.4,0,0.7-0.3,0.7-0.7v-3.8c0-0.8-0.6-1.3-1.3-1.4c-7.5-0.7-14.8-0.7-22.4,0c-0.8,0.1-1.3,0.7-1.3,1.4v6.4c0,1.1,0.6,2,1.5,2.6
		l15.1,8.5c0.4,0.2,0.6,0.6,0.6,1.1c0,0.7-0.5,1.3-1.2,1.3L400.5,250.6L400.5,250.6z"/>
</g>
</svg>
